<svg width="13" height="13" viewBox="0 0 13 13" fill="none" xmlns="http://www.w3.org/2000/svg">
<path d="M1.32904 11.6705C1.16306 11.5045 1.08008 11.3133 1.08008 11.0967C1.08008 10.8792 1.16306 10.6874 1.32904 10.5214L5.35071 6.49975L1.32904 2.47809C1.16306 2.31212 1.08033 2.12061 1.08084 1.90356C1.08033 1.68653 1.16306 1.49501 1.32904 1.32904C1.49502 1.16307 1.68678 1.08008 1.90433 1.08008C2.12086 1.08008 2.31211 1.16307 2.47809 1.32904L6.49976 5.35071L10.5214 1.32904C10.6874 1.16307 10.8789 1.08033 11.0959 1.08085C11.313 1.08033 11.5045 1.16307 11.6705 1.32904C11.8365 1.49501 11.9195 1.68678 11.9195 1.90433C11.9195 2.12086 11.8365 2.31212 11.6705 2.47809L7.6488 6.49975L11.6705 10.5214C11.8365 10.6874 11.9197 10.8789 11.9202 11.096C11.9197 11.313 11.8365 11.5045 11.6705 11.6705C11.5045 11.8364 11.3132 11.9194 11.0967 11.9194C10.8791 11.9194 10.6874 11.8364 10.5214 11.6705L6.49976 7.6488L2.47809 11.6705C2.31211 11.8364 2.12061 11.9197 1.90356 11.9202C1.68652 11.9197 1.49502 11.8364 1.32904 11.6705Z" fill="white"/>
</svg>
