<svg width="19" height="23" viewBox="0 0 19 23" fill="none" xmlns="http://www.w3.org/2000/svg">
<path fill-rule="evenodd" clip-rule="evenodd" d="M18.3057 0.653075C18.3057 0.292392 18.0133 0 17.6526 0H0L5.0184 3.75554C5.13134 3.84006 5.26862 3.88574 5.40969 3.88574H17.6526C18.0133 3.88574 18.3057 3.59335 18.3057 3.23267V0.653075Z" fill="#003F1A"/>
<path fill-rule="evenodd" clip-rule="evenodd" d="M6.1377 4.59277L11.1571 8.34835C11.27 8.43285 11.4073 8.47852 11.5483 8.47852H17.6526C18.0133 8.47852 18.3057 8.18612 18.3057 7.82544V5.24585C18.3057 4.88517 18.0133 4.59277 17.6526 4.59277H6.1377Z" fill="#003F1A"/>
<path fill-rule="evenodd" clip-rule="evenodd" d="M15.0566 11.2666L12.6465 13.0703H17.6526C18.0133 13.0703 18.3057 12.7779 18.3057 12.4172V9.83765C18.3057 9.47696 18.0133 9.18457 17.6526 9.18457H12.2744L15.0566 11.2666Z" fill="#003F1A"/>
<path fill-rule="evenodd" clip-rule="evenodd" d="M11.7021 13.7764L6.50977 17.6621H17.6526C18.0133 17.6621 18.3057 17.3697 18.3057 17.009V14.4294C18.3057 14.0688 18.0133 13.7764 17.6526 13.7764H11.7021Z" fill="#003F1A"/>
<path fill-rule="evenodd" clip-rule="evenodd" d="M5.56445 18.3691L0.37207 22.2549H17.6526C18.0133 22.2549 18.3057 21.9625 18.3057 21.6018V19.0222C18.3057 18.6615 18.0133 18.3691 17.6526 18.3691H5.56445Z" fill="#003F1A"/>
</svg>
