<svg width="19" height="19" viewBox="0 0 19 19" fill="none" xmlns="http://www.w3.org/2000/svg">
<g clip-path="url(#clip0_1_33)">
<path d="M1.8799 9.19387C1.87989 8.95915 1.95642 8.76527 2.10955 8.61214C2.26337 8.45832 2.45767 8.38138 2.69239 8.38138L8.37989 8.38138L8.37989 2.69388C8.37988 2.45916 8.45681 2.26524 8.61064 2.11213C8.76375 1.9583 8.95766 1.88138 9.19239 1.88138C9.42711 1.88139 9.62139 1.9583 9.77523 2.11213C9.92833 2.26524 10.0049 2.45916 10.0049 2.69388L10.0049 8.38138L15.6924 8.38138C15.9271 8.38139 16.121 8.4583 16.2741 8.6121C16.428 8.76525 16.5049 8.95919 16.5049 9.1939C16.5049 9.42862 16.428 9.62289 16.2742 9.77673C16.121 9.92984 15.9271 10.0064 15.6924 10.0064L10.0049 10.0064L10.0049 15.6939C10.0049 15.9286 9.92835 16.1228 9.77522 16.2767C9.6214 16.4298 9.42714 16.5064 9.19242 16.5064C8.95771 16.5064 8.76375 16.4298 8.61062 16.2767C8.4568 16.1228 8.37991 15.9286 8.3799 15.6939L8.37989 10.0064L2.6924 10.0064C2.45768 10.0064 2.26336 9.92986 2.10958 9.77669C1.95641 9.62291 1.87991 9.42859 1.8799 9.19387Z" fill="white"/>
</g>
<defs>
<clipPath id="clip0_1_33">
<rect width="13" height="13" fill="white" transform="translate(9.19239) rotate(45)"/>
</clipPath>
</defs>
</svg>
