<svg width="19" height="19" viewBox="0 0 19 19" fill="none" xmlns="http://www.w3.org/2000/svg">
<path d="M13.6445 10.9066C13.4472 11.0978 13.3566 11.3742 13.4015 11.6454L14.0786 15.3925C14.1357 15.7101 14.0017 16.0315 13.7359 16.2151C13.4754 16.4055 13.1289 16.4283 12.8448 16.276L9.47163 14.5167C9.35434 14.4542 9.2241 14.4207 9.09082 14.4169H8.88442C8.81283 14.4276 8.74277 14.4504 8.67879 14.4854L5.30486 16.2532C5.13806 16.3369 4.94918 16.3666 4.76411 16.3369C4.31324 16.2516 4.0124 15.8221 4.08628 15.3689L4.76411 11.6218C4.80905 11.3483 4.71842 11.0704 4.52116 10.8761L1.77098 8.21049C1.54098 7.98733 1.46101 7.65222 1.56611 7.34986C1.66817 7.04826 1.92864 6.82815 2.24318 6.77865L6.02839 6.22952C6.31627 6.19982 6.56913 6.02464 6.6986 5.7657L8.36653 2.34603C8.40613 2.26987 8.45716 2.1998 8.51885 2.1404L8.5874 2.08708C8.62319 2.04748 8.66432 2.01473 8.71002 1.98807L8.79303 1.95761L8.92251 1.9043H9.24314C9.52951 1.934 9.7816 2.10536 9.91336 2.36127L11.6034 5.7657C11.7252 6.01474 11.9621 6.18763 12.2355 6.22952L16.0207 6.77865C16.3406 6.82434 16.6079 7.04521 16.7138 7.34986C16.8136 7.65527 16.7275 7.99038 16.4929 8.21049L13.6445 10.9066Z" fill="#FFDE05"/>
</svg>
