<svg viewBox="0 0 34.1321 34.1321" xmlns="http://www.w3.org/2000/svg" data-name="Layer 2" id="Layer_2">
  <path d="M22.7936,9.5293h-11.4526c-.2764,0-.5.2236-.5.5v20.8535c0,.2764.2236.5.5.5h11.4526c.2764,0,.5-.2236.5-.5V10.0293c0-.2764-.2236-.5-.5-.5ZM22.2936,19.956h-4.7266v-4.2129h4.7266v4.2129ZM16.567,19.956h-4.7261v-4.2129h4.7261v4.2129ZM11.841,20.956h4.7261v4.2139h-4.7261v-4.2139ZM17.567,20.956h4.7266v4.2139h-4.7266v-4.2139ZM22.2936,14.7432h-4.7266v-4.2139h4.7266v4.2139ZM16.567,10.5293v4.2139h-4.7261v-4.2139h4.7261ZM11.841,26.1699h4.7261v4.2129h-4.7261v-4.2129ZM17.567,30.3828v-4.2129h4.7266v4.2129h-4.7266Z"></path>
  <path d="M2.1833,29.7764c0,.0199.0078.0375.0101.0569.0032.0266.0066.0529.0138.0782.0102.0355.0256.0685.0432.1006.011.0201.0204.041.0341.0594.0253.034.0568.0626.09.0894.0139.0112.0252.0249.0403.0346.0525.0337.1105.0599.1749.0721l4.4219.8431.5568.1063c.0317.0059.063.0088.0942.0088.0449,0,.0872-.0113.1293-.0228.0127-.0035.0267-.0025.0391-.0069.0538-.0193.1046-.048.1497-.0855,0,0,.0002-.0001.0002-.0002.0005-.0004.0007-.0011.0012-.0015.0511-.0424.0892-.0961.1193-.1534.0096-.0183.0151-.0391.0225-.0588.0096-.0259.0242-.0491.0295-.0771.0034-.0179-.002-.0347-.0005-.0526.0012-.0143.0092-.0268.0092-.0413v-10.2688s.0001-.0004.0001-.0006-.0001-.0004-.0001-.0006v-10.27c0-.0145-.008-.027-.0092-.0413-.0015-.0177.004-.0344.0005-.0523-.0046-.0241-.019-.0427-.0268-.0652-.0098-.0283-.0194-.0567-.0338-.0822-.0194-.0347-.0455-.0647-.0728-.0942-.0146-.0158-.0223-.0366-.0391-.0505-.0068-.0056-.0161-.0065-.0231-.0117-.0331-.0245-.071-.0395-.1086-.055-.0256-.0106-.0488-.0262-.076-.0325-.0641-.0146-.1307-.0176-.196-.006-.0029.0005-.0059-.0008-.0088-.0002l-4.9785.9502s-.0002.0001-.0003.0001h0s-.0004.0002-.0006.0002c-.0635.0122-.1208.0377-.1724.0704-.0176.0112-.031.0272-.047.0404-.0306.0254-.0602.0516-.0839.0832-.0145.0195-.0247.0417-.0362.0631-.0168.0312-.0319.0631-.0418.0974-.0073.0256-.0108.0524-.014.0794-.0023.0193-.0101.037-.0101.0569v9.3186c0,.0007-.0004.0012-.0004.0018s.0004.0012.0004.0018v9.3184ZM7.1618,19.9562h-1.4893v-3.9432l1.4893-.1422v4.0854ZM7.1618,25.0407l-1.4893-.142v-3.9426h1.4893v4.0845ZM4.6725,15.1034l-1.4893.1423v-3.6959l1.4893-.2844v3.838ZM3.1833,16.2508l1.4893-.1423v3.8477h-1.4893v-3.7054ZM4.6725,20.9562v3.8472l-1.4893-.142v-3.7053h1.4893ZM3.1833,25.6666l1.4893.142v3.8376l-1.4893-.2842v-3.6953ZM5.6725,29.837v-3.9331l1.4893.142v4.0753l-.5767-.11-.9125-.1741ZM7.1618,10.7902v4.0754l-1.4893.1422v-3.9334l.1027-.0197,1.3865-.2646Z"></path>
  <path d="M33.5047,9.569c-.0005-.0324-.0101-.0621-.0165-.0929-.0056-.0265-.0069-.054-.0166-.0792-.0089-.023-.0245-.0419-.0366-.0632-.0164-.0288-.0304-.059-.0524-.0842-.0139-.0161-.0326-.0269-.0484-.0411-.0277-.0247-.0548-.05-.0885-.0685-.0035-.002-.0057-.0053-.0092-.0071L17.3044.8476c-.0679-.0371-.1426-.0566-.2178-.0605h-.0034c-.002-.001-.0039-.001-.0034,0h-.0342c-.0752.0039-.1494.0234-.2178.0605L.8957,9.1328c-.0034.0018-.0052.0051-.0085.0069-.0565.0309-.1062.0699-.1452.1168-.0035.0042-.0048.0097-.0081.014-.0343.0441-.0613.093-.0791.1453-.0071.0207-.0073.0437-.0117.0655-.0062.0316-.0169.0617-.0169.0949v21.7598c0,.2422.1733.4492.4116.4922l8.25,1.5098c.0298.0049.0596.0078.0894.0078.0076,0,.0146-.0035.0222-.0039h15.3331c.0076.0004.0146.0039.0222.0039.0298,0,.0596-.0029.0894-.0078l8.2505-1.5098c.2383-.043.4116-.25.4116-.4922V9.5762c0-.0025-.0012-.0047-.0013-.0072ZM29.836,8.4916l-4.8553-.8827-4.5249-3.9957,9.3802,4.8784ZM17.0661,1.9541l6.361,5.6172h-12.7225l6.3615-5.6172ZM13.6754,3.6142l-4.5248,3.9946-1.4088.2545h-.001l-3.4433.6271L13.6754,3.6142ZM8.8771,32.2471l-7.251-1.3291V9.9941l7.251-1.3193v23.5723ZM9.88,8.5713h14.3745v23.7705h-14.3745V8.5713ZM32.506,30.918l-7.2515,1.3291V8.6755l4.4679.8122,2.7836.5065v20.9238Z"></path>
  <path d="M26.5555,9.6946c-.0664-.0113-.1335-.0084-.1978.0063-.0264.0062-.0487.0212-.0735.0314-.0384.0156-.0767.0309-.1105.056-.0069.0051-.0159.006-.0226.0115-.0165.0138-.024.0342-.0385.0498-.0276.0297-.0539.0601-.0734.095-.0145.0256-.0241.0542-.0339.0828-.0076.0223-.0218.0406-.0264.0645-.0034.0175.002.0338.0005.0512-.0013.0146-.0095.0275-.0095.0424v20.54c0,.0149.0082.0277.0095.0424.0015.0175-.0039.0339-.0005.0515.0052.0275.0195.0502.0289.0756.0076.0205.0133.0419.0233.0609.0295.0561.0671.1083.1167.1501.0014.0012.0019.0031.0033.0042.0002.0002.0005.0002.0007.0004.0449.0373.0954.0659.149.0852.02.0073.0425.0066.0635.0112.0347.0077.0687.0185.1052.0185.0312,0,.0625-.0029.0942-.0088l.741-.1414,4.2374-.8079c.0645-.0123.1225-.0385.175-.0723.0143-.0092.025-.0223.0383-.0328.0342-.0273.0663-.0566.0922-.0915.0131-.0177.0222-.0378.0328-.0571.0182-.0329.0339-.0669.0443-.1033.0069-.0245.0103-.0499.0134-.0757.0024-.0198.0103-.038.0103-.0584v-9.3196s.0001-.0004.0001-.0006-.0001-.0004-.0001-.0006v-9.3198c0-.0204-.0079-.0385-.0103-.0583-.0032-.0262-.0065-.0521-.0135-.077-.0101-.0353-.0255-.0681-.0429-.1-.0112-.0206-.0209-.0421-.0349-.0609-.0242-.0325-.0546-.0594-.0861-.0853-.0153-.0126-.0281-.0279-.0449-.0386-.0522-.0332-.1097-.0588-.1736-.071l-4.9785-.9502c-.0027-.0005-.0054.0007-.0081.0002ZM29.4591,11.2654l1.4893.2844v3.6959l-1.4893-.1423v-3.838ZM30.9484,16.2508v3.7054h-1.4893v-3.8476l1.4893.1422ZM30.9484,24.6614l-1.4893.142v-3.8472h1.4893v3.7053ZM26.9699,20.9562h1.4893v3.9426l-1.4893.142v-4.0845ZM28.4591,19.9562h-1.4893v-4.0854l1.4893.1422v3.9432ZM26.9699,30.1211v-4.0753l1.4893-.142v3.9331l-.733.1399-.7562.1442ZM29.4591,29.6461v-3.8376l1.4893-.142v3.6953l-1.4893.2842ZM28.2682,11.038l.191.0365v3.9334l-1.4893-.1423v-4.0754l1.2983.2478Z"></path>
</svg>