<svg height="1024" width="1024" xmlns="http://www.w3.org/2000/svg" version="1.1">
<path transform="translate(0,0)" fill="#FEFEFE" d="M0 0 C337.92 0 675.84 0 1024 0 C1024 337.92 1024 675.84 1024 1024 C686.08 1024 348.16 1024 0 1024 C0 686.08 0 348.16 0 0 Z"></path>
<path transform="translate(162,237)" fill="#080808" d="M0 0 C10.56 0 21.12 0 32 0 C32 7.92 32 15.84 32 24 C206.57 24 381.14 24 561 24 C561 34.89 561 45.78 561 57 C386.43 57 211.86 57 32 57 C32 78.12 32 99.24 32 121 C206.57 121 381.14 121 561 121 C561 131.56 561 142.12 561 153 C386.43 153 211.86 153 32 153 C32 174.12 32 195.24 32 217 C191.39 217 350.78 217 515 217 C515 227.56 515 238.12 515 249 C355.61 249 196.22 249 32 249 C32 270.12 32 291.24 32 313 C151.46 313 270.92 313 394 313 C394 323.56 394 334.12 394 345 C274.54 345 155.08 345 32 345 C32 366.12 32 387.24 32 409 C111.86 409 191.72 409 274 409 C272.02 411.97 270.04 414.94 268 418 C266.84618819 419.76564522 265.69891675 421.53560898 264.5625 423.3125 C263.99186608 424.17212719 263.42123217 425.03175438 262.83330631 425.91743088 C260.91974911 428.91524446 260.91974911 428.91524446 259.86523342 432.1325264 C258.34532534 435.90398675 256.9789848 438.20284427 254 441 C247.35294746 443.32842025 239.75310458 442.51162769 232.82641602 442.36230469 C230.6382211 442.35891865 228.45001255 442.36082206 226.26182556 442.36761475 C220.3273487 442.37105715 214.39578398 442.30052788 208.46198392 442.21672726 C202.25881815 442.14169485 196.05558506 442.13466137 189.85203552 442.12042236 C178.77524509 442.08524877 167.69965923 441.9986012 156.62341838 441.88470975 C146.57038228 441.78188823 136.51756062 441.70697675 126.46411133 441.65917969 C125.80283737 441.65602701 125.14156342 441.65287432 124.46025086 441.64962611 C121.1426833 441.63396514 117.82511359 441.61882785 114.50754273 441.60388327 C87.00411384 441.47846132 59.50252313 441.25840452 32 441 C32 462.12 32 483.24 32 505 C35.63 504.67 39.26 504.34 43 504 C45.90518668 503.91844564 48.78435214 503.86804484 51.68778992 503.87974548 C52.48939775 503.87889106 53.29100558 503.87803663 54.11690456 503.87715632 C56.76375121 503.87552839 59.41053238 503.88097818 62.05737305 503.88647461 C63.9703013 503.88675709 65.88322965 503.88659756 67.79615784 503.8860321 C72.96064061 503.8857465 78.12509991 503.8916048 83.28957725 503.89860606 C88.69742954 503.90487918 94.10528244 503.90544652 99.51313782 503.90663147 C109.740908 503.90973315 119.96866743 503.9179308 130.19643289 503.92798096 C141.84579983 503.9391783 153.4951673 503.94466166 165.14453828 503.94967639 C189.09636501 503.96011442 213.04818145 503.97789391 237 504 C237 514.89 237 525.78 237 537 C169.35 537 101.7 537 32 537 C32 557.79 32 578.58 32 600 C42.28949829 599.88217163 42.28949829 599.88217163 52.78686523 599.76196289 C74.75021729 599.52107236 96.71363622 599.35430441 118.67796966 599.23402006 C122.09122465 599.21526008 125.50447562 599.19584519 128.91772461 599.17602539 C129.59722398 599.17209073 130.27672336 599.16815608 130.97681362 599.16410219 C141.9709214 599.09887966 152.96384937 598.98064152 163.95725786 598.84270806 C175.24262544 598.70229534 186.52740507 598.62021282 197.81368977 598.58867258 C204.15155622 598.56911943 210.48674979 598.52320046 216.82375908 598.41404915 C222.79100001 598.31210117 228.75447267 598.28084664 234.72250175 598.30338478 C236.91039533 598.29926325 239.09841684 598.2694862 241.28555679 598.21191788 C257.42685298 597.80795551 257.42685298 597.80795551 261.74518323 601.4867084 C265.1011821 605.58149448 266.98390313 610.14756242 269 615 C270.78953666 617.57569803 272.76067568 619.87613067 274.875 622.1875 C277.70171071 625.38342995 280.4645925 628.56432583 283 632 C248.19617227 632.09153788 213.39237201 632.16202973 178.58844992 632.20426132 C174.48035313 632.2092642 170.37225659 632.21444148 166.26416016 632.21972656 C165.44630557 632.2207758 164.62845099 632.22182505 163.78581293 632.22290608 C150.53991677 632.2403155 137.29408998 632.27185614 124.04823498 632.30861118 C110.45868121 632.34600569 96.8691638 632.36823269 83.27956069 632.37635398 C74.89273764 632.38184486 66.50611069 632.39919271 58.119348 632.43166587 C52.36970533 632.45279537 46.62016416 632.45920361 40.87048547 632.45400551 C37.55220206 632.45144124 34.23433426 632.45757661 30.91609573 632.4768219 C27.3183307 632.49666887 23.72141054 632.4919575 20.12362671 632.48101807 C18.55066253 632.49849512 18.55066253 632.49849512 16.9459213 632.51632524 C11.17392358 632.46875749 7.39997694 632.13986132 3 628 C-0.53786336 622.59732707 -0.4191672 617.78169862 -0.36914349 611.54770851 C-0.37260502 610.49061701 -0.37606655 609.43352552 -0.37963298 608.34440094 C-0.38760536 604.78444195 -0.37408842 601.22488591 -0.36076355 597.66494751 C-0.36207119 595.09414238 -0.36469685 592.52333764 -0.36853105 589.95253503 C-0.37475143 584.35407473 -0.36982244 578.75571008 -0.35761642 573.15726089 C-0.33951694 564.83258155 -0.33860849 556.50796255 -0.34124239 548.18326711 C-0.34518505 534.18007835 -0.33515625 520.17693205 -0.31719017 506.17375565 C-0.2994447 492.30701106 -0.28789346 478.44028415 -0.28463173 464.57352829 C-0.28442551 463.71163303 -0.28421929 462.84973777 -0.28400682 461.96172447 C-0.28299184 457.58467031 -0.28208768 453.20761612 -0.2812262 448.83056192 C-0.27492342 417.82046023 -0.25470703 386.81038164 -0.22631836 355.80029297 C-0.19876939 325.67269005 -0.17751643 295.54509346 -0.16479492 265.41748047 C-0.16440034 264.48896685 -0.16400576 263.56045323 -0.16359923 262.60380283 C-0.1596437 253.27936584 -0.15581625 243.95492881 -0.15208265 234.63049173 C-0.14447382 215.63520175 -0.13601007 196.63991218 -0.12702942 177.6446228 C-0.12661755 176.77123243 -0.12620568 175.89784206 -0.12578133 174.99798532 C-0.09817504 116.66531376 -0.05040854 58.33265571 0 0 Z"></path>
<path transform="translate(130.02960669994354,128.87234950065613)" fill="#080808" d="M0 0 C1.5334668 -0.00452395 1.5334668 -0.00452395 3.09791273 -0.0091393 C4.22156616 -0.00736983 5.34521959 -0.00560036 6.50292313 -0.00377727 C7.7011095 -0.0058299 8.89929587 -0.00788253 10.13379091 -0.00999737 C13.47561486 -0.01469499 16.81738525 -0.01489002 20.15920856 -0.01321978 C23.78882874 -0.01248988 27.41844165 -0.01750879 31.04805875 -0.0217948 C38.25405145 -0.02938297 45.46003675 -0.03156827 52.66603304 -0.03212385 C61.29425632 -0.03303667 69.92247273 -0.03970172 78.55069306 -0.04647068 C99.40500239 -0.06254048 120.25931099 -0.06843478 141.1136254 -0.07321942 C150.97479274 -0.07555408 160.8359595 -0.07915656 170.69712638 -0.0829148 C204.43916923 -0.09575029 238.18121176 -0.10647018 271.92325699 -0.1099174 C274.04186195 -0.11013904 276.16046691 -0.11036082 278.27907187 -0.11058275 C280.40284765 -0.1108034 282.52662343 -0.11102388 284.65039921 -0.1112442 C288.91119802 -0.11168676 293.17199683 -0.11213387 297.43279564 -0.11258388 C298.48922817 -0.11269327 299.5456607 -0.11280266 300.63410633 -0.11291536 C334.90472628 -0.11654765 369.1753251 -0.13247418 403.44593695 -0.15577424 C439.66169627 -0.18035186 475.87744351 -0.19408925 512.09321141 -0.19528532 C516.06614864 -0.19545678 520.03908587 -0.19567221 524.01202309 -0.19591975 C524.99030309 -0.19597552 525.96858309 -0.19603129 526.97650794 -0.19608875 C542.74136336 -0.19724091 558.50619715 -0.20827675 574.27104525 -0.22280681 C590.10592121 -0.23714946 605.94076934 -0.24042142 621.77565001 -0.23236683 C631.19036735 -0.22790024 640.60499506 -0.2318122 650.01970069 -0.24760534 C656.30280197 -0.25732228 662.58584013 -0.25620869 668.86894077 -0.24616911 C672.4526205 -0.24075327 676.03612755 -0.24014293 679.61979328 -0.25267783 C683.47533908 -0.26605166 687.33062643 -0.25635967 691.18618119 -0.2442863 C692.30515229 -0.25188149 693.42412339 -0.25947669 694.5770027 -0.26730204 C701.08322632 -0.22298156 705.84743702 0.24693611 710.83367455 4.8464005 C711.55103783 5.72811925 711.55103783 5.72811925 712.2828933 6.6276505 C712.77402611 7.215463 713.26515893 7.8032755 713.77117455 8.4089005 C716.07115144 11.70528431 716.10839227 14.68375122 716.14739525 18.57369542 C716.16023049 19.68883016 716.17306572 20.80396489 716.18628991 21.95289159 C716.19737031 23.76222928 716.19737031 23.76222928 716.20867455 25.60811925 C716.2167463 26.85007558 716.22481804 28.09203191 716.23313439 29.37162328 C716.24697638 32.00363448 716.25799173 34.63552041 716.26555932 37.26754308 C716.27440536 39.95722764 716.29524601 42.64639322 716.32708275 45.33590245 C716.36978499 49.21846644 716.38593424 53.10034946 716.39617455 56.98311925 C716.41368264 58.17922322 716.43119072 59.3753272 716.44922936 60.60767674 C716.43112644 67.60546878 715.7636283 72.19100029 711.9703933 78.1276505 C706.21056034 83.73979544 700.84945347 84.42139357 693.16961205 84.322963 C691.9150496 84.31871816 691.9150496 84.31871816 690.63514245 84.31438756 C687.97591104 84.3032337 685.31702212 84.27813813 682.6578933 84.2526505 C680.84995547 84.24261449 679.04201234 84.23348973 677.23406518 84.22530675 C672.81271018 84.20331009 668.39160972 84.16881344 663.9703933 84.1276505 C663.97592406 85.29440533 663.97592406 85.29440533 663.98156655 86.48473096 C664.06991494 105.41371181 664.13610163 124.3426515 664.17764199 143.27179456 C664.19826471 152.42580755 664.22637974 161.57968289 664.27215111 170.73360753 C664.31202778 178.71244274 664.33782823 186.69117825 664.34674728 194.67011034 C664.35196064 198.89469574 664.36420774 203.11899593 664.39331353 207.34348989 C664.42049585 211.32109432 664.42883269 215.2982965 664.42282403 219.275985 C664.42392301 220.73446393 664.43186043 222.19295652 664.4472152 223.65135503 C664.46718299 225.6460091 664.45993248 227.64087978 664.45141137 229.63561559 C664.45694212 231.30866985 664.45694212 231.30866985 664.46258461 233.0155232 C663.66333679 238.0691698 661.09219088 241.16238282 657.2828933 244.4401505 C653.13275677 246.554371 649.62163296 247.32842343 644.9703933 247.1276505 C639.11031068 245.21185426 636.04314664 241.45230983 632.84480011 236.32221913 C631.69441958 233.43501722 631.72468747 231.0597375 631.72988427 227.95205235 C631.72576027 226.05061971 631.72576027 226.05061971 631.72155297 224.11077428 C631.72863081 222.70852113 631.73590042 221.30626895 631.74334252 219.90401769 C631.74390674 218.42561404 631.74358986 216.94720983 631.74245751 215.46880651 C631.74188342 211.45672556 631.75364689 207.44476406 631.76760542 203.43271089 C631.78010333 199.23933509 631.78128254 195.0459566 631.78365624 190.85256505 C631.78987377 182.91241197 631.80628829 174.97231392 631.82635522 167.03218508 C631.84870571 157.99236878 631.85970551 148.95254986 631.86974609 139.91271281 C631.89065427 121.31766083 631.92583557 102.72266009 631.9703933 84.1276505 C631.14146976 84.12882035 631.14146976 84.12882035 630.2958003 84.13001384 C570.14197846 84.21473122 509.98815014 84.2932603 449.8342849 84.3393662 C448.48682276 84.34040163 448.48682276 84.34040163 447.11213916 84.34145797 C427.59030268 84.3564219 408.06846557 84.3702729 388.54662749 84.38297715 C378.97336439 84.38921392 369.40010146 84.39569668 359.82683861 84.4023087 C358.87417505 84.4029625 357.92151148 84.40361629 356.93997932 84.4042899 C326.05171869 84.42560326 295.16350373 84.46316474 264.27527078 84.5091366 C232.53821063 84.5562861 200.80117576 84.58707459 169.06408117 84.59722545 C164.58323125 84.59866626 160.10238142 84.60029445 155.62153161 84.60203671 C154.29866567 84.60254239 154.29866567 84.60254239 152.94907517 84.60305828 C138.74276822 84.60897087 124.53653937 84.63217193 110.33026429 84.66181067 C96.05418593 84.69122708 81.77818514 84.70249538 67.50207752 84.69515739 C59.01642956 84.69134947 50.53106513 84.7015376 42.04546827 84.73163821 C36.37897933 84.75036849 30.71267635 84.75098251 25.04617465 84.73680957 C21.81610165 84.72925089 18.58667458 84.73237746 15.35663706 84.75206641 C11.87683644 84.77205008 8.39843626 84.76136844 4.91865838 84.74288964 C3.91610209 84.75602471 2.91354581 84.76915978 1.88060904 84.78269288 C-4.60333731 84.7045623 -9.05440898 83.40197054 -14.0296067 79.1276505 C-17.80607039 74.28603038 -19.14878417 70.71974735 -19.19073951 64.6498673 C-19.20034706 63.52827718 -19.2099546 62.40668706 -19.21985328 61.25110936 C-19.22410316 60.03861012 -19.22835304 58.82611089 -19.2327317 57.57686925 C-19.23843177 56.33016957 -19.24413185 55.0834699 -19.25000465 53.79899144 C-19.25945836 51.15858871 -19.26635323 48.51829974 -19.26984107 45.87789464 C-19.27423107 43.17463269 -19.28814236 40.47168897 -19.3108567 37.76851964 C-19.34131749 33.87120417 -19.35188927 29.97429049 -19.3577317 26.07686925 C-19.3700785 24.87044271 -19.3824253 23.66401616 -19.39514625 22.42103124 C-19.37696689 15.56963757 -19.13284273 10.56209037 -14.34601295 5.26436925 C-13.76722389 4.78612706 -13.18843482 4.30788487 -12.5921067 3.8151505 C-12.01589576 3.32401769 -11.43968482 2.83288487 -10.84601295 2.32686925 C-7.43253492 0.07323967 -4.00746223 0.00234235 0 0 Z"></path>
<path transform="translate(573.9375,609.6875)" fill="#090909" d="M0 0 C1.13983841 -0.00564972 1.13983841 -0.00564972 2.30270386 -0.01141357 C4.5236938 -0.01698815 6.74392632 -0.00586749 8.96484375 0.01171875 C10.25898193 0.02033936 11.55312012 0.02895996 12.88647461 0.0378418 C17.99062931 0.37354329 23.02982598 1.39746836 28.0625 2.3125 C28.0625 12.5425 28.0625 22.7725 28.0625 33.3125 C15.0625 32.3125 15.0625 32.3125 10.73828125 31.765625 C-17.75752115 28.25285871 -46.55328675 36.9470424 -69.6484375 53.65234375 C-92.20866556 71.38608358 -107.95518557 97.80936905 -111.65625 126.45703125 C-114.02983591 158.99493812 -108.21643458 189.72667986 -86.9375 215.3125 C-86.21691406 216.18519531 -85.49632812 217.05789063 -84.75390625 217.95703125 C-65.03137076 240.84360986 -35.80913786 254.03897154 -5.9375 256.3125 C25.47553663 258.11120148 55.84803446 247.68229791 79.56103516 227.00585938 C98.24904107 210.23164925 108.7710866 188.56312011 114.0625 164.3125 C114.24208252 163.54309082 114.42166504 162.77368164 114.60668945 161.98095703 C115.47919141 156.87305857 115.28810968 151.68447827 115.30273438 146.51464844 C115.31230922 144.4780786 115.34330618 142.44257781 115.375 140.40625 C115.57623009 115.52205444 106.79744016 91.85321307 91.49609375 72.31640625 C90.0625 70.3125 90.0625 70.3125 90.0625 68.3125 C89.4025 68.3125 88.7425 68.3125 88.0625 68.3125 C88.0625 67.6525 88.0625 66.9925 88.0625 66.3125 C93.07922377 66.06444961 98.09235501 65.88349734 103.11376953 65.76318359 C104.8194801 65.71302515 106.52476336 65.64487276 108.22900391 65.55810547 C122.3762644 64.85611064 122.3762644 64.85611064 126.42675781 68.35449219 C128.0006569 70.95932955 129.06245285 73.44347702 130.0625 76.3125 C130.6915625 77.4365625 131.320625 78.560625 131.96875 79.71875 C149.34121857 113.44177722 151.55787649 151.88487313 140.51171875 188.0234375 C138.22954154 195.02084375 135.28019849 201.70081619 132.0625 208.3125 C131.59070313 209.28574219 131.11890625 210.25898437 130.6328125 211.26171875 C124.0512799 223.99717026 115.11717972 235.16714332 105.0625 245.3125 C104.16144531 246.22644531 103.26039063 247.14039063 102.33203125 248.08203125 C74.95311115 274.47908663 37.43365202 287.96704079 -0.29345703 287.6640625 C-42.02079855 286.65571594 -78.47016814 269.25363059 -107.17578125 239.41015625 C-132.58285768 212.19970817 -145.30170858 174.56987408 -144.04248047 137.60644531 C-142.29967829 99.52419123 -125.92070694 64.37156659 -98.66015625 37.78515625 C-80.83255909 21.5945264 -59.15503382 9.64455468 -35.9375 3.3125 C-35.28249512 3.13315918 -34.62749023 2.95381836 -33.95263672 2.76904297 C-22.81362856 -0.0757405 -11.41964652 0.03162641 0 0 Z"></path>
<path transform="translate(762,405)" fill="#090909" d="M0 0 C33.33 0 66.66 0 101 0 C101 29 101 29 96.0625 36.625 C94.0770368 38.45578472 92.05731532 40.25034562 90 42 C88.45947518 43.79941501 86.95740022 45.63262331 85.5 47.5 C81.75212202 52.1045358 77.93016556 56.64019191 74.0859375 61.1640625 C70.44377036 65.45734331 66.87620932 69.80753432 63.32421875 74.17578125 C60.25722098 77.90257014 57.12987272 81.57700265 53.98046875 85.234375 C50.44286023 89.37570713 47.28938044 93.61415942 44 98 C62.81 98.33 81.62 98.66 101 99 C101 109.23 101 119.46 101 130 C67.67 130 34.34 130 0 130 C0 103 0 103 3.9375 96.5 C5.59375332 94.96556813 7.28169623 93.46461204 9 92 C10.53444012 90.1953935 12.03446381 88.36099833 13.5 86.5 C14.62341797 85.12714844 14.62341797 85.12714844 15.76953125 83.7265625 C17.20499935 81.97182216 18.63993796 80.21664845 20.07421875 78.4609375 C23.47033447 74.30524692 26.87056242 70.15359476 30.29296875 66.01953125 C36.4065097 58.62917551 42.47607441 51.21586276 48.36083984 43.64135742 C51.17252423 40.02546248 54.06343093 36.52388288 57 33 C38.19 32.67 19.38 32.34 0 32 C0 21.44 0 10.88 0 0 Z"></path>
<path transform="translate(643,520)" fill="#090909" d="M0 0 C28.71 0 57.42 0 87 0 C87 22.77203735 87 22.77203735 79.09814453 31.22680664 C78.55270996 31.72043701 78.00727539 32.21406738 77.4453125 32.72265625 C74.49747567 35.48695457 71.94072833 38.38035181 69.4375 41.5625 C65.08135062 46.93800426 60.5821534 52.1812975 56.0703125 57.42578125 C53.0317137 60.95856337 50.01150765 64.50660836 47 68.0625 C46.55543457 68.58634277 46.11086914 69.11018555 45.65283203 69.64990234 C43.04770533 72.72886943 40.5209373 75.84882837 38 79 C62.255 79.495 62.255 79.495 87 80 C87 88.25 87 96.5 87 105 C58.29 105 29.58 105 0 105 C0 83 0 83 3.8125 76.9375 C5.51648814 75.26561211 7.24732721 73.62077846 9 72 C10.89256834 69.88198039 12.69204745 67.69031245 14.5 65.5 C15.43619964 64.39473057 16.37368779 63.29055118 17.3125 62.1875 C19.74077711 59.31771796 22.12683223 56.41560612 24.5 53.5 C27.83653893 49.40406959 31.2137141 45.3461467 34.625 41.3125 C35.05619141 40.80203125 35.48738281 40.2915625 35.93164062 39.765625 C39.57535666 35.46790865 43.288317 31.24192343 47 27 C23.735 26.505 23.735 26.505 0 26 C0 17.42 0 8.84 0 0 Z"></path>
<path transform="translate(539.1875,793.25)" fill="#0A0A0A" d="M0 0 C3.9145944 0.77008414 5.2665929 1.60874255 8.375 3.9375 C19.16294172 11.94303141 30.73293811 14.17807461 43.8125 12.75 C53.26883389 10.76328196 60.87501705 6.0416553 68.8125 0.75 C72.1875 0.25 72.1875 0.25 75.8125 0.75 C78.8125 3.375 78.8125 3.375 80.8125 6.75 C80.97362872 10.69765358 80.21948877 12.24434729 77.75 15.3125 C63.48980661 27.14542643 46.20894174 32.14065974 27.8125 30.75 C15.37077571 29.1271664 1.62222447 22.7745958 -7.1875 13.75 C-8.63180855 10.86138291 -8.56438506 8.95352299 -8.1875 5.75 C-5.71126578 2.29827957 -4.14990223 0.97644758 0 0 Z"></path>
<path transform="translate(601,722)" fill="#090909" d="M0 0 C2.375 2.125 2.375 2.125 5 5 C13.3893165 11.217614 19.48959591 12.8613039 30 12 C35.29587936 10.61884874 38.36368632 7.71688765 42 3.75 C44.66730403 0.94092981 46.31249845 -0.58645824 50.25 -0.8125 C54 0 54 0 56.5625 2.0625 C58.52354335 6.06984945 58.370275 7.74493553 57 12 C50.61364551 21.72082276 40.23254134 27.65290181 29 30 C16.36563955 30.85555512 5.39928871 28.3542593 -4.40625 19.93359375 C-7.29367928 17.09324212 -9.74954425 14.37568362 -12 11 C-11.8616853 7.19634586 -11.49915469 4.74873203 -9.375 1.5625 C-5.99762021 -0.65946039 -3.96476406 -0.62601538 0 0 Z"></path>
<path transform="translate(505,722)" fill="#090909" d="M0 0 C2.6875 2.25 2.6875 2.25 5 5 C11.57241414 10.88058107 17.29579274 12.6600022 26.0078125 12.41015625 C32.77831883 11.48208423 37.3117884 7.72218829 42.1875 3.1875 C44.783504 0.82374288 45.72420175 0.05834194 49.25 -0.6875 C52.70667747 0.17666937 53.93780959 1.09765794 56 4 C57.41747062 7.98663611 57.17880482 9.58278876 55.5 13.5 C50.30532277 21.52171246 41.88905808 26.03698064 33 29 C18.5875048 30.39961539 7.23742283 28.88281534 -4.5625 20.0625 C-8.0784555 17.04397872 -10.73187792 14.58474906 -12 10 C-11.88337317 6.55950849 -11.59742606 4.089424 -9.9375 1.0625 C-6.7186557 -0.70267268 -3.50872721 -0.74448436 0 0 Z"></path>
<path transform="translate(162,237)" fill="#161617" d="M0 0 C10.56 0 21.12 0 32 0 C32 7.92 32 15.84 32 24 C206.24 24 380.48 24 560 24 C560 24.33 560 24.66 560 25 C558.88602315 25.00173625 557.7720463 25.0034725 556.62431258 25.00526136 C507.54932635 25.0818151 458.47434226 25.15959568 409.39936829 25.2436676 C408.28559202 25.24557512 408.28559202 25.24557512 407.14931521 25.24752118 C391.01392294 25.27516302 374.87853105 25.30302601 358.74313955 25.33111694 C350.83079427 25.3448906 342.91844892 25.35861537 335.00610352 25.37231445 C334.21871369 25.37367854 333.43132387 25.37504262 332.62007375 25.37644804 C307.08059349 25.42067002 281.54110928 25.46166129 256.00162105 25.50098413 C229.76501417 25.54139732 203.52841465 25.58505598 177.29182006 25.63282111 C173.58939655 25.63956005 169.88697296 25.64626174 166.18454933 25.65294075 C165.09147228 25.65491434 165.09147228 25.65491434 163.97631286 25.6569278 C152.22753731 25.67804472 140.47875895 25.69572197 128.72997597 25.71212531 C116.92965093 25.72867357 105.12933689 25.74889676 93.32902416 25.77266841 C86.93083612 25.78544875 80.53265592 25.7965797 74.13445854 25.80341911 C68.28510086 25.80970698 62.4357702 25.82051715 56.58642731 25.8350333 C54.46256857 25.83948617 52.33870548 25.84223213 50.21484228 25.84316199 C47.34302912 25.84466074 44.47129527 25.85219692 41.5994978 25.8613348 C40.34308429 25.8598008 40.34308429 25.8598008 39.06128868 25.85823581 C35.78314546 25.87406714 33.13219513 25.95593496 30 27 C30 18.42 30 9.84 30 1 C20.1 1 10.2 1 0 1 C0 0.67 0 0.34 0 0 Z"></path>
<path transform="translate(643,520)" fill="#010101" d="M0 0 C28.38 0 56.76 0 86 0 C86 6.6 86 13.2 86 20 C85.67 20 85.34 20 85 20 C85 14.06 85 8.12 85 2 C57.61 2 30.22 2 2 2 C2 9.26 2 16.52 2 24 C17.18 24 32.36 24 48 24 C44.33506187 25.83246906 43.30543556 26.24888181 39.50683594 26.22705078 C38.62622498 26.22689972 37.74561401 26.22674866 36.83831787 26.22659302 C35.42561615 26.21110916 35.42561615 26.21110916 33.984375 26.1953125 C33.01340881 26.1924826 32.04244263 26.18965271 31.04205322 26.18673706 C27.94457615 26.17555292 24.8473895 26.15045142 21.75 26.125 C19.64844168 26.11496792 17.54687882 26.10584247 15.4453125 26.09765625 C10.29667342 26.07732197 5.14866135 26.03816965 0 26 C0 17.42 0 8.84 0 0 Z"></path>
<path transform="translate(162,237)" fill="#2A2A2A" d="M0 0 C10.56 0 21.12 0 32 0 C32 7.92 32 15.84 32 24 C84.14 24 136.28 24 190 24 C190 24.33 190 24.66 190 25 C189.19362941 25.00423194 188.38725882 25.00846388 187.55645275 25.01282406 C167.95248915 25.11604522 148.34856236 25.22467012 128.74466228 25.33933926 C119.26443915 25.39466108 109.78421226 25.44814139 100.30395508 25.49731445 C92.04275979 25.54016901 83.7815921 25.58645025 75.52043945 25.63687855 C71.14461847 25.66346921 66.76880294 25.68832207 62.39295006 25.70907402 C58.27671681 25.72864884 54.16053604 25.75279519 50.04434967 25.78049088 C48.53142817 25.78985682 47.01849515 25.79753375 45.50555611 25.80341911 C43.4440099 25.81168805 41.38259078 25.82596689 39.3210907 25.84178162 C37.58858078 25.85146044 37.58858078 25.85146044 35.82107067 25.8613348 C32.92017821 25.87701189 32.92017821 25.87701189 30 27 C30 18.42 30 9.84 30 1 C20.1 1 10.2 1 0 1 C0 0.67 0 0.34 0 0 Z"></path>
<path transform="translate(597,613)" fill="#101010" d="M0 0 C1.65 0 3.3 0 5 0 C5 9.9 5 19.8 5 30 C-8 29 -8 29 -13 28 C-13 27.34 -13 26.68 -13 26 C-20.59 26 -28.18 26 -36 26 C-36 25.67 -36 25.34 -36 25 C-32.1875662 24.94127072 -28.37525094 24.90616084 -24.5625 24.875 C-23.49322266 24.85824219 -22.42394531 24.84148438 -21.32226562 24.82421875 C-15.61334099 24.78930178 -10.43859875 25.0591066 -4.91772461 26.56689453 C-2.67738173 27.14686345 -2.67738173 27.14686345 1 27 C1.33 18.42 1.66 9.84 2 1 C1.34 0.67 0.68 0.34 0 0 Z"></path>
<path transform="translate(434,721)" fill="#121212" d="M0 0 C0.66 0.33 1.32 0.66 2 1 C1.34 6.61 0.68 12.22 0 18 C-0.33 18 -0.66 18 -1 18 C-2.51708428 5.33029613 -2.51708428 5.33029613 0 0 Z"></path>
<path transform="translate(462,772)" fill="#121212" d="M0 0 C0.33 0 0.66 0 1 0 C1.36504603 1.58086048 1.71660506 3.16483907 2.0625 4.75 C2.25972656 5.63171875 2.45695312 6.5134375 2.66015625 7.421875 C2.99825872 9.98679028 2.81158635 11.57091639 2 14 C1.34 13.67 0.68 13.34 0 13 C-0.44921875 10.8203125 -0.44921875 10.8203125 -0.6875 8.125 C-0.77386719 7.24070312 -0.86023438 6.35640625 -0.94921875 5.4453125 C-1 3 -1 3 0 0 Z"></path>
<path transform="translate(432,773)" fill="#0F0F10" d="M0 0 C0.66 0 1.32 0 2 0 C4.125 7.625 4.125 7.625 3 11 C2.34 10.67 1.68 10.34 1 10 C0.5859375 7.71484375 0.5859375 7.71484375 0.375 4.9375 C0.30023438 4.01839844 0.22546875 3.09929688 0.1484375 2.15234375 C0.09945313 1.44207031 0.05046875 0.73179687 0 0 Z"></path>
<path transform="translate(437,710)" fill="#141414" d="M0 0 C0.66 0.66 1.32 1.32 2 2 C1.34 2 0.68 2 0 2 C0.33 3.32 0.66 4.64 1 6 C0.34 6 -0.32 6 -1 6 C-1.33 7.32 -1.66 8.64 -2 10 C-3 8 -3 8 -2.44140625 6.0546875 C-2.15136719 5.33539062 -1.86132812 4.61609375 -1.5625 3.875 C-1.27503906 3.15054688 -0.98757813 2.42609375 -0.69140625 1.6796875 C-0.46324219 1.12539063 -0.23507812 0.57109375 0 0 Z"></path>
</svg>
