<svg viewBox="0 0 34.1321 34.1321" xmlns="http://www.w3.org/2000/svg" data-name="Layer 2" id="Layer_2">
  <path d="M16.5052,32.9266c8.7974,0,15.9546-7.1572,15.9546-15.9551,0-7.5381-5.3516-14.1094-12.7251-15.626-.1909-.0459-.3872.0342-.5024.1924-.1162.1562-.1304.3662-.0366.5371,1.1948,2.1846,1.8262,4.6611,1.8262,7.1631,0,8.2461-6.7085,14.9541-14.9546,14.9541-1.0146,0-2.0337-.1035-3.0283-.3076-.1934-.041-.3872.0371-.5029.1934s-.1299.3662-.0361.5371c2.8032,5.127,8.1699,8.3115,14.0054,8.3115ZM6.0672,25.1922c8.7974,0,15.9546-7.1572,15.9546-15.9541,0-2.3008-.501-4.583-1.4565-6.6621,6.373,1.7949,10.8945,7.6865,10.8945,14.3955,0,8.2461-6.7085,14.9551-14.9546,14.9551-5.1143,0-9.8447-2.6104-12.5864-6.8789.7124.0957,1.4312.1445,2.1484.1445Z"></path>
  <path d="M11.9612,11.9198c0,.2764.2236.5.5.5s.5-.2236.5-.5c0-2.209,1.7974-4.0059,4.0063-4.0059.2764,0,.5-.2236.5-.5s-.2236-.5-.5-.5c-2.209,0-4.0063-1.7979-4.0063-4.0068,0-.2764-.2236-.5-.5-.5s-.5.2236-.5.5c0,2.209-1.8027,4.0068-4.0181,4.0068-.2764,0-.5.2236-.5.5s.2236.5.5.5c2.2153,0,4.0181,1.7969,4.0181,4.0059ZM12.4608,5.0858c.4912,1.0127,1.3145,1.8359,2.3267,2.3281-1.0122.4912-1.8354,1.3145-2.3267,2.3271-.4927-1.0127-1.3174-1.8359-2.3325-2.3271,1.0151-.4922,1.8398-1.3154,2.3325-2.3281Z"></path>
  <path d="M7.3192,13.16c0-.2764-.2236-.5-.5-.5s-.5.2236-.5.5c0,1.373-1.1206,2.4893-2.4976,2.4893-.2764,0-.5.2236-.5.5s.2236.5.5.5c1.377,0,2.4976,1.1162,2.4976,2.4893,0,.2764.2236.5.5.5s.5-.2236.5-.5c0-1.373,1.1167-2.4893,2.4893-2.4893.2764,0,.5-.2236.5-.5s-.2236-.5-.5-.5c-1.3726,0-2.4893-1.1162-2.4893-2.4893ZM6.8187,17.3416c-.2949-.4883-.7061-.8984-1.1943-1.1924.4883-.2939.8994-.7041,1.1943-1.1924.2939.4883.7041.8984,1.1914,1.1924-.4873.2939-.8975.7041-1.1914,1.1924Z"></path>
  <path d="M22.0491,28.827c1.4282,0,2.5903-1.1621,2.5903-2.5898s-1.1621-2.5898-2.5903-2.5898-2.5898,1.1621-2.5898,2.5898,1.1616,2.5898,2.5898,2.5898ZM22.0491,24.6473c.877,0,1.5903.7129,1.5903,1.5898s-.7134,1.5898-1.5903,1.5898c-.8765,0-1.5898-.7129-1.5898-1.5898s.7134-1.5898,1.5898-1.5898Z"></path>
  <path d="M25.8738,13.452c1.2603,0,2.2852-1.0254,2.2852-2.2852s-1.0249-2.2852-2.2852-2.2852-2.2852,1.0254-2.2852,2.2852,1.0249,2.2852,2.2852,2.2852ZM25.8738,9.8817c.7085,0,1.2852.5762,1.2852,1.2852s-.5767,1.2852-1.2852,1.2852-1.2852-.5762-1.2852-1.2852.5767-1.2852,1.2852-1.2852Z"></path>
  <path d="M10.3792,28.9149c.9023,0,1.6367-.7344,1.6367-1.6367s-.7344-1.6357-1.6367-1.6357-1.6362.7334-1.6362,1.6357.7339,1.6367,1.6362,1.6367ZM10.3792,26.6424c.3511,0,.6367.2852.6367.6357,0,.3516-.2856.6367-.6367.6367-.3506,0-.6362-.2852-.6362-.6367,0-.3506.2856-.6357.6362-.6357Z"></path>
  <path d="M26.5491,22.9295c-.1899-.0703-.4097-.0303-.5498.1094-.0898.0908-.1401.2207-.1401.3506,0,.1396.0503.2598.1401.3496.1001.1006.2197.1504.3599.1504.0601,0,.1299-.0098.1899-.04.0601-.0205.1104-.0605.1602-.1104.1001-.0898.1499-.21.1499-.3496,0-.1299-.0498-.2598-.1499-.3506-.0498-.0498-.1001-.0791-.1602-.1094Z"></path>
  <path d="M24.1395,7.0692c.0698,0,.1299-.0098.1899-.0303.0601-.0293.1196-.0693.1597-.1094.1001-.1006.1504-.2197.1504-.3506,0-.0693-.0103-.1396-.04-.1992-.02-.0605-.0601-.1104-.1104-.1602-.04-.0498-.0996-.0801-.1597-.1104-.1802-.0703-.4004-.0303-.54.1104-.0503.0498-.0903.0996-.1104.1602-.0298.0596-.0396.1299-.0396.1992,0,.1309.0498.25.1499.3506.0898.0898.2197.1396.3501.1396Z"></path>
  <path d="M23.1893,15.159c.04.04.1001.0801.1602.1104.0601.0195.1299.0303.1899.0303.0698,0,.1299-.0107.1899-.0303.0601-.0303.1201-.0703.1602-.1104.0498-.0498.0898-.0996.1099-.1699.0298-.0596.04-.1201.04-.1895,0-.0605-.0103-.1299-.04-.1904-.02-.0596-.0601-.1104-.1099-.1602-.04-.0498-.1001-.0801-.1602-.1094-.1201-.0508-.2603-.0508-.3799,0-.0601.0293-.1201.0596-.1602.1094-.0498.0498-.0898.1006-.1099.1602-.0303.0605-.04.1299-.04.1904,0,.0693.0098.1299.04.1895.02.0703.0601.1201.1099.1699Z"></path>
  <path d="M13.6893,29.869c.0498.0508.1001.0801.1602.1104.0601.0195.1299.04.1899.04.1396,0,.2598-.0596.3599-.1504.0498-.0498.0801-.0996.1099-.1592.02-.0605.04-.1309.04-.1904,0-.1396-.0601-.2598-.1499-.3604-.1401-.1396-.3599-.1797-.5498-.0996-.0601.0195-.1104.0596-.1602.0996-.0498.0508-.0801.1104-.1099.1699-.02.0605-.0303.1201-.0303.1904,0,.0596.0103.1299.0303.1904.0298.0596.0601.1094.1099.1592Z"></path>
</svg>