<svg viewBox="0 0 34.1321 34.1321" xmlns="http://www.w3.org/2000/svg" data-name="Layer 2" id="Layer_2">
  <path d="M1.1263,33.3414h31.8799c.2764,0,.5-.2236.5-.5V11.149c0-.0051-.0027-.0095-.0029-.0145-.0029-.0511-.0134-.1014-.0301-.1494-.0023-.0067-.0016-.0144-.0042-.0209-.035-.0875-.1002-.1601-.1803-.2168-.0085-.006-.0103-.0176-.0193-.0232L17.3294.8619c-.008-.0049-.018-.003-.0262-.0074-.0715-.0394-.1495-.0677-.237-.0677s-.1655.0284-.237.0677c-.0082.0045-.0182.0025-.0262.0074L.8631,10.7242c-.0158.0098-.0247.0253-.039.0365-.0279.0217-.054.0447-.076.071-.02.0238-.0367.0499-.052.0772-.0154.0277-.0289.056-.0388.0859-.0104.0319-.0162.0654-.0201.0998-.0021.0187-.011.0351-.011.0544v21.6924c0,.2764.2236.5.5.5ZM1.6263,11.649h6.2241v20.6924H1.6263V11.649ZM17.5662,6.3258l6.5533,4.3232h-6.5533v-4.3232ZM16.5662,10.649h-6.551l6.551-4.3237v4.3237ZM8.8504,11.649h7.7158v4.917h-3.1562c-.2764,0-.5.2236-.5.5v15.2754h-4.0596V11.649ZM13.9099,32.3414v-14.7754h6.3149v14.7754h-6.3149ZM20.7249,16.566h-3.1587v-4.917h7.7188v20.6924h-4.0601v-15.2754c0-.2764-.2236-.5-.5-.5ZM32.5061,32.3414h-6.2212V11.649h6.2212v20.6924ZM25.9345,10.649l-8.3683-5.5204v-2.9446l13.6816,8.465h-5.3134ZM16.5662,2.1839v2.944l-8.3654,5.5211H2.8842L16.5662,2.1839Z"></path>
</svg>