<svg viewBox="0 0 34.1321 34.1321" xmlns="http://www.w3.org/2000/svg" data-name="Layer 2" id="Layer_2">
  <path d="M8.6526,33.7008c2.106,0,4.2129-.8018,5.8164-2.4053l18.5249-18.5244c.4585-.459.7109-1.0684.7109-1.7168s-.2524-1.2578-.7109-1.7158L24.7942,1.1383c-.917-.918-2.5166-.917-3.4326,0L2.8367,19.6637c-1.5537,1.5537-2.4092,3.6191-2.4092,5.8164s.8555,4.2617,2.4092,5.8154c1.6035,1.6035,3.7095,2.4053,5.8159,2.4053ZM3.5438,20.3707L22.0687,1.8453c.2695-.2695.6279-.418,1.0093-.418.3809,0,.7397.1484,1.0093.418l8.1997,8.2002c.2695.2695.418.6279.418,1.0088,0,.3818-.1484.7402-.418,1.0098L13.762,30.5885c-2.8169,2.8154-7.4014,2.8174-10.2183,0-1.3647-1.3643-2.1162-3.1787-2.1162-5.1084,0-1.9307.7515-3.7451,2.1162-5.1094Z"></path>
  <path d="M8.7137,21.274c.0962.0967.2241.1465.3535.1465.0874,0,.1758-.0225.2549-.0703.7236-.4287,1.6045-.4609,2.3584-.0869.1919.0967.4243.0566.5757-.0947l1.7251-1.7256c.105-.1045.1577-.251.1445-.3984-.0137-.1475-.0918-.2822-.2139-.3662-2.0693-1.4316-4.8213-1.377-6.8481.1377-.1162.0869-.189.2197-.1992.3643-.0107.1445.0425.2871.145.3896l1.7041,1.7041ZM12.8231,19.1871l-1.0342,1.0342c-.856-.3193-1.7964-.2852-2.6265.0869l-1.0127-1.0127c1.4424-.8311,3.2056-.8721,4.6733-.1084Z"></path>
  <path d="M6.0872,27.0826c.0151.001.0303.002.0454.002.1318,0,.2593-.0527.3535-.1465l1.7251-1.7256c.1519-.1514.1899-.3828.0947-.5752-.312-.6299-.3423-1.3623-.0825-2.0107.0742-.1855.0308-.3975-.1108-.5391l-1.7539-1.7539c-.1079-.1084-.2593-.1592-.4106-.1436-.1514.0176-.2866.1035-.3672.2324-1.2402,1.9902-1.1851,4.5195.1396,6.4453.0845.123.2188.2012.3667.2148ZM6.1268,21.5162l1.0581,1.0576c-.2065.7119-.1782,1.4746.0801,2.1709l-1.0337,1.0342c-.6865-1.3271-.7246-2.9004-.1045-4.2627Z"></path>
  <path d="M12.0442,26.0191c-.1421-.1416-.3525-.1855-.5396-.1104-.647.2578-1.3804.2275-2.0107-.083-.1924-.0957-.4233-.0566-.5752.0947l-1.7256,1.7246c-.105.1045-.1577.251-.1445.3994.0137.1475.0923.2822.2144.3662,1,.6875,2.1621,1.0332,3.3271,1.0332,1.0796,0,2.1616-.2969,3.1187-.8936.1294-.0801.2148-.2158.2319-.3672.0176-.1514-.0352-.3027-.1431-.4102l-1.7534-1.7539ZM8.3524,27.9l1.0342-1.0332c.6978.2588,1.4604.2871,2.1709.0801l1.0581,1.0576c-1.3628.6221-2.9365.583-4.2632-.1045Z"></path>
  <path d="M15.0872,20.0055c-.1479-.0068-.2935.04-.3984.1445l-1.7256,1.7256c-.1519.1514-.1899.3838-.0942.5762.374.7529.3408,1.6348-.0879,2.3574-.1167.1963-.0854.4463.0762.6084l1.7041,1.7051c.0938.0938.2212.1465.3535.1465.0117,0,.0239,0,.0356-.001.145-.0107.2778-.084.3647-.2002,1.5142-2.0264,1.5698-4.7793.1382-6.8486-.0845-.1221-.2183-.2002-.3662-.2139ZM14.8358,25.982l-1.0127-1.0127c.374-.8311.4058-1.7715.0869-2.627l1.0347-1.0342c.7642,1.4678.7236,3.2314-.1089,4.6738Z"></path>
  <path d="M23.0828,8.3658c.5444,0,1.0884-.208,1.5029-.6221.4019-.4014.623-.9355.623-1.5029s-.2212-1.1016-.623-1.5029c-.8291-.8281-2.1768-.8281-3.0059,0-.4014.4014-.6226.9355-.6226,1.5029s.2212,1.1016.6226,1.5029c.4146.4141.9585.6221,1.5029.6221ZM22.2869,5.4449c.2192-.2197.5078-.3291.7959-.3291s.5767.1094.7959.3291c.2129.2129.3301.4951.3301.7959s-.1172.583-.3301.7959c-.4385.4395-1.1533.4395-1.5918,0-.2124-.2129-.3296-.4951-.3296-.7959s.1172-.583.3296-.7959Z"></path>
  <path d="M18.4232,12.318c.3091.3086.7197.4795,1.1562.4795.437,0,.8481-.1709,1.1567-.4795.3091-.3086.4795-.7197.4795-1.1562s-.1704-.8477-.4795-1.1572l-1.0752-1.0752c-.6387-.6387-1.6758-.6367-2.3135,0-.3091.3086-.479.7197-.479,1.1562,0,.4375.1699.8486.479,1.1572l1.0757,1.0752ZM18.0545,9.6363c.124-.124.2866-.1855.4497-.1855.1626,0,.3257.0615.4497.1855l1.0752,1.0752c.1201.1201.1865.2803.1865.4502s-.0664.3291-.1865.4492c-.2397.2393-.6582.2412-.8989,0l-1.0757-1.0752c-.248-.248-.248-.6514,0-.8994Z"></path>
  <path d="M24.1273,13.3961c-.6172-.6182-1.6958-.6162-2.313,0-.3091.3086-.4795.7197-.4795,1.1562s.1704.8477.4795,1.1572l1.0752,1.0752c.3188.3184.7378.4775,1.1567.4775s.8379-.1592,1.1567-.4775c.3091-.3086.479-.7197.479-1.1562,0-.4375-.1699-.8486-.479-1.1572l-1.0757-1.0752ZM24.4959,16.0777c-.248.248-.6514.248-.8994,0l-1.0752-1.0752c-.1201-.1201-.1865-.2803-.1865-.4502s.0664-.3291.1865-.4492c.2397-.2402.6582-.2402.8989,0l1.0757,1.0752c.248.248.248.6514,0,.8994Z"></path>
  <path d="M14.9881,15.7525c.3091.3096.7197.4795,1.1567.4795s.8477-.1699,1.1567-.4795c.6377-.6377.6377-1.6748,0-2.3125l-1.0757-1.0762c-.6172-.6172-1.6958-.6172-2.313,0-.3091.3096-.4795.7207-.4795,1.1572s.1704.8477.4795,1.1562l1.0752,1.0752ZM14.6199,13.0709c.124-.124.2866-.1855.4497-.1855.1626,0,.3252.0615.4492.1855l1.0757,1.0762c.2476.248.2476.6504,0,.8984-.2412.2402-.6582.2402-.8994,0l-1.0752-1.0752c-.1201-.1201-.1865-.2793-.1865-.4492s.0664-.3301.1865-.4502Z"></path>
  <path d="M20.6927,16.8307c-.6387-.6387-1.6758-.6367-2.3135,0-.3091.3086-.479.7197-.479,1.1562,0,.4375.1699.8486.479,1.1572l1.0757,1.0752c.3091.3086.7197.4795,1.1562.4795.437,0,.8481-.1709,1.1567-.4795.3091-.3086.4795-.7197.4795-1.1562s-.1704-.8477-.4795-1.1572l-1.0752-1.0752ZM21.0609,19.5123c-.2397.2402-.6582.2402-.8989,0l-1.0757-1.0752c-.1201-.1201-.186-.2793-.186-.4502,0-.1699.0659-.3291.186-.4492.124-.124.2866-.1855.4497-.1855.1626,0,.3257.0615.4497.1855l1.0752,1.0752c.1201.1201.1865.2803.1865.4502s-.0664.3291-.1865.4492Z"></path>
</svg>