<svg viewBox="0 0 34.1321 34.1321" xmlns="http://www.w3.org/2000/svg" data-name="Layer 2" id="Layer_2">
  <path d="M30.7542,1.172c0-.2764-.2236-.5-.5-.5H3.8777c-.2764,0-.5.2236-.5.5v14.3867c0,.2764.2236.5.5.5h6.6655v5.7959l-2.3867-2.1436c-.8237-.7832-2.1309-.749-2.9624.126-.7822.8242-.748,2.1309.0762,2.9131l6.0933,5.7861v4.4922c0,.2764.2236.5.5.5.1466,0,.2753-.0654.3667-.1658.0809-.0888.1333-.2045.1333-.3342v-4.707c0-.1367-.0562-.2686-.1558-.3623l-6.249-5.9336c-.4243-.4033-.4419-1.0762.0088-1.5508.4033-.4238,1.0762-.4404,1.5107-.0293l3.231,2.9023c.0193.0175.0433.0243.0643.0382.0296.0195.0583.0411.0904.0536.0377.0146.0794.0194.121.0244.02.0024.0376.0117.0583.0117.0037,0,.0067-.002.0104-.0021.0455-.001.0873-.0136.129-.026.0205-.006.0421-.0069.0619-.0156.0284-.0125.0508-.0339.076-.0512.0289-.0198.0593-.0366.0842-.0632.0031-.0033.0074-.0045.0105-.0079.0167-.0186.023-.0416.0364-.0618.0204-.0308.0427-.0607.0556-.0942s.0163-.0709.0217-.1075c.0035-.024.0142-.0455.0142-.0705v-11.3213c0-.585.4761-1.0615,1.1313-1.0615.585,0,1.061.4766,1.061,1.0615v8.1865c0,.2764.2236.5.5.5.0002,0,.0003-.0001.0005-.0001s.0003.0001.0005.0001c.2764,0,.5-.2236.5-.5v-9.915c0-.585.4761-1.0605,1.1309-1.0605.5854,0,1.0615.4756,1.0615,1.0605v9.915c0,.2764.2236.5.5.5,0,0,.0002,0,.0002,0s.0002,0,.0002,0c.2764,0,.5-.2236.5-.5v-9.0293c0-.585.4761-1.0615,1.1313-1.0615.585,0,1.061.4766,1.061,1.0615v9.2637c0,.2764.2236.5.5.5.0002,0,.0003-.0001.0005-.0001s.0003.0001.0005.0001c.2764,0,.5-.2236.5-.5v-8.0811c0-.585.4761-1.0615,1.1309-1.0615.5854,0,1.0615.4766,1.0615,1.0615v11.0742c0,1.5938-.4741,3.1318-1.3716,4.4492l-1.0405,1.5293c-.0562.083-.0864.1807-.0864.2812v3.7002c0,.1298.0524.2454.1333.3342.0914.1004.2201.1658.3667.1658.2764,0,.5-.2236.5-.5v-3.5459l.9536-1.4023c1.0107-1.4834,1.5449-3.2168,1.5449-5.0117v-7.0098h5.939c.2764,0,.5-.2236.5-.5V1.172ZM29.7542,15.0588h-5.439v-3.0645c0-1.1367-.9248-2.0615-2.1313-2.0615-.4218,0-.8138.1284-1.1409.3468-.2379-.878-1.0424-1.5294-2.052-1.5294-.4561,0-.874.1537-1.2158.4053-.3093-.7548-1.0607-1.2901-1.9776-1.2901-1.1302,0-2.0496.9155-2.0593,2.043-.326-.1967-.7107-.3155-1.1336-.3155-1.1367,0-2.0615.9248-2.0615,2.0615v3.4043h-6.1655V1.672h25.3765v13.3867Z"></path>
  <path d="M22.1224,6.1916h.7241v.9648c0,.2764.2236.5.5.5s.5-.2236.5-.5v-.9648h.7241c.2764,0,.5-.2236.5-.5s-.2236-.5-.5-.5h-.7241v-.9658c0-.2764-.2236-.5-.5-.5s-.5.2236-.5.5v.9658h-.7241c-.2764,0-.5.2236-.5.5s.2236.5.5.5Z"></path>
  <path d="M4.6741,29.4884c.2764,0,.5-.2236.5-.5v-.9648h.7241c.2764,0,.5-.2236.5-.5s-.2236-.5-.5-.5h-.7241v-.9658c0-.2764-.2236-.5-.5-.5s-.5.2236-.5.5v.9658h-.7241c-.2764,0-.5.2236-.5.5s.2236.5.5.5h.7241v.9648c0,.2764.2236.5.5.5Z"></path>
  <path d="M28.4471,26.5578c.2764,0,.5-.2236.5-.5v-1.6631h1.3071c.2764,0,.5-.2236.5-.5s-.2236-.5-.5-.5h-1.3071v-1.6641c0-.2764-.2236-.5-.5-.5s-.5.2236-.5.5v1.6641h-1.3076c-.2764,0-.5.2236-.5.5s.2236.5.5.5h1.3076v1.6631c0,.2764.2236.5.5.5Z"></path>
</svg>