<svg viewBox="0 0 34.1321 34.1321" xmlns="http://www.w3.org/2000/svg" data-name="Layer 2" id="Layer_2">
  <path d="M33.075,1.0833H1.0569c-.2764,0-.5.2236-.5.5v28.6523c0,.2764.2236.5.5.5h1.7281l10.0175,2.3008c.0371.0088.0747.0127.1118.0127.1118,0,.2222-.0381.3115-.1084.1191-.0957.1885-.2393.1885-.3916v-1.8135h7.3032v1.8135c0,.1523.0693.2959.1885.3916.0894.0703.1997.1084.3115.1084.0371,0,.0747-.0039.1118-.0127l10.0175-2.3008h1.7281c.2764,0,.5-.2236.5-.5V1.5833c0-.2764-.2236-.5-.5-.5ZM12.4143,30.7356v1.1855l-5.1614-1.1855-3.9114-.8984V3.7893l9.0728,2.084v24.8623ZM13.4143,29.7356V5.4749c0-.2334-.1611-.4355-.3882-.4873l-5.7741-1.3262h19.6278l-5.7741,1.3262c-.2271.0518-.3882.2539-.3882.4873v24.2607h-7.3032ZM21.7176,31.9212V5.8733l9.0728-2.084v26.0479l-3.9114.8984-5.1614,1.1855ZM32.575,29.7356h-.7847V3.1614c0-.0724-.0179-.1422-.0471-.2064-.0084-.0184-.0229-.0324-.0334-.0495-.0255-.0419-.0543-.0817-.0916-.115-.0067-.006-.0093-.015-.0164-.0207-.0146-.0115-.0336-.0139-.0492-.0236-.0366-.0228-.0744-.0422-.115-.0551-.0277-.0087-.0566-.0137-.0862-.0174-.0209-.0027-.0394-.0123-.0611-.0123H2.8416c-.0207,0-.0383.0093-.0583.0118-.0314.0038-.0621.009-.0914.0184-.0405.0129-.0762.0317-.1115.054-.016.01-.0353.0125-.0503.0243-.0071.0057-.0097.0147-.0164.0207-.0372.0333-.066.0731-.0916.115-.0106.0173-.025.0311-.0334.0495-.0289.0633-.0471.1323-.0471.2064v26.5742h-.7847V2.0833h31.0181v27.6523Z"></path>
  <path d="M30.2508,5.5237c-.0007-.0032-.0031-.0053-.0038-.0084-.0189-.1249-.0737-.2425-.1749-.3217-.1211-.0938-.2793-.1299-.4272-.0918l-3.3449.8168-3.3909.7789c-.2286.0523-.3751.2554-.3787.4802-.0022.019-.0095.0364-.0095.0559v22.8125c0,.019.0103.0356.0125.0543.0006.0028-.0004.0054.0002.0082.0007.0032.0029.0056.0037.0088.0187.1252.0736.243.175.3223.0889.0693.1978.1064.3086.1064.0396,0,.0796-.0049.1187-.0146l3.2574-.7959.0879-.0215,3.3905-.7783c.2289-.0524.3754-.2559.3787-.4811.0022-.019.0095-.0364.0095-.056V5.5872c0-.019-.0103-.0355-.0125-.0541-.0007-.0032.0005-.0062-.0002-.0093ZM29.2635,22.3472l-2.3711.5443v-4.6768l2.3711-.5446v4.6771ZM23.5208,13.2861l2.3716-.5447v4.6771l-2.3716.5447v-4.6771ZM23.5208,18.9892l2.3716-.5447v4.6766l-2.3716.5444v-4.6763ZM29.2635,16.6441l-2.3711.5447v-4.6772l2.3711-.5446v4.6771ZM25.8924,11.7153l-2.3716.5447v-4.6339l2.3716-.5792v4.6683ZM23.5208,24.6914l2.3716-.5444v4.6772l-2.3716.5444v-4.6772ZM26.8924,23.9174l2.3711-.5443v4.633l-2.3711.5794v-4.6681ZM29.2635,10.941l-2.3711.5447v-4.6772l2.3711-.5446v4.6771Z"></path>
  <path d="M11.2229,6.6975l-3.3907-.7789-3.3447-.8168c-.1479-.0381-.3071-.002-.4272.0918-.1012.0792-.156.1967-.1749.3217-.0008.0031-.0031.0052-.0038.0084-.0007.0032.0004.0062-.0002.0093-.0021.0186-.0125.0352-.0125.0541v22.8115c0,.0195.0073.037.0095.056.0032.2252.1497.4288.3787.4811l3.3903.7783.0879.0215,3.2572.7959c.0391.0098.0791.0146.1187.0146.1108,0,.2197-.0371.3086-.1064.1014-.0793.1562-.197.175-.3223.0008-.0032.003-.0056.0037-.0088.0007-.0028-.0004-.0054.0002-.0082.0021-.0187.0125-.0352.0125-.0543V7.2337c0-.0195-.0073-.0369-.0095-.0559-.0036-.2249-.15-.4279-.3787-.4802ZM8.24,7.0472l2.3711.579v4.6339l-2.3711-.5447v-4.6682ZM4.8689,17.6701l2.3711.5447v4.6768l-2.3711-.5444v-4.6771ZM8.24,18.4445l2.3711.5447v4.6763l-2.3711-.5444v-4.6766ZM10.6111,13.2861v4.6771l-2.3711-.5447v-4.6771l2.3711.5447ZM7.24,17.1888l-2.3711-.5447v-4.6771l2.3711.5447v4.6771ZM4.8689,23.3731l2.3711.5444v4.6681l-2.3711-.5795v-4.633ZM8.24,28.8242v-4.6772l2.3711.5444v4.6772l-2.3711-.5444ZM7.24,6.8085v4.6771l-2.3711-.5447v-4.6771l2.3711.5447Z"></path>
</svg>