<svg viewBox="0 0 34.1321 34.1321" xmlns="http://www.w3.org/2000/svg" data-name="Layer 2" id="Layer_2">
  <path d="M33.7313,17.0241l-3.3975-2.9785c-.0913-.0801-.2085-.124-.3296-.124h-10.1632l9.3961-9.3965c.1953-.1953.1953-.5117,0-.707s-.5117-.1953-.707,0l-10.1031,10.1035h-6.0516v-1.9082c0-.1816-.0981-.3486-.2563-.4365l-3.3682-1.8779c-.0747-.042-.1582-.0635-.2437-.0635h-2.6392v-1.6113c0-.2471-.1807-.458-.4253-.4941l-4.6372-.6992c-.2725-.0439-.5278.1465-.5693.4199-.041.2725.147.5273.4199.5684l4.2119.6357v17.2295l-4.2119.6357c-.2729.041-.4609.2959-.4199.5684.0376.248.251.4258.4941.4258.0244,0,.0498-.002.0752-.0059l4.6372-.6992c.2446-.0361.4253-.2471.4253-.4941v-.9561h1.3221l-4.4481,4.4482c-.1953.1953-.1953.5117,0,.707.0977.0977.2256.1465.3535.1465s.2559-.0488.3535-.1465l9.4362-9.4365h17.119c.1211,0,.2383-.0439.3296-.124l3.3975-2.9775c.1084-.0947.1704-.2314.1704-.376,0-.1436-.062-.2812-.1704-.376ZM12.3865,14.9216h5.0405l-4.9559,4.9561h-.0846v-4.9561ZM5.887,24.1589v-13.5234h2.4902l2.998,1.6719v8.665l-3.1855,3.1865h-2.3027ZM18.841,14.9216h4.6618l-4.9556,4.9561h-4.662l4.9558-4.9561ZM24.9168,14.9216h4.8994l.0169.0149-4.9417,4.9412h-4.9302l4.9556-4.9561ZM29.8162,19.8776h-3.5107l4.2811-4.2806,2.0568,1.8031-2.8271,2.4775Z"></path>
</svg>