<svg viewBox="0 0 34.1321 34.1321" xmlns="http://www.w3.org/2000/svg" data-name="Layer 2" id="Layer_2">
  <path d="M19.3117,12.9481L29.0701,1.9859c.1309-.1465.1631-.3574.0825-.5371s-.2593-.2949-.4561-.2949H11.2473c-.1426,0-.2788.0615-.3735.168L.8582,12.5846c-.014.0156-.0141.0378-.0258.0549-.0132.0188-.0353.0288-.046.0496-.0134.0262-.0082.0558-.0166.0833-.0126.041-.0228.0815-.0247.1238-.002.0491.0071.0972.0197.1455.007.0266-.0006.0544.0109.0801.0071.0159.0239.0231.0325.0378.0092.0161.0077.0358.0187.051l1.6638,2.2888c.0021.0029.0015.0071.0037.01l12.5522,17.2627c.0938.1299.2441.2061.4043.2061h17.4497c.188,0,.3604-.1055.4458-.2734.085-.167.0693-.3682-.0415-.5205l-13.9932-19.2361ZM27.5823,2.1539l-9.1357,10.2627H2.3455L11.472,2.1539h16.1104ZM17.9636,13.4166l-.4592,1.2988H3.1559l-.9442-1.2988h15.7519ZM3.883,15.7154h13.7252l11.8252,16.2627h-13.7275L3.883,15.7154ZM30.6698,31.9781l-12.2513-16.8488.4068-1.1505,13.0934,17.9993h-1.249Z"></path>
  <path d="M9.2078,10.5445c.0854.1807.2651.2871.4531.2871.0713,0,.1436-.0156.2124-.0479l12.0078-5.6436c.2495-.1172.3569-.415.2397-.665-.1182-.249-.4155-.3574-.6655-.2393l-12.0078,5.6436c-.2495.1172-.3569.415-.2397.665Z"></path>
  <path d="M12.9886,7.1832c.0713,0,.1436-.0156.2119-.0479l3.1094-1.4609c.25-.1172.3574-.415.2402-.665-.1182-.25-.4175-.3574-.665-.2393l-3.1094,1.4609c-.25.1172-.3574.415-.2402.665.0854.1807.2651.2871.4531.2871Z"></path>
</svg>