<svg viewBox="0 0 34.1321 34.1321" xmlns="http://www.w3.org/2000/svg" data-name="Layer 2" id="Layer_2">
  <path d="M33.033.672H1.0994c-.2764,0-.5.2236-.5.5v1.9785c0,.2764.2236.5.5.5h1.0132v29.3096c0,.2764.2236.5.5.5h27.4761c.2764,0,.5-.2236.5-.5V3.6506h2.4443c.2764,0,.5-.2236.5-.5v-1.9785c0-.2764-.2236-.5-.5-.5ZM3.1126,3.6506h10.9072v28.8096H3.1126V3.6506ZM16.4505,32.4601h-1.4307V3.6506h2.1138v28.8096h-.6831ZM18.1336,32.4601V3.6506h2.1138v28.8096h-2.1138ZM21.2473,32.4601V3.6506h2.1138v28.8096h-2.1138ZM24.3611,32.4601V3.6506h2.1138v28.8096h-2.1138ZM29.5887,32.4601h-2.1138V3.6506h2.1138v28.8096ZM32.533,2.6506H1.5994v-.9785h30.9336v.9785Z"></path>
  <path d="M16.0852,16.59c-.2764,0-.5.2236-.5.5v1.1328c0,.2764.2236.5.5.5.1457,0,.2739-.0643.3652-.1636.082-.0891.1348-.2057.1348-.3364v-1.1328c0-.1307-.0528-.2474-.1348-.3364-.0913-.0992-.2195-.1636-.3652-.1636Z"></path>
  <path d="M12.6082,17.1574h-3.2874l.905-.7979c.207-.1826.2271-.498.0444-.7061-.1821-.2061-.499-.2256-.7056-.0439l-1.8965,1.6719c-.0598.0527-.0992.1177-.1274.1867-.0021.0051-.0079.0073-.0098.0125-.004.0106.0013.0216-.0019.0323-.0233.0768-.0273.1556-.0136.232.0028.0153.0017.0308.0059.0458.0196.0703.0508.1381.1024.1967.0088.0099.0214.0134.0308.0225.0065.0063.0068.0164.0136.0224l1.8965,1.6719c.0952.084.2129.125.3306.125.1382,0,.2764-.0576.375-.1689.1826-.208.1626-.5234-.0444-.7061l-.9038-.7969h3.2861c.2764,0,.5-.2236.5-.5s-.2236-.5-.5-.5Z"></path>
</svg>