<svg height="1024" width="1024" xmlns="http://www.w3.org/2000/svg" version="1.1">
<path transform="translate(0,0)" fill="#FEFEFE" d="M0 0 C337.92 0 675.84 0 1024 0 C1024 337.92 1024 675.84 1024 1024 C686.08 1024 348.16 1024 0 1024 C0 686.08 0 348.16 0 0 Z"></path>
<path transform="translate(814,311)" fill="#000000" d="M0 0 C0.38052601 2.00223365 0.76102395 4.00447263 1.14151001 6.00671387 C1.35340281 7.12171013 1.5652956 8.23670639 1.78360939 9.38549042 C2.22707883 11.72098543 2.66927744 14.05672181 3.11083984 16.39257812 C4.46543748 23.48535375 4.46543748 23.48535375 6.15234375 30.50390625 C6.91099693 33.63291361 7.24244143 36.23591312 7.1875 39.4375 C7.18105469 40.28183594 7.17460938 41.12617188 7.16796875 41.99609375 C7 44 7 44 6 45 C4.61839885 45.0927833 3.23211962 45.11747043 1.84741211 45.11352539 C0.96657455 45.11344986 0.085737 45.11337433 -0.8217926 45.11329651 C-1.77907761 45.10813522 -2.73636261 45.10297394 -3.72265625 45.09765625 C-4.69786728 45.0962413 -5.67307831 45.09482635 -6.67784119 45.09336853 C-9.80609143 45.08775133 -12.93427123 45.07519593 -16.0625 45.0625 C-18.17773334 45.05748722 -20.29296781 45.05292393 -22.40820312 45.04882812 C-27.60551801 45.03862531 -32.80267975 45.01905331 -38 45 C-38 52.59 -38 60.18 -38 68 C-25.79 68 -13.58 68 -1 68 C0.7015625 75.981875 0.7015625 75.981875 2.4375 84.125 C2.79384521 85.79320801 3.15019043 87.46141602 3.51733398 89.18017578 C3.80202516 90.51853245 4.0866182 91.85690999 4.37109375 93.1953125 C4.51712036 93.877146 4.66314697 94.55897949 4.81359863 95.26147461 C6.27267171 102.13836544 7 107.87354693 7 115 C-7.85 115 -22.7 115 -38 115 C-38 122.59 -38 130.18 -38 138 C-36.16695312 137.98839844 -34.33390625 137.97679687 -32.4453125 137.96484375 C-30.00520936 137.95545874 -27.56510511 137.9463593 -25.125 137.9375 C-23.92101562 137.92912109 -22.71703125 137.92074219 -21.4765625 137.91210938 C-14.58280854 137.89337635 -7.84079737 138.12391174 -1 139 C1.9296875 150.71875 1.9296875 150.71875 2.46435547 152.8828125 C2.9689135 154.87712755 3.51441078 156.86095664 4.0625 158.84375 C5.30956622 163.83201488 5.694861 168.88769219 6.125 174 C6.21136719 174.96550781 6.29773438 175.93101562 6.38671875 176.92578125 C6.59680508 179.28341676 6.80110492 181.64139857 7 184 C4.15686669 184.80974903 1.64297035 185.12241859 -1.30957031 185.11352539 C-2.15013977 185.11344986 -2.99070923 185.11337433 -3.85675049 185.11329651 C-5.20383087 185.10555458 -5.20383087 185.10555458 -6.578125 185.09765625 C-7.5046991 185.0962413 -8.43127319 185.09482635 -9.38592529 185.09336853 C-12.34064992 185.08777824 -15.29529833 185.0752275 -18.25 185.0625 C-20.25520724 185.05748375 -22.26041567 185.05292106 -24.265625 185.04882812 C-29.17713621 185.03866357 -34.08848294 185.01908621 -39 185 C-39 192.26 -39 199.52 -39 207 C-36.36 206.67 -33.72 206.34 -31 206 C-29.30603598 205.91918984 -27.60995118 205.86962964 -25.9140625 205.8671875 C-25.04652344 205.86589844 -24.17898438 205.86460937 -23.28515625 205.86328125 C-22.40730469 205.86714844 -21.52945313 205.87101563 -20.625 205.875 C-19.27341797 205.86919922 -19.27341797 205.86919922 -17.89453125 205.86328125 C-17.03472656 205.86457031 -16.17492187 205.86585938 -15.2890625 205.8671875 C-14.51256348 205.86831543 -13.73606445 205.86944336 -12.93603516 205.87060547 C-11 206 -11 206 -9 207 C-7.46331135 207.22467831 -5.92031946 207.40796805 -4.375 207.5625 C-3.55773437 207.64628906 -2.74046875 207.73007812 -1.8984375 207.81640625 C-1.27195312 207.87699219 -0.64546875 207.93757812 0 208 C2.09567063 218.09538796 4.11604082 228.19324696 5.75 238.375 C5.94106323 239.54059448 5.94106323 239.54059448 6.13598633 240.72973633 C6.25095459 241.46603271 6.36592285 242.2023291 6.484375 242.9609375 C6.63471191 243.91685791 6.63471191 243.91685791 6.78808594 244.89208984 C7.05851912 247.58209 7 250.29644032 7 253 C-7.85 253 -22.7 253 -38 253 C-38 260.59 -38 268.18 -38 276 C-35.67582031 275.97679687 -33.35164062 275.95359375 -30.95703125 275.9296875 C-28.69653875 275.91407298 -26.43605235 275.90193851 -24.17553711 275.89013672 C-22.60910333 275.88010274 -21.04268817 275.86647246 -19.47631836 275.84912109 C-17.21984247 275.82475775 -14.96361506 275.81349084 -12.70703125 275.8046875 C-12.01100296 275.79436493 -11.31497467 275.78404236 -10.59785461 275.77340698 C-6.65645508 275.77250529 -3.35972822 275.83333075 0 278 C1.06762695 280.68212891 1.06762695 280.68212891 1.67578125 284.1015625 C1.90475098 285.36258789 2.1337207 286.62361328 2.36962891 287.92285156 C2.58494315 289.28108837 2.79500241 290.64016786 3 292 C3.100849 292.66849976 3.201698 293.33699951 3.30560303 294.02575684 C4.00584041 298.80024634 4.60431232 303.58473316 5.1875 308.375 C5.785625 313.20125 6.38375 318.0275 7 323 C-7.85 323 -22.7 323 -38 323 C-38 330.59 -38 338.18 -38 346 C-35.50824219 345.97679687 -33.01648438 345.95359375 -30.44921875 345.9296875 C-28.03654489 345.91409107 -25.62387665 345.90194629 -23.21118164 345.89013672 C-21.53407275 345.88007763 -19.85698139 345.86642878 -18.17993164 345.84912109 C-15.76964998 345.82486848 -13.35960014 345.8135161 -10.94921875 345.8046875 C-10.19912033 345.79436493 -9.44902191 345.78404236 -8.67619324 345.77340698 C-4.89699221 345.772592 -3.22585601 345.84942933 0 348 C0.6886426 350.55953987 1.1923523 352.96452867 1.60546875 355.5703125 C1.79886589 356.70289993 1.79886589 356.70289993 1.99617004 357.85836792 C2.26683348 359.45956885 2.53120977 361.06184325 2.78979492 362.66503906 C3.18299328 365.09712418 3.59656081 367.52503974 4.01367188 369.953125 C4.2746629 371.51281628 4.53446559 373.07270696 4.79296875 374.6328125 C4.91480026 375.35083038 5.03663177 376.06884827 5.16215515 376.80862427 C5.92408394 381.59418877 6.10514519 386.15379349 6 391 C3.21945349 391.78670772 0.76039307 392.12265947 -2.12597656 392.11352539 C-2.92650452 392.11344986 -3.72703247 392.11337433 -4.55181885 392.11329651 C-5.40612488 392.10813522 -6.26043091 392.10297394 -7.140625 392.09765625 C-8.02280701 392.0962413 -8.90498901 392.09482635 -9.81390381 392.09336853 C-12.62597065 392.08778001 -15.4379573 392.07522961 -18.25 392.0625 C-20.15885302 392.05748352 -22.06770728 392.05292087 -23.9765625 392.04882812 C-28.65109728 392.03866609 -33.32545907 392.01908842 -38 392 C-38 399.26 -38 406.52 -38 414 C-35.75960937 413.97679687 -33.51921875 413.95359375 -31.2109375 413.9296875 C-29.0265357 413.91406298 -26.84214027 413.90193422 -24.65771484 413.89013672 C-23.14661851 413.88011661 -21.63554138 413.86649679 -20.12451172 413.84912109 C-17.94493858 413.82469608 -15.76562316 413.81347693 -13.5859375 413.8046875 C-12.2767334 413.79421387 -10.9675293 413.78374023 -9.61865234 413.77294922 C-5.91834844 414.00512319 -3.29326002 414.2786684 0 416 C1.21606445 418.77807617 1.21606445 418.77807617 1.86328125 422.29296875 C2.11013672 423.56333984 2.35699219 424.83371094 2.61132812 426.14257812 C2.84553874 427.49080097 3.07925869 428.83910913 3.3125 430.1875 C3.56332095 431.51673768 3.81655176 432.84552304 4.07226562 434.17382812 C4.75086832 437.77788156 5.39888956 441.38224864 6 445 C6.28460083 446.70023315 6.28460083 446.70023315 6.57495117 448.43481445 C7 452 7 452 7 460 C-7.85 460 -22.7 460 -38 460 C-38 484.09 -38 508.18 -38 533 C-36.02 533.66 -34.04 534.32 -32 535 C-25.04210345 539.58082157 -21.58133564 545.25599307 -19 553 C-18.22311313 562.24794181 -19.32331647 569.01811425 -25.25 576.25 C-30.39003404 581.78124171 -35.8243325 584.70654871 -43.390625 585.23828125 C-50.76470898 585.38009056 -56.82517667 585.49078061 -63 581 C-64.051875 580.278125 -65.10375 579.55625 -66.1875 578.8125 C-71.49004886 573.50995114 -75.10715646 566.8951115 -75.25 559.3125 C-75.1621724 551.77030458 -72.62585039 545.94752193 -68 540 C-64.16548205 536.26883833 -60.5018346 533 -55 533 C-55 508.91 -55 484.82 -55 460 C-237.16 460 -419.32 460 -607 460 C-609.11295211 455.77409579 -609.17401405 455.05004171 -608.42578125 450.66796875 C-608.25409424 449.62833984 -608.08240723 448.58871094 -607.90551758 447.51757812 C-607.61197388 445.86918945 -607.61197388 445.86918945 -607.3125 444.1875 C-607.12260498 443.06923828 -606.93270996 441.95097656 -606.73706055 440.79882812 C-606.17535689 437.52918867 -605.59318496 434.26406201 -605 431 C-604.84273437 430.13455566 -604.68546875 429.26911133 -604.5234375 428.37744141 C-602.29138514 416.29138514 -602.29138514 416.29138514 -601 415 C-598.22304044 414.75254816 -595.47070519 414.57084195 -592.6875 414.4375 C-591.85114014 414.3950415 -591.01478027 414.35258301 -590.15307617 414.30883789 C-580.76494228 413.87564668 -571.39677779 413.93335619 -562 414 C-562 406.74 -562 399.48 -562 392 C-564.97386719 392.02320313 -567.94773437 392.04640625 -571.01171875 392.0703125 C-573.89770074 392.08591807 -576.783678 392.09805767 -579.66967773 392.10986328 C-581.67262889 392.11990963 -583.67556542 392.13354909 -585.6784668 392.15087891 C-588.56042088 392.17518713 -591.44218072 392.18649687 -594.32421875 392.1953125 C-595.21711105 392.20563507 -596.11000336 392.21595764 -597.029953 392.22659302 C-601.4717257 392.22739134 -604.96349427 392.10378748 -609 390 C-608.49320188 380.98457282 -607.32075067 372.29026652 -605.5625 363.4375 C-605.34529297 362.28958984 -605.12808594 361.14167969 -604.90429688 359.95898438 C-602.97251424 350.04482064 -602.97251424 350.04482064 -601 347 C-598.28515625 346.42578125 -598.28515625 346.42578125 -595.0625 346.3125 C-591.7259124 346.17060381 -589.17832803 346.05944268 -586 345 C-584.15389468 344.91760831 -582.30494836 344.89256641 -580.45703125 344.90234375 C-579.38388672 344.90556641 -578.31074219 344.90878906 -577.20507812 344.91210938 C-576.08552734 344.92048828 -574.96597656 344.92886719 -573.8125 344.9375 C-572.11577148 344.94426758 -572.11577148 344.94426758 -570.38476562 344.95117188 C-567.58982124 344.96296489 -564.79490401 344.98090043 -562 345 C-562 338.07 -562 331.14 -562 324 C-564.73410156 324.03480469 -567.46820312 324.06960938 -570.28515625 324.10546875 C-572.94945228 324.12890215 -575.61373659 324.14709716 -578.27807617 324.16479492 C-580.12187892 324.17982988 -581.96564622 324.20026333 -583.80932617 324.22631836 C-586.4680255 324.26293561 -589.12624971 324.27977943 -591.78515625 324.29296875 C-592.60210464 324.30845261 -593.41905304 324.32393646 -594.26075745 324.33988953 C-599.5931209 324.34143804 -603.23476933 323.41464348 -608 321 C-606.59822946 306.16633858 -603.82789185 291.61939287 -601 277 C-587.97547255 276.03266109 -575.0621988 275.91784781 -562 276 C-562 268.74 -562 261.48 -562 254 C-564.98546875 254.02320313 -567.9709375 254.04640625 -571.046875 254.0703125 C-573.9394488 254.08591154 -576.83201791 254.09805486 -579.72460938 254.10986328 C-581.73439635 254.1199187 -583.7441687 254.13356485 -585.75390625 254.15087891 C-588.64326588 254.17514724 -591.53243202 254.18648771 -594.421875 254.1953125 C-595.31992859 254.20563507 -596.21798218 254.21595764 -597.14324951 254.22659302 C-597.98381897 254.22674408 -598.82438843 254.22689514 -599.69042969 254.22705078 C-600.79629425 254.23371262 -600.79629425 254.23371262 -601.92449951 254.24050903 C-604.30519726 253.96463374 -605.93016431 253.17901432 -608 252 C-607.22600896 237.13403413 -605.03585199 222.34015494 -601 208 C-587.64136346 207.07643994 -574.39242128 206.91523784 -561 207 C-561 199.74 -561 192.48 -561 185 C-564.14144531 185.01160156 -567.28289062 185.02320313 -570.51953125 185.03515625 C-573.55769754 185.04295209 -576.59586272 185.04902586 -579.6340332 185.05493164 C-581.74764504 185.05996444 -583.86125338 185.0667912 -585.97485352 185.07543945 C-589.01058818 185.08755104 -592.04627686 185.09323881 -595.08203125 185.09765625 C-596.5024749 185.10539818 -596.5024749 185.10539818 -597.95161438 185.11329651 C-598.83230087 185.11337204 -599.71298737 185.11344757 -600.62036133 185.11352539 C-601.78285149 185.11685631 -601.78285149 185.11685631 -602.96882629 185.12025452 C-605 185 -605 185 -608 184 C-607.12005759 172.98101968 -605.61592707 162.21725367 -603.4375 151.375 C-603.21553955 150.26648682 -602.9935791 149.15797363 -602.76489258 148.01586914 C-601.13798524 140.13798524 -601.13798524 140.13798524 -600 139 C-587.10760705 137.39093401 -573.95948295 137.90352742 -561 138 C-561 130.74 -561 123.48 -561 116 C-564.22523438 116.02320313 -567.45046875 116.04640625 -570.7734375 116.0703125 C-573.88769131 116.08589773 -577.00194082 116.0980489 -580.11621094 116.10986328 C-582.28517594 116.11993789 -584.45412731 116.13359798 -586.62304688 116.15087891 C-589.73571126 116.17506323 -592.84819651 116.18646832 -595.9609375 116.1953125 C-596.934935 116.20563507 -597.9089325 116.21595764 -598.91244507 116.22659302 C-599.81322784 116.22674408 -600.71401062 116.22689514 -601.64208984 116.22705078 C-602.83455826 116.23371262 -602.83455826 116.23371262 -604.05111694 116.24050903 C-606 116 -606 116 -608 114 C-608.61099039 106.88632617 -607.17980788 99.96028784 -605.97363281 92.96362305 C-605.62541451 90.93990899 -605.28852323 88.91454584 -604.953125 86.88867188 C-603.92178944 80.79469202 -602.77498608 74.91646315 -601 69 C-587.65158462 68.33461432 -574.36569953 67.88171947 -561 68 C-561 60.74 -561 53.48 -561 46 C-563.56652344 46.01160156 -566.13304687 46.02320313 -568.77734375 46.03515625 C-571.28946815 46.04297636 -573.80159114 46.04903628 -576.3137207 46.05493164 C-578.04679989 46.05993075 -579.77987493 46.06673224 -581.51293945 46.07543945 C-584.01775138 46.08770027 -586.52250708 46.09327266 -589.02734375 46.09765625 C-590.17166115 46.10539818 -590.17166115 46.10539818 -591.33909607 46.11329651 C-596.58160518 46.11383154 -601.82844823 45.92438147 -607 45 C-608 44 -608 44 -608.01953125 41.09765625 C-607.96026873 39.75213944 -607.89028268 38.40707332 -607.8125 37.0625 C-607.77133057 36.33554932 -607.73016113 35.60859863 -607.68774414 34.85961914 C-606.90369827 23.48804153 -604.8643871 12.23426027 -603 1 C-596.46671897 0.24598886 -590.04039838 -0.14731751 -583.46577644 -0.14145851 C-582.55640685 -0.14460033 -581.64703727 -0.14774214 -580.71011102 -0.15097916 C-577.67637201 -0.16027053 -574.64266897 -0.16260648 -571.60891724 -0.16494751 C-569.40582867 -0.17023337 -567.2027411 -0.17594652 -564.99965465 -0.18204916 C-558.95439197 -0.19754116 -552.90913298 -0.20691424 -546.86385679 -0.21526766 C-541.00878704 -0.2243093 -535.15372918 -0.23795807 -529.29866826 -0.25145121 C-516.57529377 -0.28058037 -503.85191354 -0.30407722 -491.12852343 -0.32515697 C-479.96753346 -0.34365668 -468.80654855 -0.36394362 -457.64556503 -0.38599777 C-456.90378531 -0.3874605 -456.16200558 -0.38892324 -455.39774768 -0.39043029 C-452.38578674 -0.39637001 -449.3738258 -0.40231538 -446.36186488 -0.4082709 C-418.08806914 -0.46413435 -389.81426565 -0.51417688 -361.54045478 -0.56168602 C-336.53151574 -0.60374706 -311.52259227 -0.65116418 -286.51367188 -0.703125 C-258.35336404 -0.76161717 -230.19305268 -0.81644163 -202.03272712 -0.86572587 C-199.01338377 -0.8710204 -195.99404044 -0.87632465 -192.97469711 -0.88163376 C-192.2313837 -0.88293783 -191.48807029 -0.8842419 -190.72223223 -0.8855855 C-179.60925111 -0.90514715 -168.49627764 -0.92741727 -157.3833046 -0.9510994 C-144.6852362 -0.9781473 -131.98716711 -1.00114069 -119.2890826 -1.01918437 C-112.83411336 -1.02845435 -106.37915697 -1.03941124 -99.92420006 -1.05528831 C-66.60293224 -1.135725 -33.31249045 -0.78016597 0 0 Z"></path>
<path transform="translate(308.1917419433594,209.35487365722656)" fill="#000000" d="M0 0 C1.83155324 -0.05637376 3.66310396 -0.11282939 5.49465239 -0.16935927 C10.50453688 -0.3223275 15.51457636 -0.46944378 20.52470016 -0.61434495 C22.65181352 -0.67586598 24.77891665 -0.73774152 26.90600967 -0.79996169 C68.83922852 -2.02622311 110.77597802 -2.82957745 152.72270425 -3.42168676 C159.42379533 -3.51628329 166.12482901 -3.6146281 172.82583618 -3.71498108 C173.49239576 -3.7248974 174.15895535 -3.73481372 174.84571371 -3.74503053 C196.96092489 -4.07591422 219.05600534 -4.68820782 241.16142671 -5.42692726 C263.28909519 -6.16003798 285.40806934 -6.58258465 307.54740489 -6.73444659 C319.9353114 -6.82779536 332.28852824 -7.05073508 344.66395187 -7.63238335 C389.64972316 -9.68648932 428.60047104 -10.63307553 463.58684041 20.99984052 C509.9704617 64.13173726 509.9704617 64.13173726 515.80825806 81.64512634 C310.54825806 81.64512634 105.28825806 81.64512634 -106.19174194 81.64512634 C-104.33266316 76.99742939 -102.44099532 74.36415276 -99.09408569 70.86778259 C-98.57056015 70.31123489 -98.04703461 69.75468719 -97.50764465 69.18127441 C-91.09115794 62.40550865 -84.49726097 55.80046015 -77.88925171 49.21226501 C-75.72912796 47.05757554 -73.57449941 44.89749176 -71.42025757 42.73692322 C-70.03320886 41.3505342 -68.64585057 39.96445482 -67.25814819 38.57872009 C-66.62163834 37.940186 -65.98512848 37.30165192 -65.32933044 36.64376831 C-62.08672333 33.41815255 -58.778337 30.49102837 -55.19174194 27.64512634 C-54.06647127 26.45767008 -52.97455572 25.23751009 -51.92221069 23.98497009 C-47.88963168 19.28556093 -43.7637482 14.70274919 -39.50424194 10.20762634 C-38.77785522 9.39358337 -38.05146851 8.57954041 -37.30307007 7.74082947 C-36.19028687 6.58164001 -36.19028687 6.58164001 -35.05502319 5.39903259 C-34.40831665 4.70108582 -33.76161011 4.00313904 -33.0953064 3.28404236 C-24.40986262 -1.61845357 -9.92552971 0.29546857 0 0 Z"></path>
<path transform="translate(249,796)" fill="#000000" d="M0 0 C46.89164651 -0.01710973 93.78329326 -0.03303146 140.67494202 -0.04234314 C141.36839483 -0.0424812 142.06184764 -0.04261925 142.77631418 -0.04276149 C157.84507997 -0.04575405 172.91384578 -0.04852428 187.98261165 -0.05106533 C195.37178994 -0.05231272 202.76096821 -0.05360927 210.15014648 -0.05493164 C210.88547833 -0.0550624 211.62081018 -0.05519316 212.37842481 -0.05532788 C236.23432653 -0.05959307 260.0902259 -0.06710724 283.9461262 -0.07629722 C308.45083277 -0.08572005 332.95553804 -0.09188317 357.4602464 -0.09391499 C360.91735607 -0.09420317 364.37446573 -0.0945288 367.83157539 -0.09487724 C368.51201801 -0.09494467 369.19246062 -0.09501209 369.89352271 -0.09508156 C380.86907739 -0.0962656 391.84462803 -0.1009099 402.82018107 -0.10683203 C413.84079979 -0.11270523 424.86141543 -0.11489026 435.8820359 -0.11350138 C441.85872587 -0.11285766 447.83540395 -0.11387925 453.81209183 -0.11920547 C459.27398208 -0.12403769 464.73585235 -0.12433983 470.19774348 -0.12089889 C472.18294371 -0.12047302 474.16814513 -0.12177025 476.15334295 -0.12488318 C478.83332236 -0.1288442 481.51322779 -0.12676525 484.19320583 -0.12304783 C485.37327225 -0.12698835 485.37327225 -0.12698835 486.57717839 -0.13100848 C491.8858542 -0.1141458 491.8858542 -0.1141458 493 1 C494.15876787 24.5843343 494.15876787 24.5843343 490.9626416 29.64133883 C487.8988303 31.76229737 484.68204402 31.41335129 481.0860157 31.38311005 C480.26687929 31.38806956 479.44774287 31.39302908 478.60378414 31.39813888 C475.8351586 31.41118152 473.06700852 31.40268304 470.29837036 31.39440918 C468.30293778 31.39929399 466.30750802 31.40548188 464.31208313 31.41286707 C458.81011038 31.42934182 453.3082802 31.42693339 447.80629134 31.4214921 C441.87979461 31.41883114 435.95333668 31.43333609 430.02685547 31.44558716 C418.40894176 31.46668312 406.79106681 31.47119842 395.17313804 31.46939927 C385.73340917 31.46802757 376.29369547 31.47183716 366.85396957 31.47932434 C365.49899508 31.48037466 364.14402057 31.48142228 362.78904607 31.4824672 C361.78017881 31.48324622 361.78017881 31.48324622 360.75093039 31.48404097 C360.0771382 31.48456112 359.40334602 31.48508126 358.70913589 31.48561716 C357.69678752 31.48640315 357.69678752 31.48640315 356.66398766 31.48720502 C337.67445022 31.50179417 318.68491837 31.51006823 299.69537544 31.50545502 C298.6209551 31.50519708 298.6209551 31.50519708 297.5248293 31.50493394 C293.89423173 31.50404502 290.26363418 31.50310021 286.63303663 31.50213593 C285.55141694 31.50184938 285.55141694 31.50184938 284.44794635 31.50155704 C282.9897467 31.50116995 281.53154706 31.50077963 280.07334741 31.50038607 C257.38202719 31.49441558 234.69080894 31.50985404 211.99951172 31.54199219 C186.51978922 31.57804882 161.04013139 31.59740456 135.56038177 31.59245348 C132.84480851 31.59198348 130.12923524 31.59157324 127.41366196 31.59120178 C126.74499374 31.5910994 126.07632552 31.59099701 125.38739463 31.59089152 C115.28216063 31.58969543 105.17699637 31.60168033 95.07178116 31.62034607 C83.58206683 31.64131355 72.092509 31.64499653 60.60278834 31.62604648 C54.73687138 31.61686047 48.87124658 31.61583314 43.00535202 31.63640213 C37.64003246 31.65500827 32.27524644 31.65072552 26.90994786 31.62785631 C24.96446946 31.62364423 23.01895098 31.62795724 21.07351483 31.64145225 C18.43691232 31.65850234 15.80219607 31.64500531 13.16566658 31.62361908 C12.403156 31.63589661 11.64064541 31.64817413 10.85502845 31.6608237 C6.93765871 31.59404467 5.1616695 31.12609058 2.03603256 28.68831873 C-0.54418847 25.28146922 -0.81202069 22.4415812 -0.875 18.3125 C-0.90851563 17.65572266 -0.94203125 16.99894531 -0.9765625 16.32226562 C-1.12761026 12.41390494 -0.90479631 8.6204758 -0.49658203 4.73120117 C-0.35810349 3.39722542 -0.35810349 3.39722542 -0.21682739 2.03630066 C-0.14527435 1.36432144 -0.07372131 0.69234222 0 0 Z"></path>
<path transform="translate(775,115)" fill="#000000" d="M0 0 C4.90004192 4.10105419 9.4689786 8.37430126 13.9375 12.9375 C19.37646114 18.44525731 19.37646114 18.44525731 25.125 23.625 C28.59799652 26.57517984 31.83612309 29.72308371 35.0625 32.9375 C35.54541504 33.41590332 36.02833008 33.89430664 36.52587891 34.38720703 C39.19328892 37.06541992 41.72601944 39.81753739 44.18629456 42.6875 C47.96919235 47.02428166 51.96836334 51.10243764 56.04663086 55.16015625 C56.81818512 55.93185654 57.58973938 56.70355682 58.38467407 57.49864197 C60.90903153 60.02230857 63.43690127 62.54242495 65.96484375 65.0625 C67.72625745 66.82204658 69.48744898 68.5818156 71.24842834 70.34179688 C75.86408988 74.95365638 80.48274759 79.56250375 85.10205078 84.17071533 C89.82338714 88.88124033 94.54131663 93.59517687 99.25976562 98.30859375 C108.50372401 107.54185568 117.75075555 116.77203344 127 126 C124.55638664 128.44361336 123.01679205 128.47511741 119.6875 129.25 C116.6063115 130.13958755 116.6063115 130.13958755 114 132 C112.48068407 135.29729837 112.48068407 135.29729837 111.5625 139.0625 C110.5078125 142.87109375 110.5078125 142.87109375 109 146 C105.87667641 147.28480209 103.06507566 147.60839344 99.7265625 148.04296875 C96.74570866 148.73559188 96.74570866 148.73559188 95.6484375 151.67578125 C95.09491353 153.83555938 94.56330315 156.00108241 94.0546875 158.171875 C93 161 93 161 90.8828125 162.640625 C88.59965332 163.61807973 86.40163213 164.37637177 84 165 C83.01 165.33 82.02 165.66 81 166 C79.75049948 168.55401848 79.75049948 168.55401848 78.8125 171.5625 C78.46832031 172.57441406 78.12414062 173.58632813 77.76953125 174.62890625 C77.51558594 175.41136719 77.26164063 176.19382812 77 177 C73.28731906 175.45872649 71.01884302 173.19156766 68.25 170.3125 C65.30644243 167.30895727 62.37647626 164.36711334 59.1875 161.625 C50.52591647 154.16593007 42.30858448 146.48924216 34.65893555 137.99755859 C30.23469883 133.13875358 25.49056083 128.68851603 20.65258789 124.24633789 C15.82026903 119.80095179 11.14807703 115.22492764 6.56274414 110.52539062 C3.93371668 107.85123905 1.243526 105.32242259 -1.60888672 102.88671875 C-6.3943578 98.71644696 -10.87409453 94.26980796 -15.35546875 89.77734375 C-16.2201326 88.91363663 -17.08479645 88.0499295 -17.97566223 87.16004944 C-19.79123717 85.34515118 -21.60556523 83.52900481 -23.41870117 81.71166992 C-26.186213 78.93878949 -28.95903776 76.17130257 -31.73242188 73.40429688 C-33.50292499 71.63313314 -35.27311798 69.86165934 -37.04296875 68.08984375 C-38.27904121 66.85680763 -38.27904121 66.85680763 -39.54008484 65.59886169 C-42.80127942 62.32439653 -46.01361475 59.07887937 -48.93481445 55.49438477 C-50.75492114 52.95431278 -50.75492114 52.95431278 -53 52 C-53 51.34 -53 50.68 -53 50 C-49.04 49.34 -45.08 48.68 -41 48 C-40.82726562 46.95199219 -40.65453125 45.90398437 -40.4765625 44.82421875 C-38.35887615 33.94743247 -38.35887615 33.94743247 -34.61328125 31.3359375 C-30.98708643 30.28778192 -27.76306511 30 -24 30 C-23.87882813 29.24074219 -23.75765625 28.48148438 -23.6328125 27.69921875 C-23.46523438 26.70535156 -23.29765625 25.71148437 -23.125 24.6875 C-22.96257813 23.70136719 -22.80015625 22.71523437 -22.6328125 21.69921875 C-22 19 -22 19 -20 16 C-17.7578125 15.05078125 -17.7578125 15.05078125 -15.125 14.3125 C-14.26132812 14.06113281 -13.39765625 13.80976563 -12.5078125 13.55078125 C-10 13 -10 13 -6 13 C-5.7525 12.154375 -5.505 11.30875 -5.25 10.4375 C-3.86026373 6.61572526 -2.08879162 3.48131937 0 0 Z"></path>
<path transform="translate(249,116)" fill="#000000" d="M0 0 C0.66 0 1.32 0 2 0 C3.00508801 1.78881736 4.00392736 3.58114696 5 5.375 C5.556875 6.37273437 6.11375 7.37046875 6.6875 8.3984375 C8 11 8 11 8 13 C12.29 13.66 16.58 14.32 21 15 C21.71614583 16.92057292 22.43229167 18.84114583 23.1484375 20.76171875 C23.42945313 21.50035156 23.71046875 22.23898438 24 23 C24.37898438 24.34191406 24.37898438 24.34191406 24.765625 25.7109375 C25.37664062 26.84402344 25.37664062 26.84402344 26 28 C28.51033826 28.73605842 28.51033826 28.73605842 31.375 28.9375 C34.35546875 29.578125 34.35546875 29.578125 37 31 C39.22582991 35.54866935 40.17357291 39.99515753 41 45 C45.29 45.99 49.58 46.98 54 48 C54 48.66 54 49.32 54 50 C53.34 50 52.68 50 52 50 C51.7702095 50.55455242 51.54041901 51.10910484 51.30366516 51.68046188 C49.63530582 54.64887986 47.54981934 56.7021193 45.14135742 59.11260986 C44.64286632 59.61422095 44.14437521 60.11583204 43.63077831 60.63264346 C41.9604036 62.31099096 40.28297645 63.98210447 38.60546875 65.65332031 C37.40604812 66.85545105 36.20705337 68.05800684 35.00845337 69.26095581 C31.75288787 72.52564323 28.4910226 75.78396762 25.22772598 79.04092503 C21.81703796 82.44655441 18.41122674 85.85705513 15.00463867 89.26678467 C9.28500752 94.99005486 3.56117078 100.70909366 -2.16503906 106.42578125 C-8.79328575 113.04313313 -15.4142825 119.66767344 -22.03157902 126.29597402 C-27.70775908 131.9812163 -33.38781024 137.66256893 -39.07114315 143.34066081 C-42.46809745 146.73449088 -45.86367126 150.12967249 -49.25576782 153.52835846 C-52.44248143 156.7208298 -55.63401013 159.9084063 -58.82939529 163.09219742 C-60.00424614 164.26439367 -61.17737971 165.43831385 -62.34870529 166.61403275 C-63.94169604 168.2124487 -65.54065316 169.80463901 -67.14135742 171.39532471 C-68.03658615 172.28979939 -68.93181488 173.18427406 -69.85417175 174.10585403 C-72 176 -72 176 -74 176 C-74.50512244 174.39743892 -75.00391627 172.79288208 -75.5 171.1875 C-75.7784375 170.29417969 -76.056875 169.40085937 -76.34375 168.48046875 C-77 166 -77 166 -77 163 C-77.81984375 162.91105469 -78.6396875 162.82210937 -79.484375 162.73046875 C-82.96198647 162.15225345 -85.80658568 161.51177593 -89 160 C-91.55874211 156.09081067 -93 151.70229352 -93 147 C-93.69867188 146.86722656 -94.39734375 146.73445312 -95.1171875 146.59765625 C-96.48230469 146.33275391 -96.48230469 146.33275391 -97.875 146.0625 C-98.77992188 145.88847656 -99.68484375 145.71445312 -100.6171875 145.53515625 C-103 145 -103 145 -105 144 C-105.62283781 141.71333725 -106.22334986 139.42057304 -106.8125 137.125 C-107.63000861 134.38170551 -108.52162348 132.54474648 -110 130 C-114.25399616 127.89365238 -118.28862885 127.28971828 -123 127 C-123 123.05993117 -121.31031803 121.96054422 -118.63546753 119.27331543 C-117.99191315 118.64211792 -117.34835876 118.01092041 -116.68530273 117.3605957 C-116.01379684 116.69025803 -115.34229095 116.01992035 -114.6504364 115.32926941 C-112.41836385 113.10441063 -110.17596099 110.89025992 -107.93359375 108.67578125 C-106.38022104 107.13054497 -104.82758286 105.58456996 -103.27565002 104.03788757 C-99.17638291 99.95577971 -95.06865071 95.88230105 -90.9586792 91.81097412 C-84.40288252 85.31421723 -77.85946881 78.80499707 -71.31688118 72.29494286 C-69.03590005 70.02784526 -66.75109558 67.76465861 -64.46568298 65.50202942 C-63.05051933 64.09690154 -61.63544033 62.69168841 -60.22045898 61.28637695 C-59.59107422 60.6653006 -58.96168945 60.04422424 -58.31323242 59.40432739 C-54.57989712 55.68945762 -51.06483408 51.85325252 -47.65990067 47.83441925 C-45.31853453 45.24688664 -42.70599598 43.04197861 -40.05142212 40.78475952 C-36.42362014 37.6285324 -33.06194601 34.20436878 -29.66796875 30.80078125 C-28.90954178 30.043311 -28.15111481 29.28584076 -27.3697052 28.50541687 C-25.78113066 26.917518 -24.19379881 25.32837501 -22.60766602 23.73803711 C-20.18033085 21.30531494 -17.74766366 18.87801595 -15.31445312 16.45117188 C-13.76530401 14.90136245 -12.21646486 13.35124312 -10.66796875 11.80078125 C-9.94296677 11.0778035 -9.21796478 10.35482574 -8.47099304 9.60993958 C-7.79631485 8.93210922 -7.12163666 8.25427887 -6.42651367 7.5559082 C-5.54004402 6.66824516 -5.54004402 6.66824516 -4.63566589 5.76264954 C-2.92340279 3.99222968 -2.92340279 3.99222968 -1.4108429 1.77775574 C-0.94526474 1.19109634 -0.47968658 0.60443695 0 0 Z"></path>
<path transform="translate(270,564)" fill="#FEFEFE" d="M0 0 C161.37 0 322.74 0 489 0 C489 7.59 489 15.18 489 23 C327.63 23 166.26 23 0 23 C0 15.41 0 7.82 0 0 Z"></path>
<path transform="translate(270,356)" fill="#FBFBFB" d="M0 0 C161.37 0 322.74 0 489 0 C489 7.59 489 15.18 489 23 C327.63 23 166.26 23 0 23 C0 15.41 0 7.82 0 0 Z"></path>
<path transform="translate(269,496)" fill="#FDFDFD" d="M0 0 C161.7 0 323.4 0 490 0 C490 7.26 490 14.52 490 22 C328.63 22 167.26 22 1 22 C0 15 0 15 0 0 Z"></path>
<path transform="translate(270,703)" fill="#FEFEFE" d="M0 0 C161.37 0 322.74 0 489 0 C489 7.26 489 14.52 489 22 C327.63 22 166.26 22 0 22 C0 14.74 0 7.48 0 0 Z"></path>
<path transform="translate(270,634)" fill="#FEFEFE" d="M0 0 C161.37 0 322.74 0 489 0 C489 7.26 489 14.52 489 22 C327.63 22 166.26 22 0 22 C0 14.74 0 7.48 0 0 Z"></path>
<path transform="translate(270,427)" fill="#FEFEFE" d="M0 0 C161.37 0 322.74 0 489 0 C489 7.26 489 14.52 489 22 C327.63 22 166.26 22 0 22 C0 14.74 0 7.48 0 0 Z"></path>
</svg>
