<svg viewBox="0 0 34.1321 34.1321" xmlns="http://www.w3.org/2000/svg" data-name="Layer 2" id="Layer_2">
  <path d="M17.0662,33.2364c3.2793,0,5.9473-2.668,5.9473-5.9473,0-2.1768-1.1719-4.1377-3.0791-5.1875V3.7638c0-1.5811-1.2866-2.8682-2.8682-2.8682s-2.8682,1.2871-2.8682,2.8682v18.3379c-1.9072,1.0498-3.0791,3.0107-3.0791,5.1875,0,3.2793,2.668,5.9473,5.9473,5.9473ZM15.1981,22.4054V3.7638c0-1.0303.8379-1.8682,1.8682-1.8682s1.8682.8379,1.8682,1.8682v18.6416c0,.1914.1094.3662.2812.4492,1.7261.8389,2.7979,2.5381,2.7979,4.4346,0,2.7275-2.2192,4.9473-4.9473,4.9473s-4.9473-2.2197-4.9473-4.9473c0-1.8965,1.0718-3.5957,2.7979-4.4346.1719-.083.2812-.2578.2812-.4492Z"></path>
  <path d="M17.0628,30.5265c1.7847,0,3.2368-1.4521,3.2368-3.2373,0-1.613-1.1904-2.9432-2.7368-3.1858V5.2911c0-.2764-.2236-.5-.5-.5s-.5.2236-.5.5v18.8123c-1.5464.2426-2.7368,1.5728-2.7368,3.1858,0,1.7852,1.4521,3.2373,3.2368,3.2373ZM17.0628,25.0528c1.2334,0,2.2368,1.0029,2.2368,2.2363s-1.0034,2.2373-2.2368,2.2373-2.2368-1.0039-2.2368-2.2373,1.0034-2.2363,2.2368-2.2363Z"></path>
</svg>