<svg viewBox="0 0 34.1321 34.1321" xmlns="http://www.w3.org/2000/svg" data-name="Layer 2" id="Layer_2">
  <path d="M13.2835,2.6101H3.9329c-.2764,0-.5.2236-.5.5v24.9082c0,.2764.2236.5.5.5h9.3506c.2764,0,.5-.2236.5-.5V3.1101c0-.2764-.2236-.5-.5-.5ZM12.7835,27.5183H4.4329V3.6101h8.3506v23.9082Z"></path>
  <path d="M32.892.6397c-.0257-.0419-.0544-.0818-.092-.115-.0065-.0057-.0092-.0146-.0161-.02-.0139-.011-.032-.0129-.0468-.0222-.0378-.0239-.0772-.0441-.1195-.057-.0261-.0079-.0531-.0126-.0807-.0162-.0219-.0029-.0413-.0129-.064-.0129H1.6595c-.2764,0-.5.2236-.5.5v29.3359c0,.2764.2236.5.5.5h17.3252v2.5039c0,.1523.0693.2969.189.3916.0894.0703.1992.1084.311.1084.0376,0,.0752-.0039.1128-.0127l12.9883-3.0039c.0166-.0039.0298-.0138.0457-.0193.0234-.0079.046-.0173.0676-.0284.0325-.0167.0622-.0375.09-.0607.0181-.0151.0366-.0297.0522-.0471.0259-.0288.0461-.062.0648-.0962.0101-.0183.0227-.0352.0304-.0547.022-.0564.0364-.1167.0364-.1809V.8963c0-.0742-.0182-.1431-.0471-.2063-.0085-.0187-.0232-.033-.0338-.0503ZM19.9847,32.6072V4.2976l11.9883-2.7725v28.3096l-3.8807.8975-8.1076,1.875ZM2.1595,29.7322V1.3963h12.8975v28.3359H2.1595ZM16.0569,29.7322V1.3963h12.0343l-8.7194,2.0166c-.2266.0527-.3872.2549-.3872.4873v25.832h-2.9277Z"></path>
  <path d="M30.2161,3.5496l-8.54,1.9482c-.2275.0518-.3887.2539-.3887.4873v9.6758h-.145c-.2764,0-.5.2236-.5.5s.2236.5.5.5h.145v13.7676c0,.1143.0492.2163.1187.3037.0232.0292.0396.0632.0693.0869.0898.0713.1997.1094.312.1094.0371,0,.0742-.0039.1113-.0127l.8047-.1836,4.3835-1,3.3518-.7646c.2275-.0518.3887-.2539.3887-.4873V4.0369c0-.1523-.0693-.2959-.188-.3906-.1196-.0957-.2739-.1328-.4233-.0967ZM29.8274,28.0818l-7.236,1.6504-.304.0693v-13.1406h.5024v2.5488c0,.2764.2236.5.5.5s.5-.2236.5-.5v-3.0488c0-.2764-.2236-.5-.5-.5h-1.0024V6.3836l7.54-1.7197v23.418Z"></path>
  <path d="M5.9832,13.3191c.126,0,.2524-.0479.3496-.1426l5.3188-5.207c.1973-.1934.2007-.5098.0078-.707-.1934-.1973-.5088-.1992-.707-.0078l-5.3188,5.207c-.1973.1934-.2007.5098-.0078.707.0981.1006.2275.1504.3574.1504Z"></path>
  <path d="M6.6858,9.781c.126,0,.2524-.0479.3496-.1426l1.957-1.916c.1973-.1934.2007-.5098.0078-.707s-.5093-.1992-.707-.0078l-1.957,1.916c-.1973.1934-.2007.5098-.0078.707.0981.1006.2275.1504.3574.1504Z"></path>
</svg>