<svg viewBox="0 0 34.1321 34.1321" xmlns="http://www.w3.org/2000/svg" data-name="Layer 2" id="Layer_2">
  <path d="M16.8519,33.3648c.0679.0322.1411.0488.2144.0488s.1465-.0166.2144-.0488c2.623-1.2461,4.9434-2.9443,6.896-5.0488,6.2412-6.7275,6.6968-17.0459,6.6875-20.0488-.0005-.1846-.1025-.3535-.2656-.4395L17.3006.7769c-.1465-.0781-.3223-.0781-.4688,0L3.5335,7.8277c-.1631.0859-.2651.2559-.2656.4404-.0083,3.002.4487,13.3223,6.688,20.0479,1.9526,2.1045,4.2725,3.8027,6.896,5.0488ZM29.8636,8.5699c-.0239,3.2432-.6182,12.8115-6.4204,19.0664-1.8125,1.9531-3.957,3.541-6.377,4.7227-2.4204-1.1816-4.5649-2.7695-6.377-4.7227-5.8003-6.2529-6.396-15.8232-6.4204-19.0664L17.0662,1.7847l12.7974,6.7852Z"></path>
  <path d="M17.0662,25.0962c3.229,0,5.856-2.627,5.856-5.8564,0-3.0762-5.2197-10.8301-5.4419-11.1592-.1855-.2754-.6426-.2754-.8281,0-.2222.3291-5.4424,8.083-5.4424,11.1592,0,3.2295,2.627,5.8564,5.8564,5.8564ZM17.0662,9.2652c1.6626,2.5449,4.856,7.8672,4.856,9.9746,0,2.6777-2.1782,4.8564-4.856,4.8564s-4.8564-2.1787-4.8564-4.8564c0-2.1074,3.1938-7.4297,4.8564-9.9746Z"></path>
  <path d="M17.6429,23.0767c.0488,0,.0986-.0068.1479-.0225,1.4282-.4434,2.623-1.4707,3.2778-2.8193.1206-.249.0171-.5479-.2314-.6689-.249-.1211-.5474-.0156-.668.2314-.5347,1.1016-1.5098,1.9404-2.6743,2.3018-.2642.082-.4116.3623-.3296.626.0664.2139.2642.3516.4775.3516Z"></path>
  <path d="M10.9852,26.6509c1.6611,1.791,3.6348,3.2354,5.8667,4.2949.0679.0332.1411.0488.2144.0488s.1465-.0166.2144-.0488c2.2314-1.0596,4.2056-2.5049,5.8667-4.2949,5.3062-5.7207,5.6948-14.4893,5.6875-17.04-.0005-.1846-.1025-.3545-.2656-.4404l-11.2686-5.9746c-.1465-.0781-.3223-.0781-.4688,0l-11.2686,5.9746c-.1631.0859-.2651.2549-.2656.4395-.0078,2.5508.3789,11.3184,5.6875,17.041ZM17.0662,4.2037l10.7676,5.709c-.0259,2.7842-.5503,10.8086-5.4199,16.0586-1.521,1.6387-3.3193,2.9736-5.3477,3.9678-2.0288-.9941-3.8271-2.3291-5.3477-3.9678-4.8716-5.252-5.3945-13.2754-5.4199-16.0586l10.7676-5.709Z"></path>
</svg>