<svg width="85" height="71" viewBox="0 0 85 71" fill="none" xmlns="http://www.w3.org/2000/svg">
<g clip-path="url(#clip0_1_2365)">
<path d="M8.99027 39.92H7.78027V5.11C7.78027 2.29 9.85027 0 12.3903 0H16.0003C18.5403 0 20.6103 2.29 20.6103 5.11V8.73H19.4003V5.11C19.4003 2.96 17.8703 1.2 16.0003 1.2H12.3903C10.5103 1.2 8.99027 2.95 8.99027 5.11V39.92Z" fill="#00473C"/>
<path d="M66.0903 64.0005H18.3903C12.4603 64.0005 7.34031 59.8505 6.11031 54.0505L3.82031 43.2305H80.6603L78.3703 54.0505C77.1403 59.8505 72.0203 64.0005 66.0903 64.0005Z" fill="#00473C"/>
<path d="M66.0901 64.6013H18.3901C15.3801 64.6013 12.4401 63.5613 10.1101 61.6613C7.77008 59.7713 6.14008 57.1013 5.52008 54.1613L3.08008 42.6113H81.4101L78.9701 54.1613C78.3501 57.1013 76.7201 59.7613 74.3801 61.6613C72.0401 63.5513 69.1001 64.6013 66.1001 64.6013H66.0901ZM4.56008 43.8213L6.70008 53.9113C7.27008 56.5813 8.74008 59.0013 10.8701 60.7213C12.9901 62.4413 15.6601 63.3913 18.3901 63.3913H66.0901C68.8201 63.3913 71.4901 62.4413 73.6101 60.7213C75.7301 59.0013 77.2101 56.5813 77.7801 53.9113L79.9201 43.8213H4.56008Z" fill="white"/>
<path d="M83.8496 40.6894H0.599609V45.5994H83.8496V40.6894Z" fill="#00473C"/>
<path d="M84.46 46.2H0V40.08H84.46V46.2ZM1.21 45H83.25V41.3H1.21V45Z" fill="white"/>
<path d="M18.3909 70.268H16.1309L17.2309 63.998H21.6909L18.3909 70.268Z" fill="#00473C"/>
<path d="M18.7504 70.8787H15.4004L16.7104 63.3887H22.6804L18.7504 70.8787ZM16.8504 69.6687H18.0304L20.6904 64.5987H17.7404L16.8504 69.6687Z" fill="white"/>
<path d="M66.09 70.268H68.35L67.25 63.998H62.79L66.09 70.268Z" fill="#00473C"/>
<path d="M69.07 70.8787H65.72L61.79 63.3887H67.76L69.07 70.8787ZM66.45 69.6687H67.63L66.74 64.5987H63.79L66.45 69.6687Z" fill="white"/>
<path d="M24.0397 15.4604H15.7697C15.1797 15.4604 14.6697 15.1304 14.4297 14.5904C14.1897 14.0504 14.2897 13.4504 14.6897 13.0204L18.9097 8.38039C19.1897 8.07039 19.5897 7.90039 19.9997 7.90039C20.4197 7.90039 20.8097 8.09039 21.0797 8.40039L25.1297 13.0404C25.5097 13.4804 25.5997 14.0804 25.3597 14.6004C25.1197 15.1204 24.6097 15.4604 24.0297 15.4604H24.0397ZM19.9797 9.11039C19.9797 9.11039 19.8597 9.12039 19.7897 9.19039L15.5697 13.8304C15.4697 13.9404 15.4997 14.0404 15.5297 14.1004C15.5497 14.1604 15.6197 14.2504 15.7597 14.2504H24.0297C24.1697 14.2504 24.2297 14.1604 24.2597 14.1004C24.2797 14.0404 24.3097 13.9404 24.2197 13.8304L20.1697 9.19039C20.1097 9.12039 20.0297 9.10039 19.9797 9.10039V9.11039Z" fill="#00473C"/>
<path d="M25.74 13.9707H14.29V15.9707H25.74V13.9707Z" fill="#00473C"/>
<path d="M26.3404 16.5713H13.6904V13.3613H26.3404V16.5713ZM14.9004 15.3613H25.1404V14.5713H14.9004V15.3613Z" fill="#00473C"/>
<path d="M78.2901 3.49805H53.1201V28.938H78.2901V3.49805Z" fill="#00473C"/>
<path d="M78.8898 29.5487H52.5098V2.88867H78.8898V29.5387V29.5487ZM53.7198 28.3387H77.6798V4.09867H53.7198V28.3387Z" fill="white"/>
<path d="M80.6594 1.58008H50.1494V4.77008H80.6594V1.58008Z" fill="#00473C"/>
<path d="M80.6598 5.37047H50.1498C49.8198 5.37047 49.5498 5.10047 49.5498 4.77047V1.58047C49.5498 1.25047 49.8198 0.980469 50.1498 0.980469C50.4798 0.980469 50.7498 1.25047 50.7498 1.58047V4.16047H80.0498V1.58047C80.0498 1.25047 80.3198 0.980469 80.6498 0.980469C80.9798 0.980469 81.2498 1.25047 81.2498 1.58047V4.77047C81.2498 5.10047 80.9798 5.37047 80.6498 5.37047H80.6598Z" fill="white"/>
<path d="M78.2901 3.49805H53.1201V22.898H78.2901V3.49805Z" fill="#00473C"/>
<path d="M78.8898 23.4987H52.5098V2.88867H78.8898V23.4987ZM53.7198 22.2887H77.6798V4.09867H53.7198V22.2887Z" fill="white"/>
<path d="M82.7003 1.31914H47.9203C47.5903 1.31914 47.3203 1.04914 47.3203 0.719141C47.3203 0.389141 47.5903 0.119141 47.9203 0.119141H82.7003C83.0303 0.119141 83.3003 0.389141 83.3003 0.719141C83.3003 1.04914 83.0303 1.31914 82.7003 1.31914Z" fill="white"/>
</g>
<defs>
<clipPath id="clip0_1_2365">
<rect width="84.46" height="70.88" fill="white"/>
</clipPath>
</defs>
</svg>
