<svg width="76" height="77" viewBox="0 0 76 77" fill="none" xmlns="http://www.w3.org/2000/svg">
<g clip-path="url(#clip0_1_2276)">
<path d="M66.7708 25.2383H8.30078V51.1883H66.7708V25.2383Z" fill="#00473C"/>
<path d="M67.3804 51.7987H7.69043V24.6387H67.3704V51.7987H67.3804ZM8.90043 50.5887H66.1604V25.8487H8.90043V50.5887Z" fill="white"/>
<path d="M31.1307 38.3301H10.3107C8.35013 38.3301 6.76074 39.9195 6.76074 41.8801V53.0301C6.76074 54.9907 8.35013 56.5801 10.3107 56.5801H31.1307C33.0914 56.5801 34.6807 54.9907 34.6807 53.0301V41.8801C34.6807 39.9195 33.0914 38.3301 31.1307 38.3301Z" fill="#00473C"/>
<path d="M31.1204 57.1907H10.3104C8.02039 57.1907 6.15039 55.3307 6.15039 53.0307V41.8807C6.15039 39.5907 8.01039 37.7207 10.3104 37.7207H31.1204C33.4104 37.7207 35.2804 39.5807 35.2804 41.8807V53.0307C35.2804 55.3207 33.4204 57.1907 31.1204 57.1907ZM10.3104 38.9307C8.68039 38.9307 7.36039 40.2507 7.36039 41.8807V53.0307C7.36039 54.6607 8.68039 55.9807 10.3104 55.9807H31.1204C32.7504 55.9807 34.0704 54.6607 34.0704 53.0307V41.8807C34.0704 40.2507 32.7504 38.9307 31.1204 38.9307H10.3104Z" fill="white"/>
<path d="M64.3192 38.3301H43.4992C41.5386 38.3301 39.9492 39.9195 39.9492 41.8801V53.0301C39.9492 54.9907 41.5386 56.5801 43.4992 56.5801H64.3192C66.2798 56.5801 67.8692 54.9907 67.8692 53.0301V41.8801C67.8692 39.9195 66.2798 38.3301 64.3192 38.3301Z" fill="#00473C"/>
<path d="M64.3196 57.1907H43.5096C41.2196 57.1907 39.3496 55.3307 39.3496 53.0307V41.8807C39.3496 39.5907 41.2096 37.7207 43.5096 37.7207H64.3196C66.6096 37.7207 68.4796 39.5807 68.4796 41.8807V53.0307C68.4796 55.3207 66.6196 57.1907 64.3196 57.1907ZM43.5096 38.9307C41.8796 38.9307 40.5596 40.2507 40.5596 41.8807V53.0307C40.5596 54.6607 41.8796 55.9807 43.5096 55.9807H64.3196C65.9496 55.9807 67.2696 54.6607 67.2696 53.0307V41.8807C67.2696 40.2507 65.9496 38.9307 64.3196 38.9307H43.5096Z" fill="white"/>
<path d="M70.9096 51.1894H4.14961C2.189 51.1894 0.599609 52.7788 0.599609 54.7394V60.9694C0.599609 62.93 2.189 64.5194 4.14961 64.5194H70.9096C72.8702 64.5194 74.4596 62.93 74.4596 60.9694V54.7394C74.4596 52.7788 72.8702 51.1894 70.9096 51.1894Z" fill="#00473C"/>
<path d="M70.91 65.12H4.16C1.87 65.12 0 63.26 0 60.96V54.74C0 52.45 1.86 50.58 4.16 50.58H70.91C73.2 50.58 75.07 52.44 75.07 54.74V60.96C75.07 63.25 73.21 65.12 70.91 65.12ZM4.16 51.8C2.53 51.8 1.21 53.12 1.21 54.75V60.97C1.21 62.6 2.53 63.92 4.16 63.92H70.91C72.54 63.92 73.86 62.6 73.86 60.97V54.75C73.86 53.12 72.54 51.8 70.91 51.8H4.16Z" fill="white"/>
<path d="M74.4596 60.2696H0.599609V75.4696H74.4596V60.2696Z" fill="#00473C"/>
<path d="M75.07 76.08H0V59.67H75.07V76.08ZM1.21 74.87H73.86V60.88H1.21V74.87Z" fill="white"/>
<path d="M5.66016 51.1895L8.30016 66.0195L68.9702 51.1895H5.66016Z" fill="#00473C"/>
<path d="M8.30033 66.6298C8.18033 66.6298 8.07033 66.5998 7.97033 66.5298C7.83033 66.4398 7.73033 66.2898 7.70033 66.1298L5.06033 51.2998C5.03033 51.1198 5.08033 50.9398 5.19033 50.8098C5.30033 50.6698 5.47033 50.5898 5.65033 50.5898H68.9603C69.2703 50.5898 69.5203 50.8198 69.5603 51.1198C69.6003 51.4198 69.4003 51.7098 69.1003 51.7798L8.43033 66.6098C8.43033 66.6098 8.33033 66.6298 8.29033 66.6298H8.30033ZM6.38033 51.7998L8.78033 65.2798L63.9503 51.7998H6.38033Z" fill="white"/>
</g>
<defs>
<clipPath id="clip0_1_2276">
<rect width="75.07" height="76.08" fill="white"/>
</clipPath>
</defs>
</svg>
