<svg width="86" height="63" viewBox="0 0 86 63" fill="none" xmlns="http://www.w3.org/2000/svg">
<g clip-path="url(#clip0_1_2320)">
<path d="M24.7796 34.1074H0.599609V38.7974H24.7796V34.1074Z" fill="#00473C"/>
<path d="M25.39 39.398H0V33.498H25.39V39.398ZM1.21 38.198H24.18V34.718H1.21V38.198Z" fill="#00473C"/>
<path d="M22.9698 38.1993H21.7598V62.8193H22.9698V38.1993Z" fill="#00473C"/>
<path d="M1.21 3.2793H0V62.8093H1.21V3.2793Z" fill="#00473C"/>
<path d="M2.68961 3.87891H0.599609V22.0889H2.68961V3.87891Z" fill="#00473C"/>
<path d="M3.3 22.6893H0V3.2793H3.3V22.6993V22.6893ZM1.21 21.4793H2.09V4.4893H1.21V21.4893V21.4793Z" fill="#00473C"/>
<path d="M85.1702 34.1074H60.9902V38.7974H85.1702V34.1074Z" fill="#00473C"/>
<path d="M85.7699 39.398H60.3799V33.498H85.7699V39.398ZM61.5899 38.198H84.5599V34.718H61.5899V38.198Z" fill="#00473C"/>
<path d="M64.0098 38.1993H62.7998V62.8193H64.0098V38.1993Z" fill="#00473C"/>
<path d="M85.7696 3.2793H84.5596V62.8093H85.7696V3.2793Z" fill="#00473C"/>
<path d="M85.1701 3.87891H83.0801V22.0889H85.1701V3.87891Z" fill="#00473C"/>
<path d="M85.7697 22.6893H82.4697V3.2793H85.7697V22.6993V22.6893ZM83.6897 21.4793H84.5697V4.4893H83.6897V21.4893V21.4793Z" fill="#00473C"/>
<path d="M11.6306 21.7715H8.64062V62.2115H11.6306V21.7715Z" fill="#00473C"/>
<path d="M12.2303 62.8102H8.03027V21.1602H12.2303V62.8102ZM9.24027 61.6002H11.0203V22.3702H9.24027V61.6002Z" fill="#00473C"/>
<path d="M77.2 21.7715H74.21V62.2115H77.2V21.7715Z" fill="#00473C"/>
<path d="M77.8103 62.8102H73.6104V21.1602H77.8103V62.8102ZM74.8204 61.6002H76.6003V22.3702H74.8204V61.6002Z" fill="#00473C"/>
<path d="M77.2106 14.8613H8.64062V22.0913H77.2106V14.8613Z" fill="#00473C"/>
<path d="M77.8103 22.69H8.03027V14.25H77.8103V22.69ZM9.24027 21.48H76.6003V15.46H9.24027V21.48Z" fill="#00473C"/>
<path d="M15.5498 14.9688L43.2498 33.4087L70.0698 14.9688H15.5498Z" fill="#00473C"/>
<path d="M43.2598 34.1391L13.5498 14.3691H72.0098L43.2498 34.1391H43.2598ZM17.5498 15.5791L43.2398 32.6791L68.1198 15.5791H17.5498Z" fill="white"/>
<path d="M50.9199 6.26094C50.9199 7.67094 52.0599 8.81094 53.4699 8.81094C54.8799 8.81094 56.0199 7.67094 56.0199 6.26094C56.0199 4.85094 54.8799 3.71094 53.4699 3.71094C52.0599 3.71094 50.9199 4.85094 50.9199 6.26094Z" fill="#00473C"/>
<path d="M53.4596 9.41133C51.7196 9.41133 50.3096 8.00133 50.3096 6.26133C50.3096 4.52133 51.7196 3.11133 53.4596 3.11133C55.1996 3.11133 56.6096 4.52133 56.6096 6.26133C56.6096 8.00133 55.1996 9.41133 53.4596 9.41133ZM53.4596 4.32133C52.3896 4.32133 51.5196 5.19133 51.5196 6.26133C51.5196 7.33133 52.3896 8.20133 53.4596 8.20133C54.5296 8.20133 55.3996 7.33133 55.3996 6.26133C55.3996 5.19133 54.5296 4.32133 53.4596 4.32133Z" fill="#00473C"/>
<path d="M56.01 5.69961C57.4183 5.69961 58.56 4.55794 58.56 3.14961C58.56 1.74128 57.4183 0.599609 56.01 0.599609C54.6016 0.599609 53.46 1.74128 53.46 3.14961C53.46 4.55794 54.6016 5.69961 56.01 5.69961Z" fill="#00473C"/>
<path d="M56.0103 6.3C54.2703 6.3 52.8604 4.89 52.8604 3.15C52.8604 1.41 54.2703 0 56.0103 0C57.7503 0 59.1604 1.41 59.1604 3.15C59.1604 4.89 57.7503 6.3 56.0103 6.3ZM56.0103 1.21C54.9403 1.21 54.0704 2.08 54.0704 3.15C54.0704 4.22 54.9403 5.09 56.0103 5.09C57.0803 5.09 57.9504 4.22 57.9504 3.15C57.9504 2.08 57.0803 1.21 56.0103 1.21Z" fill="#00473C"/>
<path d="M57.4394 10.4687C59.2564 10.4687 60.7294 8.99569 60.7294 7.17867C60.7294 5.36165 59.2564 3.88867 57.4394 3.88867C55.6224 3.88867 54.1494 5.36165 54.1494 7.17867C54.1494 8.99569 55.6224 10.4687 57.4394 10.4687Z" fill="#00473C"/>
<path d="M57.4398 11.0691C55.2898 11.0691 53.5498 9.31906 53.5498 7.17906C53.5498 5.03906 55.2998 3.28906 57.4398 3.28906C59.5798 3.28906 61.3298 5.03906 61.3298 7.17906C61.3298 9.31906 59.5798 11.0691 57.4398 11.0691ZM57.4398 4.49906C55.9598 4.49906 54.7598 5.69906 54.7598 7.17906C54.7598 8.65906 55.9598 9.85906 57.4398 9.85906C58.9198 9.85906 60.1198 8.65906 60.1198 7.17906C60.1198 5.69906 58.9198 4.49906 57.4398 4.49906Z" fill="#00473C"/>
<path d="M56.4706 7.23047H62.8506C62.8506 7.23047 62.0006 13.8805 55.6806 13.8805C49.3606 13.8805 48.6006 7.23047 48.6006 7.23047H56.4806H56.4706Z" fill="#00473C"/>
<path d="M55.6702 14.4809C52.1202 14.4809 50.2102 12.5109 49.2402 10.8609C48.2102 9.11086 48.0002 7.37086 47.9902 7.30086L47.9102 6.63086H63.5302L63.4402 7.31086C63.4402 7.38086 63.2002 9.12086 62.1402 10.8709C61.1402 12.5209 59.2102 14.4809 55.6602 14.4809H55.6702ZM49.3202 7.83086C49.4602 8.43086 49.7502 9.36086 50.3002 10.2709C51.4802 12.2609 53.2902 13.2609 55.6702 13.2609C58.0502 13.2609 59.9002 12.2409 61.1102 10.2309C61.6602 9.32086 61.9502 8.42086 62.1002 7.82086H49.3202V7.83086Z" fill="#00473C"/>
</g>
<defs>
<clipPath id="clip0_1_2320">
<rect width="85.77" height="62.81" fill="white"/>
</clipPath>
</defs>
</svg>
