<svg width="78" height="73" viewBox="0 0 78 73" fill="none" xmlns="http://www.w3.org/2000/svg">
<g clip-path="url(#clip0_1_2029)">
<path d="M72.2596 35.9902H4.55957V71.8202H72.2596V35.9902Z" fill="#00473C"/>
<path d="M72.87 72.4306H3.95996V35.3906H72.87V72.4306ZM5.16996 71.2206H71.67V36.5906H5.16996V71.2206Z" fill="white"/>
<path d="M13.5696 35.9902H4.55957V71.8202H13.5696V35.9902Z" fill="#00473C"/>
<path d="M14.18 72.4306H3.95996V35.3906H14.18V72.4306ZM5.16996 71.2206H12.97V36.5906H5.16996V71.2206Z" fill="white"/>
<path d="M72.26 35.9902H63.25V71.8202H72.26V35.9902Z" fill="#00473C"/>
<path d="M72.8704 72.4306H62.6504V35.3906H72.8704V72.4306ZM63.8604 71.2206H71.6604V36.5906H63.8604V71.2206Z" fill="white"/>
<path d="M9.66996 35.3809H8.45996V72.4209H9.66996V35.3809Z" fill="white"/>
<path d="M68.3702 35.3809H67.1602V72.4209H68.3702V35.3809Z" fill="white"/>
<path d="M76.8796 28.7305H0.599609V35.9805H76.8796V28.7305Z" fill="#00473C"/>
<path d="M77.49 36.5909H0V28.1309H77.49V36.5909ZM1.21 35.3809H76.28V29.3309H1.21V35.3809Z" fill="white"/>
<path d="M22.4693 35.9883H13.5693V39.9483H22.4693V35.9883Z" fill="#00473C"/>
<path d="M23.0797 40.5489H12.9697V35.3789H23.0797V40.5489ZM14.1797 39.3389H21.8697V36.5889H14.1797V39.3389Z" fill="white"/>
<path d="M31.3805 35.9922H22.4805V39.9522H31.3805V35.9922Z" fill="#00473C"/>
<path d="M31.9801 40.5509H21.8701V35.3809H31.9801V40.5509ZM23.0801 39.3409H30.7701V36.5909H23.0801V39.3409Z" fill="white"/>
<path d="M40.2799 35.9883H31.3799V39.9483H40.2799V35.9883Z" fill="#00473C"/>
<path d="M40.8903 40.5489H30.7803V35.3789H40.8903V40.5489ZM31.9803 39.3389H39.6703V36.5889H31.9803V39.3389Z" fill="white"/>
<path d="M49.1793 35.9883H40.2793V39.9483H49.1793V35.9883Z" fill="#00473C"/>
<path d="M49.7897 40.5489H39.6797V35.3789H49.7897V40.5489ZM40.8897 39.3389H48.5797V36.5889H40.8897V39.3389Z" fill="white"/>
<path d="M58.0797 35.9922H49.1797V39.9522H58.0797V35.9922Z" fill="#00473C"/>
<path d="M58.6901 40.5509H48.5801V35.3809H58.6901V40.5509ZM49.7901 39.3409H57.4801V36.5909H49.7901V39.3409Z" fill="white"/>
<path d="M27.6393 39.9395H18.7393V43.8995H27.6393V39.9395Z" fill="#00473C"/>
<path d="M28.2496 44.5098H18.1396V39.3398H28.2496V44.5098ZM19.3396 43.2998H27.0296V40.5498H19.3396V43.2998Z" fill="white"/>
<path d="M36.5396 39.9396H27.6396V43.8996H36.5396V39.9396Z" fill="#00473C"/>
<path d="M37.15 44.51H27.04V39.34H37.15V44.51ZM28.25 43.3H35.94V40.55H28.25V43.3Z" fill="white"/>
<path d="M45.4508 39.9395H36.5508V43.8995H45.4508V39.9395Z" fill="#00473C"/>
<path d="M46.0504 44.5098H35.9404V39.3398H46.0504V44.5098ZM37.1504 43.2998H44.8404V40.5498H37.1504V43.2998Z" fill="white"/>
<path d="M54.3492 39.9395H45.4492V43.8995H54.3492V39.9395Z" fill="#00473C"/>
<path d="M54.9596 44.5098H44.8496V39.3398H54.9596V44.5098ZM46.0496 43.2998H53.7396V40.5498H46.0496V43.2998Z" fill="white"/>
<path d="M63.2496 39.9396H54.3496V43.8996H63.2496V39.9396Z" fill="#00473C"/>
<path d="M63.86 44.51H53.75V39.34H63.86V44.51ZM54.96 43.3H62.65V40.55H54.96V43.3Z" fill="white"/>
<path d="M22.4693 43.8984H13.5693V47.8584H22.4693V43.8984Z" fill="#00473C"/>
<path d="M23.0797 48.4591H12.9697V43.2891H23.0797V48.4591ZM14.1797 47.2491H21.8697V44.4991H14.1797V47.2491Z" fill="white"/>
<path d="M31.3805 43.8984H22.4805V47.8584H31.3805V43.8984Z" fill="#00473C"/>
<path d="M31.9801 48.4591H21.8701V43.2891H31.9801V48.4591ZM23.0801 47.2491H30.7701V44.4991H23.0801V47.2491Z" fill="white"/>
<path d="M40.2799 43.8984H31.3799V47.8584H40.2799V43.8984Z" fill="#00473C"/>
<path d="M40.8903 48.4591H30.7803V43.2891H40.8903V48.4591ZM31.9803 47.2491H39.6703V44.4991H31.9803V47.2491Z" fill="white"/>
<path d="M49.1793 43.8984H40.2793V47.8584H49.1793V43.8984Z" fill="#00473C"/>
<path d="M49.7897 48.4591H39.6797V43.2891H49.7897V48.4591ZM40.8897 47.2491H48.5797V44.4991H40.8897V47.2491Z" fill="white"/>
<path d="M58.0797 43.8984H49.1797V47.8584H58.0797V43.8984Z" fill="#00473C"/>
<path d="M58.6901 48.4591H48.5801V43.2891H58.6901V48.4591ZM49.7901 47.2491H57.4801V44.4991H49.7901V47.2491Z" fill="white"/>
<path d="M27.6393 47.8594H18.7393V51.8194H27.6393V47.8594Z" fill="#00473C"/>
<path d="M28.2496 52.42H18.1396V47.25H28.2496V52.42ZM19.3396 51.21H27.0296V48.46H19.3396V51.21Z" fill="white"/>
<path d="M36.5396 47.8594H27.6396V51.8194H36.5396V47.8594Z" fill="#00473C"/>
<path d="M37.15 52.42H27.04V47.25H37.15V52.42ZM28.25 51.21H35.94V48.46H28.25V51.21Z" fill="white"/>
<path d="M45.4508 47.8594H36.5508V51.8194H45.4508V47.8594Z" fill="#00473C"/>
<path d="M46.0504 52.42H35.9404V47.25H46.0504V52.42ZM37.1504 51.21H44.8404V48.46H37.1504V51.21Z" fill="white"/>
<path d="M54.3492 47.8594H45.4492V51.8194H54.3492V47.8594Z" fill="#00473C"/>
<path d="M54.9596 52.42H44.8496V47.25H54.9596V52.42ZM46.0496 51.21H53.7396V48.46H46.0496V51.21Z" fill="white"/>
<path d="M63.2496 47.8594H54.3496V51.8194H63.2496V47.8594Z" fill="#00473C"/>
<path d="M63.86 52.42H53.75V47.25H63.86V52.42ZM54.96 51.21H62.65V48.46H54.96V51.21Z" fill="white"/>
<path d="M22.4693 51.8105H13.5693V55.7705H22.4693V51.8105Z" fill="#00473C"/>
<path d="M23.0797 56.3809H12.9697V51.2109H23.0797V56.3809ZM14.1797 55.1709H21.8697V52.4209H14.1797V55.1709Z" fill="white"/>
<path d="M31.3805 51.8105H22.4805V55.7705H31.3805V51.8105Z" fill="#00473C"/>
<path d="M31.9801 56.3809H21.8701V51.2109H31.9801V56.3809ZM23.0801 55.1709H30.7701V52.4209H23.0801V55.1709Z" fill="white"/>
<path d="M40.2799 51.8105H31.3799V55.7705H40.2799V51.8105Z" fill="#00473C"/>
<path d="M40.8903 56.3809H30.7803V51.2109H40.8903V56.3809ZM31.9803 55.1709H39.6703V52.4209H31.9803V55.1709Z" fill="white"/>
<path d="M49.1793 51.8105H40.2793V55.7705H49.1793V51.8105Z" fill="#00473C"/>
<path d="M49.7897 56.3809H39.6797V51.2109H49.7897V56.3809ZM40.8897 55.1709H48.5797V52.4209H40.8897V55.1709Z" fill="white"/>
<path d="M58.0797 51.8105H49.1797V55.7705H58.0797V51.8105Z" fill="#00473C"/>
<path d="M58.6901 56.3809H48.5801V51.2109H58.6901V56.3809ZM49.7901 55.1709H57.4801V52.4209H49.7901V55.1709Z" fill="white"/>
<path d="M27.6393 55.7695H18.7393V59.7295H27.6393V55.7695Z" fill="#00473C"/>
<path d="M28.2496 60.3302H18.1396V55.1602H28.2496V60.3302ZM19.3396 59.1202H27.0296V56.3702H19.3396V59.1202Z" fill="white"/>
<path d="M36.5396 55.7693H27.6396V59.7293H36.5396V55.7693Z" fill="#00473C"/>
<path d="M37.15 60.33H27.04V55.16H37.15V60.33ZM28.25 59.12H35.94V56.37H28.25V59.12Z" fill="white"/>
<path d="M45.4508 55.7695H36.5508V59.7295H45.4508V55.7695Z" fill="#00473C"/>
<path d="M46.0504 60.3302H35.9404V55.1602H46.0504V60.3302ZM37.1504 59.1202H44.8404V56.3702H37.1504V59.1202Z" fill="white"/>
<path d="M54.3492 55.7695H45.4492V59.7295H54.3492V55.7695Z" fill="#00473C"/>
<path d="M54.9596 60.3302H44.8496V55.1602H54.9596V60.3302ZM46.0496 59.1202H53.7396V56.3702H46.0496V59.1202Z" fill="white"/>
<path d="M63.2496 55.7693H54.3496V59.7293H63.2496V55.7693Z" fill="#00473C"/>
<path d="M63.86 60.33H53.75V55.16H63.86V60.33ZM54.96 59.12H62.65V56.37H54.96V59.12Z" fill="white"/>
<path d="M22.4693 59.7305H13.5693V63.6905H22.4693V59.7305Z" fill="#00473C"/>
<path d="M23.0797 64.2911H12.9697V59.1211H23.0797V64.2911ZM14.1797 63.0811H21.8697V60.3311H14.1797V63.0811Z" fill="white"/>
<path d="M31.3805 59.7305H22.4805V63.6905H31.3805V59.7305Z" fill="#00473C"/>
<path d="M31.9801 64.2891H21.8701V59.1191H31.9801V64.2891ZM23.0801 63.0791H30.7701V60.3291H23.0801V63.0791Z" fill="white"/>
<path d="M40.2799 59.7305H31.3799V63.6905H40.2799V59.7305Z" fill="#00473C"/>
<path d="M40.8903 64.2911H30.7803V59.1211H40.8903V64.2911ZM31.9803 63.0811H39.6703V60.3311H31.9803V63.0811Z" fill="white"/>
<path d="M49.1793 59.7305H40.2793V63.6905H49.1793V59.7305Z" fill="#00473C"/>
<path d="M49.7897 64.2911H39.6797V59.1211H49.7897V64.2911ZM40.8897 63.0811H48.5797V60.3311H40.8897V63.0811Z" fill="white"/>
<path d="M58.0797 59.7305H49.1797V63.6905H58.0797V59.7305Z" fill="#00473C"/>
<path d="M58.6901 64.2891H48.5801V59.1191H58.6901V64.2891ZM49.7901 63.0791H57.4801V60.3291H49.7901V63.0791Z" fill="white"/>
<path d="M27.6393 63.6797H18.7393V67.6397H27.6393V63.6797Z" fill="#00473C"/>
<path d="M28.2496 68.2501H18.1396V63.0801H28.2496V68.2501ZM19.3396 67.0401H27.0296V64.2901H19.3396V67.0401Z" fill="white"/>
<path d="M36.5396 63.6796H27.6396V67.6396H36.5396V63.6796Z" fill="#00473C"/>
<path d="M37.15 68.25H27.04V63.08H37.15V68.25ZM28.25 67.04H35.94V64.29H28.25V67.04Z" fill="white"/>
<path d="M45.4508 63.6797H36.5508V67.6397H45.4508V63.6797Z" fill="#00473C"/>
<path d="M46.0504 68.2501H35.9404V63.0801H46.0504V68.2501ZM37.1504 67.0401H44.8404V64.2901H37.1504V67.0401Z" fill="white"/>
<path d="M54.3492 63.6797H45.4492V67.6397H54.3492V63.6797Z" fill="#00473C"/>
<path d="M54.9596 68.2501H44.8496V63.0801H54.9596V68.2501ZM46.0496 67.0401H53.7396V64.2901H46.0496V67.0401Z" fill="white"/>
<path d="M63.2496 63.6796H54.3496V67.6396H63.2496V63.6796Z" fill="#00473C"/>
<path d="M63.86 68.25H53.75V63.08H63.86V68.25ZM54.96 67.04H62.65V64.29H54.96V67.04Z" fill="white"/>
<path d="M18.7393 63.6797H13.5693V67.6397H18.7393V63.6797Z" fill="#00473C"/>
<path d="M19.3397 68.2501H12.9697V63.0801H19.3397V68.2501ZM14.1797 67.0401H18.1397V64.2901H14.1797V67.0401Z" fill="white"/>
<path d="M63.2598 59.7305H58.0898V63.6905H63.2598V59.7305Z" fill="#00473C"/>
<path d="M63.8602 64.2891H57.4902V59.1191H63.8602V64.2891ZM58.6902 63.0791H62.6502V60.3291H58.6902V63.0791Z" fill="white"/>
<path d="M22.4693 67.6406H13.5693V71.6006H22.4693V67.6406Z" fill="#00473C"/>
<path d="M23.0797 72.2012H12.9697V67.0312H23.0797V72.2012ZM14.1797 70.9912H21.8697V68.2412H14.1797V70.9912Z" fill="white"/>
<path d="M31.3805 67.6406H22.4805V71.6006H31.3805V67.6406Z" fill="#00473C"/>
<path d="M31.9801 72.2012H21.8701V67.0312H31.9801V72.2012ZM23.0801 70.9912H30.7701V68.2412H23.0801V70.9912Z" fill="white"/>
<path d="M40.2799 67.6406H31.3799V71.6006H40.2799V67.6406Z" fill="#00473C"/>
<path d="M40.8903 72.2012H30.7803V67.0312H40.8903V72.2012ZM31.9803 70.9912H39.6703V68.2412H31.9803V70.9912Z" fill="white"/>
<path d="M49.1793 67.6406H40.2793V71.6006H49.1793V67.6406Z" fill="#00473C"/>
<path d="M49.7897 72.2012H39.6797V67.0312H49.7897V72.2012ZM40.8897 70.9912H48.5797V68.2412H40.8897V70.9912Z" fill="white"/>
<path d="M58.0797 67.6406H49.1797V71.6006H58.0797V67.6406Z" fill="#00473C"/>
<path d="M58.6901 72.2012H48.5801V67.0312H58.6901V72.2012ZM49.7901 70.9912H57.4801V68.2412H49.7901V70.9912Z" fill="white"/>
<path d="M63.2598 67.6406H58.0898V71.6006H63.2598V67.6406Z" fill="#00473C"/>
<path d="M63.8602 72.2012H57.4902V67.0312H63.8602V72.2012ZM58.6902 70.9912H62.6502V68.2412H58.6902V70.9912Z" fill="white"/>
<path d="M63.2598 51.8105H58.0898V55.7705H63.2598V51.8105Z" fill="#00473C"/>
<path d="M63.8602 56.3809H57.4902V51.2109H63.8602V56.3809ZM58.6902 55.1709H62.6502V52.4209H58.6902V55.1709Z" fill="white"/>
<path d="M63.2598 43.8984H58.0898V47.8584H63.2598V43.8984Z" fill="#00473C"/>
<path d="M63.8602 48.4591H57.4902V43.2891H63.8602V48.4591ZM58.6902 47.2491H62.6502V44.4991H58.6902V47.2491Z" fill="white"/>
<path d="M63.2598 35.9922H58.0898V39.9522H63.2598V35.9922Z" fill="#00473C"/>
<path d="M63.8602 40.5509H57.4902V35.3809H63.8602V40.5509ZM58.6902 39.3409H62.6502V36.5909H58.6902V39.3409Z" fill="white"/>
<path d="M18.7393 39.9395H13.5693V43.8995H18.7393V39.9395Z" fill="#00473C"/>
<path d="M19.3397 44.5098H12.9697V39.3398H19.3397V44.5098ZM14.1797 43.2998H18.1397V40.5498H14.1797V43.2998Z" fill="white"/>
<path d="M18.7393 47.8594H13.5693V51.8194H18.7393V47.8594Z" fill="#00473C"/>
<path d="M19.3397 52.42H12.9697V47.25H19.3397V52.42ZM14.1797 51.21H18.1397V48.46H14.1797V51.21Z" fill="white"/>
<path d="M18.7393 55.7695H13.5693V59.7295H18.7393V55.7695Z" fill="#00473C"/>
<path d="M19.3397 60.3302H12.9697V55.1602H19.3397V60.3302ZM14.1797 59.1202H18.1397V56.3702H14.1797V59.1202Z" fill="white"/>
<path d="M38.7596 47.0996H38.7197C29.5597 47.0996 22.1396 54.5196 22.1396 63.6796V71.5996H55.3297V63.6796C55.3297 54.5196 47.9096 47.0996 38.7496 47.0996H38.7596Z" fill="#00473C"/>
<path d="M55.94 72.2H21.54V63.68C21.54 54.21 29.25 46.5 38.72 46.5H38.76C48.23 46.5 55.94 54.21 55.94 63.68V72.2ZM22.75 70.99H54.73V63.67C54.73 54.86 47.56 47.7 38.76 47.7H38.72C29.91 47.7 22.75 54.87 22.75 63.67V70.99Z" fill="white"/>
<path d="M63.8598 13.1294C63.5298 13.1294 63.2598 12.8594 63.2598 12.5294V6.70937C63.2598 6.37937 63.5298 6.10938 63.8598 6.10938C64.1898 6.10938 64.4598 6.37937 64.4598 6.70937V12.5294C64.4598 12.8594 64.1898 13.1294 63.8598 13.1294Z" fill="white"/>
<path d="M38.6201 70.6209C38.6201 70.6209 30.7201 71.2209 31.3201 66.2209C31.9201 61.2209 32.2501 61.8209 31.2901 60.9209C30.3201 60.0209 33.5201 60.5209 33.7201 62.1209C33.9201 63.7209 34.3101 66.2109 34.8601 65.2209C35.4101 64.2309 33.6201 59.3209 34.4201 56.1309C35.2201 52.9309 36.6201 54.1309 36.0701 54.9309C35.5201 55.7309 35.8201 59.7209 36.7201 59.8309C37.6201 59.9309 38.2201 50.7309 38.4201 50.8309C38.6201 50.9309 40.1201 53.4309 40.1201 59.8309C40.1201 66.2309 42.9201 59.1309 43.6201 58.7309C44.3201 58.3309 43.1201 62.1309 43.6201 62.5309C44.1201 62.9309 44.9201 61.1309 45.2201 61.6309C45.5201 62.1309 48.5201 71.7209 38.6201 70.6309V70.6209Z" fill="white"/>
<path d="M40.1204 71.3106C39.6404 71.3106 39.1404 71.2806 38.6104 71.2206C38.0304 71.2606 33.7104 71.4506 31.7104 69.3606C30.9004 68.5206 30.5704 67.4406 30.7304 66.1406C30.9004 64.7406 31.0404 63.7906 31.1504 63.0906C31.2504 62.4106 31.3204 61.9606 31.3004 61.7806C31.3004 61.7406 31.2704 61.7006 31.0304 61.4806C30.9904 61.4406 30.9404 61.4006 30.8904 61.3506C30.4004 60.9006 30.4904 60.5006 30.5904 60.3106C30.7204 60.0506 31.0404 59.7606 31.8404 59.9006C32.4704 60.0106 33.3504 60.3706 33.8804 61.0106C33.6304 59.3406 33.4604 57.5006 33.8504 55.9706C34.3404 54.0206 35.0704 53.5106 35.6004 53.4306C36.0104 53.3606 36.4104 53.5406 36.6404 53.9006C36.9004 54.3106 36.8804 54.8406 36.5904 55.2606C36.5004 55.4006 36.3604 56.1506 36.4504 57.3106C36.5004 57.9206 36.5904 58.3806 36.6804 58.7006C37.0204 57.3506 37.3604 54.3806 37.5204 52.9606C37.5904 52.3306 37.6504 51.7906 37.7104 51.3906C37.7904 50.7506 37.8304 50.4606 38.1504 50.2906L38.4304 50.1406L38.7204 50.2806C39.4104 50.6206 40.7504 53.8706 40.7504 59.8206C40.7504 60.9406 40.8404 61.4906 40.9104 61.7406C41.3004 61.3406 41.9104 60.2906 42.2204 59.7406C42.7704 58.7906 43.0304 58.3706 43.3404 58.1906C43.6004 58.0406 43.9004 58.0506 44.1304 58.2006C44.6104 58.5306 44.5104 59.1906 44.3004 60.4906C44.2504 60.7806 44.1904 61.1806 44.1504 61.5206C44.4504 61.1806 44.7504 60.8806 45.1704 60.9206C45.4104 60.9406 45.6204 61.0806 45.7504 61.3006C46.0804 61.8606 47.3304 66.1106 45.5604 68.8606C44.5204 70.4806 42.7004 71.3006 40.1304 71.3006L40.1204 71.3106ZM38.6304 70.0106H38.6904C41.5204 70.3306 43.4504 69.7606 44.4504 68.3406C45.7104 66.5406 45.2204 63.7406 44.8804 62.5106C44.5204 62.9106 43.8804 63.5206 43.2404 63.0006C42.8004 62.6506 42.8304 61.9706 43.0104 60.7606C42.1804 62.1706 41.4404 63.3006 40.5304 63.0606C39.6804 62.8306 39.5104 61.6006 39.5104 59.8306C39.5104 56.4906 39.1004 54.3006 38.7104 52.9806C38.7104 53.0206 38.7004 53.0706 38.6904 53.1106C38.5404 54.4806 38.3404 56.1806 38.1104 57.5706C37.7804 59.5406 37.4604 60.5206 36.6404 60.4306C36.2404 60.3806 35.9204 60.1006 35.6804 59.5806C35.2404 58.6206 35.0504 56.6306 35.2704 55.4006C35.1804 55.6206 35.0804 55.9106 34.9904 56.2806C34.5604 58.0006 34.9504 60.3206 35.2604 62.1806C35.5604 63.9806 35.7004 64.9406 35.3804 65.5206C35.0604 66.0906 34.6304 66.0806 34.4604 66.0406C33.8604 65.9206 33.5004 65.3206 33.1104 62.2006C33.0704 61.9106 32.8404 61.6906 32.6504 61.5506C32.5804 61.4906 32.5004 61.4406 32.4204 61.4006C32.5504 61.8006 32.4804 62.3106 32.3304 63.2906C32.2304 63.9806 32.0804 64.9106 31.9204 66.3006C31.8104 67.2306 32.0204 67.9606 32.5704 68.5306C33.2604 69.2506 34.5004 69.7406 36.1504 69.9406C37.4604 70.1006 38.5604 70.0206 38.5704 70.0206H38.6304V70.0106Z" fill="white"/>
<path d="M29.0699 72.16L28.6299 71.04L38.7999 66.99L48.7499 71.04L48.2999 72.16L38.7999 68.29L29.0699 72.16Z" fill="white"/>
</g>
<defs>
<clipPath id="clip0_1_2029">
<rect width="77.49" height="72.43" fill="white"/>
</clipPath>
</defs>
</svg>
