<svg width="39" height="67" viewBox="0 0 39 67" fill="none" xmlns="http://www.w3.org/2000/svg">
<g clip-path="url(#clip0_1_2299)">
<path d="M35.4929 0.519531H3.49873C1.84581 0.519531 0.505859 1.89767 0.505859 3.5977V63.3922C0.505859 65.0922 1.84581 66.4704 3.49873 66.4704H35.4929C37.1458 66.4704 38.4858 65.0922 38.4858 63.3922V3.5977C38.4858 1.89767 37.1458 0.519531 35.4929 0.519531Z" fill="#00473C"/>
<path d="M35.5013 67H3.50713C1.57652 67 0 65.3872 0 63.3929V3.60709C0 1.61279 1.56809 0 3.50713 0H35.5013C37.4319 0 39.0084 1.61279 39.0084 3.60709V63.3929C39.0084 65.3785 37.4403 67 35.5013 67ZM3.50713 1.04918C2.13294 1.04918 1.0201 2.19374 1.0201 3.60709V63.3929C1.0201 64.8063 2.13294 65.9508 3.50713 65.9508H35.5013C36.8755 65.9508 37.9883 64.8063 37.9883 63.3929V3.60709C37.9883 2.19374 36.8755 1.04918 35.5013 1.04918H3.50713Z" fill="white"/>
<path d="M38.4858 24.9297H0.505859V27.0454H38.4858V24.9297Z" fill="#00473C"/>
<path d="M39 27.5731H0V24.4082H39V27.5731ZM1.0201 26.5239H37.9883V25.4574H1.0201V26.5239Z" fill="white"/>
<path d="M33.7726 34.6402C33.7726 31.5621 32.5839 30.3828 32.5839 30.3828H32.5081C32.5081 30.3828 31.3193 31.5621 31.3193 34.6402C31.3193 37.1114 32.4996 45.3054 32.5502 45.0366C32.5924 45.3054 32.6176 45.4528 32.6176 45.4528C32.6176 45.4528 33.7726 37.1114 33.7726 34.6402Z" fill="#00473C"/>
<path d="M32.6095 45.9825C32.365 45.9825 32.1458 45.8004 32.1036 45.5489C32.1036 45.5489 32.0783 45.4189 32.0446 45.1848C32.0025 45.072 31.9856 44.9333 31.9603 44.7946C31.9181 44.5691 31.8676 44.2396 31.8085 43.8494C31.6821 42.991 31.5219 41.8898 31.387 40.832C31.1678 39.1325 30.7969 36.0716 30.7969 34.6496C30.7969 31.3807 32.0868 30.0627 32.1458 30.0107C32.2385 29.9153 32.365 29.8633 32.4999 29.8633H32.5757C32.7106 29.8633 32.8371 29.9153 32.9298 30.0107C32.9888 30.0627 34.2787 31.3807 34.2787 34.6496C34.2787 37.1295 33.1659 45.2021 33.1153 45.5403C33.0816 45.7917 32.8708 45.9825 32.6179 45.9911L32.6095 45.9825ZM32.542 31.2333C32.483 31.346 32.4156 31.4847 32.3481 31.6408C32.1121 32.2044 31.8254 33.1929 31.8254 34.6496C31.8254 36.1063 32.2301 39.4186 32.5673 41.8898C32.8877 39.3146 33.267 36.0196 33.267 34.6496C33.267 32.8808 32.8539 31.7969 32.5504 31.242L32.542 31.2333Z" fill="white"/>
<path d="M33.7736 11.6114C33.7736 9.54772 32.5849 8.75 32.5849 8.75H32.509C32.509 8.75 31.3203 9.53905 31.3203 11.6114C31.3203 13.2675 32.5006 18.7649 32.5512 18.5828C32.5933 18.7649 32.6186 18.8603 32.6186 18.8603C32.6186 18.8603 33.7736 13.2589 33.7736 11.6027V11.6114Z" fill="#00473C"/>
<path d="M32.6098 19.3977C32.3738 19.3977 32.1714 19.233 32.1124 19.0075C32.1124 19.0075 32.0955 18.9295 32.0618 18.7908C32.0197 18.6954 31.9944 18.5913 31.9691 18.4959C31.9269 18.3399 31.8764 18.1144 31.8173 17.8456C31.6909 17.2647 31.5307 16.5277 31.3958 15.8166C31.1766 14.6634 30.8057 12.5911 30.8057 11.6199C30.8057 9.29613 32.1714 8.35967 32.2304 8.32499C32.3147 8.27297 32.4075 8.23828 32.5086 8.23828H32.5845C32.6857 8.23828 32.7784 8.26429 32.8627 8.32499C32.9217 8.35967 34.2875 9.29613 34.2875 11.6199C34.2875 13.3108 33.1662 18.7561 33.1156 18.9815C33.0651 19.2156 32.8627 19.3891 32.6267 19.3977C32.6267 19.3977 32.6267 19.3977 32.6182 19.3977H32.6098ZM32.5424 9.42619C32.2557 9.74702 31.8258 10.432 31.8258 11.6199C31.8258 12.539 32.2304 14.7935 32.5677 16.4496C32.888 14.7241 33.2674 12.5304 33.2674 11.6199C33.2674 10.4407 32.8374 9.75569 32.5508 9.42619H32.5424Z" fill="white"/>
<path d="M10.5906 7.77424L5.46094 10.3281L7.99547 15.7133L13.1252 13.1594L10.5906 7.77424Z" fill="white"/>
<path d="M7.75628 16.4128L4.78027 10.083L10.825 7.07422L13.801 13.404L7.75628 16.4128ZM6.1376 10.5686L8.22839 15.0081L12.4437 12.9097L10.3529 8.47023L6.1376 10.5686Z" fill="white"/>
<path d="M15.4935 5.30487L14.666 9.39667L19.9568 10.5285L20.7843 6.43672L15.4935 5.30487Z" fill="#00473C"/>
<path d="M20.3517 11.1521L14.0625 9.80809L15.0995 4.68359L21.3887 6.02758L20.3517 11.1521ZM15.2681 8.99303L19.5593 9.91214L20.1831 6.84265L15.8919 5.92353L15.2681 8.99303Z" fill="white"/>
</g>
<defs>
<clipPath id="clip0_1_2299">
<rect width="39" height="67" fill="white"/>
</clipPath>
</defs>
</svg>
