<svg width="85" height="77" viewBox="0 0 85 77" fill="none" xmlns="http://www.w3.org/2000/svg">
<g clip-path="url(#clip0_1_2253)">
<path d="M72.5498 29.7109H11.7498C9.12977 29.7109 7.00977 31.8309 7.00977 34.4509V61.5909H77.2798V34.4509C77.2798 31.8309 75.1598 29.7109 72.5398 29.7109H72.5498Z" fill="#00473C"/>
<path d="M77.8902 62.1913H6.41016V34.4513C6.41016 31.5013 8.81016 29.1113 11.7502 29.1113H72.5502C75.5002 29.1113 77.8902 31.5113 77.8902 34.4513V62.1913ZM7.62016 60.9813H76.6802V34.4413C76.6802 32.1613 74.8302 30.3113 72.5502 30.3113H11.7502C9.47016 30.3113 7.62016 32.1613 7.62016 34.4413V60.9813Z" fill="white"/>
<path d="M83.6896 53.8203H0.599609V68.4403H83.6896V53.8203Z" fill="#00473C"/>
<path d="M84.3 69.0507H0V53.2207H84.3V69.0507ZM1.21 67.8407H83.09V54.4307H1.21V67.8407Z" fill="white"/>
<path d="M83.6896 61.1309H0.599609V75.7509H83.6896V61.1309Z" fill="#00473C"/>
<path d="M84.3 76.3495H0V60.5195H84.3V76.3495ZM1.21 75.1495H83.09V61.7395H1.21V75.1495Z" fill="white"/>
<path d="M83.6991 75.4299V51.8199C83.6991 49.3899 81.7291 47.4199 79.2991 47.4199H75.2691C72.8391 47.4199 70.8691 49.3899 70.8691 51.8199V75.4299H83.6891H83.6991Z" fill="#00473C"/>
<path d="M84.2995 76.0303H70.2695V51.8203C70.2695 49.0603 72.5095 46.8203 75.2695 46.8203H79.2995C82.0595 46.8203 84.2995 49.0603 84.2995 51.8203V76.0303ZM71.4795 74.8203H83.0895V51.8103C83.0895 49.7203 81.3895 48.0203 79.2995 48.0203H75.2695C73.1795 48.0203 71.4795 49.7203 71.4795 51.8103V74.8203Z" fill="white"/>
<path d="M13.4296 75.4299V51.8199C13.4296 49.3899 11.4596 47.4199 9.02961 47.4199H4.99961C2.56961 47.4199 0.599609 49.3899 0.599609 51.8199V75.4299H13.4196H13.4296Z" fill="#00473C"/>
<path d="M14.03 76.0303H0V51.8203C0 49.0603 2.24 46.8203 5 46.8203H9.03C11.79 46.8203 14.03 49.0603 14.03 51.8203V76.0303ZM1.21 74.8203H12.82V51.8103C12.82 49.7203 11.12 48.0203 9.03 48.0203H5C2.91 48.0203 1.21 49.7203 1.21 51.8103V74.8203Z" fill="white"/>
<path d="M7.62016 51.3691H6.41016V75.7491H7.62016V51.3691Z" fill="white"/>
<path d="M13.4299 50.76H0.629883V51.97H13.4299V50.76Z" fill="white"/>
<path d="M77.8799 51.3691H76.6699V75.7491H77.8799V51.3691Z" fill="white"/>
<path d="M83.6897 50.7598H70.8896V51.9698H83.6897V50.7598Z" fill="white"/>
</g>
<defs>
<clipPath id="clip0_1_2253">
<rect width="84.3" height="76.35" fill="white"/>
</clipPath>
</defs>
</svg>
