<svg width="70" height="76" viewBox="0 0 70 76" fill="none" xmlns="http://www.w3.org/2000/svg">
<g clip-path="url(#clip0_1_1984)">
<path d="M3.62965 39.1504H0.639648V75.1904H3.62965V39.1504Z" fill="#00473C"/>
<path d="M4.24004 75.8008H0.0400391V38.5508H4.24004V75.8008ZM1.25004 74.5908H3.03004V39.7608H1.25004V74.5908Z" fill="white"/>
<path d="M69.2107 39.1504H35.7207V75.1904H69.2107V39.1504Z" fill="#00473C"/>
<path d="M69.8103 75.8008H35.1104V38.5508H69.8103V75.8008ZM36.3304 74.5908H68.6104V39.7608H36.3304V74.5908Z" fill="white"/>
<path d="M69.2096 32.25H0.639648V39.48H69.2096V32.25Z" fill="#00473C"/>
<path d="M69.81 40.0806H0.0400391V31.6406H69.82V40.0806H69.81ZM1.25004 38.8706H68.61V32.8506H1.25004V38.8706Z" fill="white"/>
<path d="M69.3901 57.78H35.7201C35.3901 57.78 35.1201 57.51 35.1201 57.18C35.1201 56.85 35.3901 56.58 35.7201 56.58H69.3901C69.7201 56.58 69.9901 56.85 69.9901 57.18C69.9901 57.51 69.7201 57.78 69.3901 57.78Z" fill="white"/>
<path d="M56.0203 49.9891H48.9203C48.5903 49.9891 48.3203 49.7191 48.3203 49.3891C48.3203 49.0591 48.5903 48.7891 48.9203 48.7891H56.0203C56.3503 48.7891 56.6203 49.0591 56.6203 49.3891C56.6203 49.7191 56.3503 49.9891 56.0203 49.9891Z" fill="white"/>
<path d="M56.0203 65.4813H48.9203C48.5903 65.4813 48.3203 65.2112 48.3203 64.8812C48.3203 64.5512 48.5903 64.2812 48.9203 64.2812H56.0203C56.3503 64.2812 56.6203 64.5512 56.6203 64.8812C56.6203 65.2112 56.3503 65.4813 56.0203 65.4813Z" fill="white"/>
<path d="M63.2901 13.791H38.0801V29.401H63.2901V13.791Z" fill="#00473C"/>
<path d="M63.8897 30.0014H37.4697V13.1914H63.8897V30.0014ZM38.6797 28.7914H62.6797V14.3914H38.6797V28.7914Z" fill="white"/>
<path d="M65.9407 29.3984H34.9307V32.0684H65.9407V29.3984Z" fill="#00473C"/>
<path d="M66.5403 32.6691H34.3203V28.7891H66.5403V32.6691ZM35.5303 31.4591H65.3303V29.9991H35.5303V31.4591Z" fill="white"/>
<path d="M61.2497 15.6913H39.9297V27.6513H61.2497V15.6913Z" fill="#00473C"/>
<path d="M61.8601 28.25H39.3301V15.08H61.8601V28.25ZM40.5401 27.04H60.6501V16.29H40.5401V27.04Z" fill="white"/>
<path d="M19.2201 72.57C18.8901 72.57 18.6201 72.3 18.6201 71.97V48.51C18.6201 48.18 18.8901 47.91 19.2201 47.91C19.5501 47.91 19.8201 48.18 19.8201 48.51V71.97C19.8201 72.3 19.5501 72.57 19.2201 72.57Z" fill="#00473C"/>
<path d="M29.1095 59.079H9.32953C8.05953 59.079 7.01953 58.049 7.01953 56.769C7.01953 55.499 8.04953 54.459 9.32953 54.459H29.1095C30.3795 54.459 31.4195 55.489 31.4195 56.769C31.4195 58.039 30.3895 59.079 29.1095 59.079Z" fill="#00473C"/>
<path d="M29.1099 59.6794H9.32992C7.71992 59.6794 6.41992 58.3694 6.41992 56.7694C6.41992 55.1694 7.72992 53.8594 9.32992 53.8594H29.1099C30.7199 53.8594 32.0199 55.1694 32.0199 56.7694C32.0199 58.3694 30.7099 59.6794 29.1099 59.6794ZM9.32992 55.0694C8.38992 55.0694 7.62992 55.8294 7.62992 56.7694C7.62992 57.7094 8.38992 58.4694 9.32992 58.4694H29.1099C30.0499 58.4694 30.8099 57.7094 30.8099 56.7694C30.8099 55.8294 30.0499 55.0694 29.1099 55.0694H9.32992Z" fill="white"/>
<path d="M26.8003 72.9189C26.4703 72.9189 26.2003 72.6489 26.2003 72.3189V70.0889H12.0203V72.3189C12.0203 72.6489 11.7503 72.9189 11.4203 72.9189C11.0903 72.9189 10.8203 72.6489 10.8203 72.3189V68.8789H27.4203V72.3189C27.4203 72.6489 27.1503 72.9189 26.8203 72.9189H26.8003Z" fill="#00473C"/>
<path d="M27.8705 23.5391H10.5705C8.6099 23.5391 7.02051 25.1285 7.02051 27.0891V45.8291C7.02051 47.7897 8.6099 49.3791 10.5705 49.3791H27.8705C29.8311 49.3791 31.4205 47.7897 31.4205 45.8291V27.0891C31.4205 25.1285 29.8311 23.5391 27.8705 23.5391Z" fill="#00473C"/>
<path d="M27.8702 49.9897H10.5702C8.28016 49.9897 6.41016 48.1297 6.41016 45.8297V27.0897C6.41016 24.7997 8.27016 22.9297 10.5702 22.9297H27.8602C30.1502 22.9297 32.0202 24.7897 32.0202 27.0897V45.8297C32.0202 48.1197 30.1602 49.9897 27.8602 49.9897H27.8702ZM10.5702 24.1497C8.94016 24.1497 7.62016 25.4697 7.62016 27.0997V45.8397C7.62016 47.4697 8.94016 48.7897 10.5702 48.7897H27.8602C29.4902 48.7897 30.8102 47.4697 30.8102 45.8397V27.0997C30.8102 25.4697 29.4902 24.1497 27.8602 24.1497H10.5702Z" fill="white"/>
<path d="M11.3093 75.1984C10.7593 75.1984 10.3193 74.7584 10.3193 74.2084V73.3084C10.3193 72.7584 10.7593 72.3184 11.3093 72.3184C11.8593 72.3184 12.2993 72.7584 12.2993 73.3084V74.2084C12.2993 74.7584 11.8593 75.1984 11.3093 75.1984Z" fill="#00473C"/>
<path d="M11.3097 75.7988C10.4297 75.7988 9.71973 75.0887 9.71973 74.2087V73.3087C9.71973 72.4287 10.4397 71.7188 11.3097 71.7188C12.1797 71.7188 12.8997 72.4287 12.8997 73.3087V74.2087C12.8997 75.0887 12.1797 75.7988 11.3097 75.7988ZM11.3097 72.9187C11.0997 72.9187 10.9297 73.0888 10.9297 73.2988V74.1987C10.9297 74.4087 11.0997 74.5788 11.3097 74.5788C11.5197 74.5788 11.6897 74.4087 11.6897 74.1987V73.2988C11.6897 73.0888 11.5197 72.9187 11.3097 72.9187Z" fill="white"/>
<path d="M26.7996 75.1984C26.2496 75.1984 25.8096 74.7584 25.8096 74.2084V73.3084C25.8096 72.7584 26.2496 72.3184 26.7996 72.3184C27.3496 72.3184 27.7896 72.7584 27.7896 73.3084V74.2084C27.7896 74.7584 27.3496 75.1984 26.7996 75.1984Z" fill="#00473C"/>
<path d="M26.8 75.7988C25.92 75.7988 25.21 75.0887 25.21 74.2087V73.3087C25.21 72.4287 25.92 71.7188 26.8 71.7188C27.68 71.7188 28.39 72.4287 28.39 73.3087V74.2087C28.39 75.0887 27.67 75.7988 26.8 75.7988ZM26.8 72.9187C26.59 72.9187 26.42 73.0888 26.42 73.2988V74.1987C26.42 74.4087 26.59 74.5788 26.8 74.5788C27.01 74.5788 27.18 74.4087 27.18 74.1987V73.2988C27.18 73.0888 27.01 72.9187 26.8 72.9187Z" fill="white"/>
<path d="M19.2195 74.0987C18.6695 74.0987 18.2295 73.6587 18.2295 73.1087V72.2087C18.2295 71.6587 18.6695 71.2188 19.2195 71.2188C19.7695 71.2188 20.2095 71.6587 20.2095 72.2087V73.1087C20.2095 73.6587 19.7695 74.0987 19.2195 74.0987Z" fill="#00473C"/>
<path d="M19.2199 74.6991C18.3399 74.6991 17.6299 73.9891 17.6299 73.1091V72.2091C17.6299 71.3291 18.3499 70.6191 19.2199 70.6191C20.0899 70.6191 20.8099 71.3291 20.8099 72.2091V73.1091C20.8099 73.9891 20.0899 74.6991 19.2199 74.6991ZM19.2199 71.8191C19.0099 71.8191 18.8399 71.9891 18.8399 72.1991V73.0991C18.8399 73.3091 19.0099 73.4791 19.2199 73.4791C19.4299 73.4791 19.5999 73.3091 19.5999 73.0991V72.1991C19.5999 71.9891 19.4299 71.8191 19.2199 71.8191Z" fill="white"/>
<path d="M3.63 32.67C3.33 32.67 3.07 32.45 3.03 32.14L0 8.81L10.09 0H27.85C28.18 0 28.45 0.27 28.45 0.6C28.45 0.93 28.18 1.2 27.85 1.2H10.54L1.28 9.29L4.23 31.98C4.27 32.31 4.04 32.61 3.71 32.66C3.68 32.66 3.66 32.66 3.63 32.66V32.67Z" fill="#00473C"/>
<path d="M27.86 0.599609H14.25V4.11961H27.86V0.599609Z" fill="#00473C"/>
<path d="M28.4596 4.73H13.6396V0H28.4596V4.73ZM14.8496 3.52H27.2496V1.21H14.8496V3.52Z" fill="white"/>
</g>
<defs>
<clipPath id="clip0_1_1984">
<rect width="69.99" height="75.8" fill="white"/>
</clipPath>
</defs>
</svg>
