<svg width="75" height="77" viewBox="0 0 75 77" fill="none" xmlns="http://www.w3.org/2000/svg">
<g clip-path="url(#clip0_1_2216)">
<path d="M22.4203 73.1387H1.32031V75.4887H22.4203V73.1387Z" fill="#00473C"/>
<path d="M23.03 76.0891H0.709961V72.5391H23.02V76.0891H23.03ZM1.91996 74.8791H21.81V73.7391H1.91996V74.8791Z" fill="white"/>
<path d="M12.4795 18.3008H11.2695V73.1408H12.4795V18.3008Z" fill="#00473C"/>
<path d="M5.70953 0.599609H11.9795H18.2395L23.1895 20.9196H11.9795H0.769531L5.70953 0.599609Z" fill="#00473C"/>
<path d="M23.96 21.52H0L5.24 0H18.72L23.96 21.52ZM1.54 20.31H22.42L17.77 1.21H6.19L1.54 20.31Z" fill="white"/>
<path d="M18.25 20.92H17.04V35.37H18.25V20.92Z" fill="white"/>
<path d="M17.6396 34.9998C17.6396 34.9998 19.2896 39.0098 17.6396 39.0098C15.9896 39.0098 17.6396 34.9998 17.6396 34.9998Z" fill="#00473C"/>
<path d="M17.64 39.62C17.19 39.62 16.81 39.43 16.58 39.08C15.85 37.99 16.78 35.51 17.08 34.78C17.17 34.55 17.39 34.41 17.64 34.41C17.89 34.41 18.11 34.56 18.2 34.78C18.5 35.51 19.43 38 18.7 39.08C18.47 39.43 18.09 39.62 17.64 39.62ZM17.59 38.41C17.59 38.41 17.61 38.41 17.64 38.41C17.68 38.41 17.7 38.41 17.7 38.41C17.75 38.35 17.85 37.97 17.64 37.02C17.48 37.74 17.46 38.28 17.59 38.42V38.41Z" fill="white"/>
<path d="M74.2099 38.4004H29.9199V70.5204H74.2099V38.4004Z" fill="#00473C"/>
<path d="M74.8096 71.1308H29.3096V37.8008H74.8096V71.1308ZM30.5196 69.9208H73.5996V39.0108H30.5196V69.9208Z" fill="white"/>
<path d="M37.6499 70.5195H34.1699V75.4895H37.6499V70.5195Z" fill="#00473C"/>
<path d="M38.2603 76.0899H33.5703V69.9199H38.2603V76.0899ZM34.7803 74.8799H37.0503V71.1199H34.7803V74.8799Z" fill="white"/>
<path d="M70.1792 70.5195H66.6992V75.4895H70.1792V70.5195Z" fill="#00473C"/>
<path d="M70.7896 76.0899H66.0996V69.9199H70.7896V76.0899ZM67.3096 74.8799H69.5796V71.1199H67.3096V74.8799Z" fill="white"/>
<path d="M74.2099 53.8594H29.9199V55.0694H74.2099V53.8594Z" fill="white"/>
<path d="M71.28 35.0508H56.71V37.9908H71.28V35.0508Z" fill="#00473C"/>
<path d="M71.8796 38.5914H56.0996V34.4414H71.8796V38.5914ZM57.3096 37.3814H70.6696V35.6514H57.3096V37.3814Z" fill="white"/>
<path d="M70.3307 28.6914H55.7607V31.6314H70.3307V28.6914Z" fill="#00473C"/>
<path d="M70.9304 32.2301H55.1504V28.0801H70.9304V32.2301ZM56.3604 31.0201H69.7204V29.2901H56.3604V31.0201Z" fill="white"/>
<path d="M68.7692 31.7617H54.1992V34.7017H68.7692V31.7617Z" fill="#00473C"/>
<path d="M69.3796 35.3004H53.5996V31.1504H69.3796V35.3004ZM54.8096 34.0904H68.1696V32.3604H54.8096V34.0904Z" fill="white"/>
<path d="M55.6102 46.9813H48.5102C48.1802 46.9813 47.9102 46.7113 47.9102 46.3813C47.9102 46.0513 48.1802 45.7812 48.5102 45.7812H55.6102C55.9402 45.7812 56.2102 46.0513 56.2102 46.3813C56.2102 46.7113 55.9402 46.9813 55.6102 46.9813Z" fill="white"/>
<path d="M55.6102 62.62H48.5102C48.1802 62.62 47.9102 62.35 47.9102 62.02C47.9102 61.69 48.1802 61.42 48.5102 61.42H55.6102C55.9402 61.42 56.2102 61.69 56.2102 62.02C56.2102 62.35 55.9402 62.62 55.6102 62.62Z" fill="white"/>
</g>
<defs>
<clipPath id="clip0_1_2216">
<rect width="74.81" height="76.09" fill="white"/>
</clipPath>
</defs>
</svg>
