<svg width="200" height="140" viewBox="0 0 200 140" fill="none" xmlns="http://www.w3.org/2000/svg">
<g clip-path="url(#clip0_1_121)">
<path d="M55.491 7.30664H14.5567C14.3325 7.30664 14.1519 7.48727 14.1519 7.7115V131.885C14.1519 132.109 14.3325 132.29 14.5567 132.29H55.491C55.7152 132.29 55.8959 132.109 55.8959 131.885V7.7115C55.8959 7.48727 55.7152 7.30664 55.491 7.30664ZM55.0861 8.11636V131.48H14.9616V8.11636H55.0861Z" fill="black"/>
<path d="M184.722 7.30664H153.678C153.454 7.30664 153.273 7.48727 153.273 7.7115V131.885C153.273 132.109 153.454 132.29 153.678 132.29H184.722C184.946 132.29 185.126 132.109 185.126 131.885V7.7115C185.126 7.48727 184.946 7.30664 184.722 7.30664ZM184.317 8.11636V131.48H154.083V8.11636H184.317Z" fill="black"/>
<path d="M199.253 133.622C199.141 133.068 198.648 132.65 198.063 132.65H192.439V0.809961C192.439 0.361502 192.077 0.000244141 191.629 0.000244141H7.65499C7.20654 0.000244141 6.84528 0.361502 6.84528 0.809961V132.65H1.22086C0.635374 132.65 0.143316 133.068 0.031201 133.622C0.0125152 133.703 0.00628662 133.784 0.00628662 133.865V138.779C0.00628662 138.86 0.0125152 138.948 0.031201 139.022C0.143316 139.577 0.635374 139.994 1.22086 139.994H198.057C198.642 139.994 199.134 139.577 199.246 139.022C199.265 138.941 199.271 138.86 199.271 138.779V133.865C199.271 133.784 199.265 133.697 199.246 133.622H199.253ZM13.0676 6.2226H56.9792V132.657H13.0676V6.2226ZM66.5152 6.2226H139.072V132.657H66.5152V6.2226ZM152.189 6.2226H186.21V132.657H152.189V6.2226ZM196.842 137.509H2.43544V135.086H196.842V137.509ZM8.46471 5.41289V1.62591H190.807V132.657H187.829V5.41289C187.829 4.96443 187.468 4.60317 187.02 4.60317H151.373C150.925 4.60317 150.564 4.96443 150.564 5.41289V132.657H140.691V5.41289C140.691 4.96443 140.33 4.60317 139.882 4.60317H65.7054C65.257 4.60317 64.8957 4.96443 64.8957 5.41289V132.657H58.6049V5.41289C58.6049 4.96443 58.2436 4.60317 57.7951 4.60317H12.2579C11.8095 4.60317 11.4482 4.96443 11.4482 5.41289V132.657H8.47094V5.41289H8.46471Z" fill="black"/>
</g>
<defs>
<clipPath id="clip0_1_121">
<rect width="199.277" height="140" fill="white"/>
</clipPath>
</defs>
</svg>
