<svg width="139" height="140" viewBox="0 0 139 140" fill="none" xmlns="http://www.w3.org/2000/svg">
<g clip-path="url(#clip0_1_134)">
<path d="M125.459 12.6094H73.3372C73.1904 12.6094 73.0718 12.728 73.0718 12.8748V125.459C73.0718 125.605 73.1904 125.724 73.3372 125.724H125.459C125.606 125.724 125.724 125.605 125.724 125.459V12.8748C125.724 12.728 125.606 12.6094 125.459 12.6094ZM125.193 13.1402V125.193H73.6026V13.1402H125.193Z" fill="black"/>
<path d="M137.967 0H0.367054C0.163762 0 0 0.163762 0 0.367054V139.633C0 139.836 0.163762 140 0.367054 140H137.967C138.17 140 138.334 139.836 138.334 139.633V0.367054C138.334 0.163762 138.17 0 137.967 0ZM137.6 0.734108V139.266H0.734108V0.734108H137.6Z" fill="black"/>
<path d="M6.39823 132.378C6.47164 132.395 6.54505 132.4 6.61846 132.4H131.71C131.784 132.4 131.863 132.395 131.931 132.378C132.433 132.276 132.812 131.83 132.812 131.299V127.787C132.812 127.256 132.433 126.81 131.931 126.708C131.857 126.691 131.784 126.685 131.71 126.685H130.361V8.70872C130.361 8.30213 130.033 7.97461 129.627 7.97461H8.70785C8.30127 7.97461 7.97374 8.30213 7.97374 8.70872V126.685H6.62411C6.5507 126.685 6.47164 126.691 6.40388 126.708C5.9013 126.81 5.52295 127.256 5.52295 127.787V131.299C5.52295 131.83 5.9013 132.276 6.40388 132.378H6.39823ZM130.609 128.888V130.192H7.72527V128.888H130.609ZM11.5257 11.5266H62.1735V126.68H11.5257V11.5266ZM71.9879 11.5266H126.809V126.68H71.9879V11.5266ZM9.44196 9.44282H128.893V126.68H128.277V10.7925C128.277 10.3859 127.95 10.0583 127.543 10.0583H71.2538C70.8472 10.0583 70.5197 10.3859 70.5197 10.7925V126.685H63.653V10.7925C63.653 10.3859 63.3255 10.0583 62.9189 10.0583H10.7916C10.385 10.0583 10.0575 10.3859 10.0575 10.7925V126.685H9.44196V9.44282Z" fill="black"/>
</g>
<defs>
<clipPath id="clip0_1_134">
<rect width="138.334" height="140" fill="white"/>
</clipPath>
</defs>
</svg>
