<svg width="93" height="140" viewBox="0 0 93 140" fill="none" xmlns="http://www.w3.org/2000/svg">
<g clip-path="url(#clip0_1_127)">
<path d="M3.52682 46.8815C3.53203 46.9287 3.53724 46.9706 3.55287 47.0126C3.5685 47.0545 3.58933 47.0912 3.61538 47.1279C3.63622 47.1646 3.65706 47.2012 3.68831 47.2379C3.71957 47.2694 3.75083 47.2956 3.78729 47.3218C3.82376 47.348 3.85502 47.3742 3.89148 47.3952C3.93316 47.4161 3.97484 47.4214 4.02172 47.4371C4.05298 47.4476 4.08424 47.4633 4.1207 47.4685C4.13112 47.4685 4.14154 47.4685 4.15196 47.4685C4.16238 47.4685 4.1728 47.4738 4.18322 47.4738H88.8115C88.8324 47.4738 88.8532 47.4738 88.8793 47.4738C88.9157 47.4738 88.9418 47.4528 88.9783 47.4423C89.0199 47.4319 89.0668 47.4214 89.1085 47.4004C89.1502 47.3794 89.1814 47.3532 89.2179 47.327C89.2544 47.3008 89.2856 47.2746 89.3169 47.2432C89.3481 47.2117 89.3638 47.175 89.3898 47.1331C89.4106 47.0964 89.4367 47.0597 89.4523 47.0178C89.4679 46.9759 89.4732 46.9287 89.4784 46.8868C89.4784 46.8553 89.4992 46.8239 89.4992 46.7872C89.4992 46.7767 89.494 46.7662 89.494 46.7558C89.494 46.7453 89.494 46.7348 89.494 46.7243L88.6761 38.4172C88.6761 38.37 88.6605 38.3281 88.6501 38.2862L86.2433 30.2987C86.2328 30.2568 86.212 30.2149 86.1912 30.1729L82.284 22.8145C82.2632 22.7725 82.2372 22.7358 82.2111 22.7044L76.9495 16.2579C76.9235 16.2212 76.8922 16.1897 76.8557 16.1635L70.4376 10.87C70.4012 10.8438 70.3647 10.8176 70.3282 10.7966L63.0193 6.86058C62.9776 6.83961 62.9412 6.82389 62.8943 6.80817L54.955 4.38678C54.9133 4.3763 54.8664 4.36582 54.8248 4.36058L46.5677 3.54297C46.5208 3.54297 46.4791 3.54297 46.4323 3.54297L38.1752 4.36058C38.1283 4.36058 38.0866 4.37106 38.045 4.38678L30.1057 6.80817C30.064 6.81865 30.0223 6.83961 29.9807 6.86058L22.6665 10.7966C22.6248 10.8176 22.5884 10.8438 22.5571 10.87L16.1494 16.1635C16.113 16.1897 16.0817 16.2212 16.0557 16.2579L10.7941 22.7044C10.768 22.7411 10.742 22.7778 10.7211 22.8145L6.8036 30.1729C6.78276 30.2149 6.76713 30.2516 6.7515 30.2987L4.34471 38.2862C4.33429 38.3281 4.32387 38.3753 4.31866 38.4172L3.51119 46.7243C3.51119 46.7243 3.51119 46.7453 3.51119 46.7558C3.51119 46.7662 3.50598 46.7767 3.50598 46.7872C3.50598 46.8239 3.52161 46.8553 3.52682 46.8868V46.8815ZM7.55897 32.3218H31.1215V33.3753H7.24119L7.55897 32.3218ZM16.6964 17.6153H31.1215V18.674H15.8317L16.6964 17.6153ZM31.6112 33.6216V7.76729L32.6636 7.44758V46.1006H31.6112V33.6268V33.6216ZM76.3035 17.6153L77.1683 18.674H61.8732V17.6153H76.3087H76.3035ZM85.7484 33.3753H61.868V32.3218H85.4306L85.7484 33.3753ZM61.3783 17.369V46.1006H60.326V7.44234L61.3783 7.76205V17.3637V17.369ZM33.148 32.3218H59.8415V33.3753H33.148V32.3218ZM59.8415 31.8291H33.148V19.1614H59.8415V31.8291ZM33.148 33.8679H59.8415V46.0954H33.148V33.8679ZM59.8415 18.6688H33.148V17.6101H59.8415V18.6688ZM88.0614 46.0954H61.868V33.8679H85.8994L87.3268 38.6111L88.0614 46.1006V46.0954ZM84.9565 30.7495L85.2795 31.8291H61.8628V19.1614H77.559L81.1067 23.5063L84.9513 30.7495H84.9565ZM69.625 11.9549L75.8868 17.1226H61.868V7.91404L62.4306 8.08699L69.6197 11.9549H69.625ZM38.3784 5.7023L46.5 4.89517L54.6216 5.7023L59.8415 7.29559V17.1226H33.148V7.29559L38.3784 5.7023ZM23.3698 11.9549L30.5693 8.08699L31.1268 7.91928V17.1279H17.1184L23.3698 11.9602V11.9549ZM11.8829 23.5063L15.4305 19.1614H31.1215V31.8291H7.70484L8.02783 30.7495L11.8829 23.5063ZM7.09012 33.8679H31.1215V46.0954H4.93338L5.66271 38.6059L7.09012 33.8627V33.8679Z" fill="black"/>
<path d="M86.8891 56.2109H6.11057C5.97512 56.2109 5.86572 56.321 5.86572 56.4573V133.852C5.86572 133.989 5.97512 134.099 6.11057 134.099H86.8891C87.0245 134.099 87.1339 133.989 87.1339 133.852V56.4573C87.1339 56.321 87.0245 56.2109 86.8891 56.2109ZM6.35542 56.6984H86.6442V133.606H6.35542V56.6984Z" fill="black"/>
<path d="M92.9948 46.761C92.9948 46.761 92.9948 46.7505 92.9948 46.7453L92.104 37.6887C92.104 37.6887 92.0988 37.6468 92.0935 37.6258L89.468 28.9099C89.468 28.9099 89.4523 28.8679 89.4419 28.847L85.1805 20.8229C85.1805 20.8229 85.1597 20.7862 85.1441 20.7652L79.398 13.7264C79.398 13.7264 79.3667 13.695 79.3511 13.6792L72.36 7.90356C72.36 7.90356 72.3235 7.87736 72.3027 7.86688L64.3269 3.57442C64.3269 3.57442 64.2852 3.55346 64.2644 3.54822L55.601 0.906709C55.601 0.906709 55.5593 0.896226 55.5333 0.896226L46.5313 0C46.5313 0 46.4844 0 46.4635 0L37.4563 0.890985C37.4563 0.890985 37.4146 0.896226 37.3938 0.901468L28.7408 3.54298C28.7408 3.54298 28.6991 3.5587 28.6783 3.56918L20.6921 7.86164C20.6921 7.86164 20.6557 7.8826 20.6348 7.89832L13.6437 13.674C13.6437 13.674 13.6124 13.7055 13.5968 13.7212L7.85593 20.76C7.85593 20.76 7.82988 20.7966 7.81946 20.8176L3.54767 28.8417C3.54767 28.8417 3.52683 28.8836 3.52162 28.9046L0.896034 37.6205C0.896034 37.6205 0.885615 37.6625 0.880406 37.6887L0 46.7453C0 46.7453 0 46.7558 0 46.761C0 46.7662 0 46.7715 0 46.7767V139.654C0 139.843 0.151075 139.995 0.338618 139.995H92.6562C92.8437 139.995 92.9948 139.843 92.9948 139.654V46.782C92.9948 46.782 92.9948 46.7715 92.9948 46.7662V46.761ZM1.55764 37.7883L4.16239 29.1352L8.40292 21.1688L14.1021 14.1824L21.0412 8.44864L28.97 4.18763L37.5605 1.56709L46.5052 0.681342L55.4395 1.56709L64.0404 4.18763L71.9588 8.44864L78.8979 14.1824L84.6023 21.1688L88.8324 29.1352L91.4371 37.7883L92.3228 46.7924V139.313H0.677235V46.7977L1.55764 37.7935V37.7883Z" fill="black"/>
<path d="M4.18847 136.472H88.8168C89.1919 136.472 89.494 136.168 89.494 135.791V54.5173C89.494 54.1399 89.1919 53.8359 88.8168 53.8359H4.18847C3.81338 53.8359 3.51123 54.1399 3.51123 54.5173V135.786C3.51123 136.163 3.81338 136.467 4.18847 136.467V136.472ZM4.8657 135.104V55.2039H88.1343V135.11H4.8657V135.104Z" fill="black"/>
</g>
<defs>
<clipPath id="clip0_1_127">
<rect width="93" height="140" fill="white"/>
</clipPath>
</defs>
</svg>
