<svg width="88" height="140" viewBox="0 0 88 140" fill="none" xmlns="http://www.w3.org/2000/svg">
<g clip-path="url(#clip0_1_115)">
<path d="M75.168 12.6094H12.8319C12.6856 12.6094 12.5674 12.728 12.5674 12.8748V125.459C12.5674 125.605 12.6856 125.724 12.8319 125.724H75.168C75.3144 125.724 75.4326 125.605 75.4326 125.459V12.8748C75.4326 12.728 75.3144 12.6094 75.168 12.6094ZM74.9035 13.1402V125.193H13.0964V13.1402H74.9035Z" fill="black"/>
<path d="M6.60186 132.4H81.4041C82.0119 132.4 82.5016 131.908 82.5016 131.298V127.261C82.5016 126.651 82.0063 126.16 81.4041 126.16H79.7664V8.70804C79.7664 8.46522 79.5694 8.26758 79.3274 8.26758H8.67861C8.4366 8.26758 8.23962 8.46522 8.23962 8.70804V126.16H6.60186C5.99403 126.16 5.50439 126.651 5.50439 127.261V131.298C5.50439 131.908 5.99966 132.4 6.60186 132.4ZM80.301 128.362V130.192H7.69933V128.362H80.301ZM11.487 11.5259H76.5134V126.154H11.487V11.5259ZM9.1176 9.14851H78.8828V126.16H77.9766V10.7918C77.9766 10.3852 77.6502 10.0577 77.245 10.0577H10.7554C10.3501 10.0577 10.0237 10.3852 10.0237 10.7918V126.16H9.1176V9.14851Z" fill="black"/>
<path d="M87.6342 0H0.365822C0.163213 0 0 0.163762 0 0.367054V139.633C0 139.836 0.163213 140 0.365822 140H87.6342C87.8368 140 88 139.836 88 139.633V0.367054C88 0.163762 87.8368 0 87.6342 0ZM87.2684 0.734108V139.266H0.731645V0.734108H87.2684Z" fill="black"/>
</g>
<defs>
<clipPath id="clip0_1_115">
<rect width="88" height="140" fill="white"/>
</clipPath>
</defs>
</svg>
